<?xml version="1.0" encoding="utf-8"?>
<!-- Generator: Adobe Illustrator 19.1.0, SVG Export Plug-In . SVG Version: 6.00 Build 0)  -->
<svg width="1413" height="189" version="1.1" id="Layer_1" xmlns="http://www.w3.org/2000/svg" xmlns:xlink="http://www.w3.org/1999/xlink" x="0px" y="0px"
	 viewBox="1198.1 935 1412.8 189" style="enable-background:new 1198.1 935 1412.8 189;" xml:space="preserve">
<style type="text/css">
	.st0{fill:#F8F8F8;}
	.st1{fill:#414042;}
	.st2{fill:none;stroke:#C9CDCF;stroke-width:2;stroke-miterlimit:10;}
</style>
<path class="st0" d="M1341.7,1068.9c-19.1-48.5-66.4-100.9-121.7-100.9c-3.3,0-6.1-0.3-9.4-0.1c-1.2,0.1-2.4,0.2-3.6,0.3
	c-2.9,0.4-7.3,1.5-10.1,2l-0.6,153.8l1415.8,0l0.1-153.9c-32.5,11.7-62,32.9-82.7,59.8c-8.7-6.9-19.7-11.1-31.7-11.1
	c-11.4,0-21.9,3.7-30.3,10c-14.8-14.2-35-23-57.3-23c-26.5,0-50.2,12.5-65.3,32c-10-3.9-20.9-6-32.3-6c-31.2,0-58.8,15.9-75.1,40
	c-8-7.2-17.3-13-27.6-17c-2.3-0.9-4.6-1.7-6.9-2.4c-1.2-0.3-2.4-0.7-3.6-1c-2.4-0.6-4.8-1.1-7.3-1.5s-5-0.7-7.5-0.9
	c-0.3-2-0.6-3.9-1.1-5.8c-0.6-2.9-1.5-5.6-2.4-8.4c-6.8-19-21.1-34.4-39.4-42.7c-5.2-2.4-10.8-4.1-16.5-5.2c-0.6-2-1.5-3.9-2.5-5.6
	c-3.5-5.8-9.1-10.1-15.8-11.8c-0.4-0.1-0.8-0.2-1.2-0.3c-1.7-0.4-3.5-0.6-5.4-0.6c-0.3,0-0.6,0-1,0l0,0l0,0c0-0.1,0.1-0.2,0.1-0.3
	c0.6-2.1,0.9-4.4,0.9-6.7c0-2.2-0.3-4.4-0.8-6.5c-0.3-1.2-0.7-2.5-1.2-3.6c-0.5-1.2-1.1-2.3-1.7-3.4c-0.4-0.7-0.9-1.4-1.4-2.1
	c-0.5-0.7-1-1.3-1.6-1.9c-4.8-4.9-11.6-8.2-19.3-8.2c-7.7,0-14.5,3.3-19.2,8.5c-0.6,0.6-1.1,1.3-1.6,1.9c-0.5,0.6-1,1.4-1.4,2.1
	c-0.7,1.1-1.2,2.2-1.7,3.4s-0.9,2.4-1.2,3.6c-0.5,2.1-0.8,4.3-0.8,6.5c0,1.5,0.1,3,0.4,4.5c0.1,0.5,0.2,1,0.3,1.4l0,0l0,0
	c-3.7,0.9-7.2,2.3-10.4,4.2c-1.3,0.8-2.5,1.6-3.7,2.5c-5.3,4-9.5,9.5-12,15.8c-8.9-2.8-18.3-4.3-28.1-4.3
	c-15.3,0-29.8,3.7-42.5,10.3c-1.4,0.7-2.8,1.5-4.2,2.3c-0.7,0.4-1.4,0.8-2,1.2c-1.3,0.8-2.7,1.7-4,2.6c-2,1.4-3.8,2.8-5.7,4.3
	c-0.6,0.5-1.2,1-1.8,1.5c-3,2.6-5.8,5.3-8.5,8.3c-0.8-0.8-1.7-1.6-2.6-2.3s-1.8-1.4-2.8-2.1c-1-0.6-2-1.2-3-1.8
	c-5.2-2.8-11.1-4.3-17.4-4.3c-5.6,0-10.8,1.2-15.6,3.4c-6.1,2.8-11.3,7.2-15,12.7c-1.2-0.6-2.3-1.3-3.5-1.9c-3.6-1.8-7.2-3.5-11-5
	c-5-2-10.1-3.7-15.4-5.1c-10.5-2.8-21.6-4.2-33-4.2c-7.1,0-14.1,0.6-20.8,1.7c-2.7,0.4-5.4,1-8.1,1.6c-5.3,1.2-10.5,2.7-15.5,4.6
	c-6.3,2.3-12.4,5-18.2,8.2c-0.6-5.9-3.4-11.1-7.6-14.9c-1-0.9-2.2-1.8-3.4-2.5c-3.6-2.2-7.8-3.5-12.4-3.5c-1.3,0-2.5,0.1-3.7,0.3
	s-2.4,0.5-3.5,0.8c-1.7,0.6-3.3,1.3-4.8,2.2c-0.5,0.3-1,0.6-1.5,1c-3.3-4.2-7.2-8-11.5-11.2c-3.5-2.5-7.2-4.7-11.2-6.4
	c-1-0.4-2-0.8-3-1.2c-3.1-1.1-6.3-2-9.6-2.6c-3.3-0.6-6.7-0.9-10.2-0.9c-10.6,0-20.6,2.9-29.1,7.9c-1.1,0.6-2.1,1.3-3.1,2
	c-1.5,1-3,2.2-4.4,3.3c-0.9,0.8-1.9,1.6-2.8,2.4c-1.3,1.3-2.6,2.6-3.8,4c-1.3,1.5-2.6,3.1-3.8,4.8c-0.5,0.7-0.9,1.4-1.4,2.1
	c-0.5,0.7-0.9,1.4-1.3,2.1l0,0l0,0c-2.9-1.8-6-3.2-9.3-4.2c-1.7-0.5-3.4-0.9-5.1-1.1c-1.7-0.3-3.5-0.4-5.3-0.4
	c-3.8,0-7.5,0.6-11,1.7c-1.2,0.4-2.3,0.8-3.4,1.2c-2.8,1.2-5.4,2.7-7.7,4.4c-0.9,0.7-1.9,1.5-2.7,2.3c-0.4,0.4-0.9,0.8-1.3,1.2
	c-1.3,1.3-2.4,2.6-3.5,4c-0.7,0.9-1.4,1.9-2,3c-0.6,1.1-1.2,2.1-1.7,3.1c-0.8,1.6-1.4,3.3-2,5c-0.4,1.2-0.7,2.3-0.9,3.5
	c-0.2,1.2-0.4,2.4-0.6,3.7c-0.1,1.2-0.2,2.5-0.2,3.8c0,0.1,0,0.1,0,0.2l0,0l0,0c-0.8-0.1-1.7-0.1-2.5-0.1s-1.7,0-2.5,0
	c-31.3,0-58.1,19.4-69,46.9c-6.6-6.1-15.4-9.9-25.1-9.9c-9.4,0-18,3.5-24.6,9.3c-13.6-16.7-34.3-27.3-57.5-27.3
	c-2.1,0-4.1,0.1-6.2,0.3c-1.4,0.1-2.7,0.3-4,0.4c-1.3,0.2-2.7,0.4-4,0.7c-1.3,0.3-2.6,0.5-3.9,0.9c-1.9,0.5-3.8,1-5.7,1.7
	c-1.2,0.4-2.5,0.9-3.7,1.4C1344.1,1067.9,1342.9,1068.4,1341.7,1068.9c-0.1-0.2-0.2-0.4-0.2-0.6"/>
<g>
	<g>
		<path class="st1" d="M2107.2,969.8c-0.4-0.1-0.8-0.2-1.2-0.3C2106.4,969.7,2106.8,969.7,2107.2,969.8z"/>
		<path class="st1" d="M2099.7,969c0.3,0,0.6,0,1,0C2100.3,969,2100,969,2099.7,969L2099.7,969z"/>
		<path class="st1" d="M2210.2,1055.1c-2.3-0.9-4.6-1.7-6.9-2.4C2205.6,1053.4,2207.9,1054.2,2210.2,1055.1z"/>
		<path class="st1" d="M2099.8,968.7c0.6-2.1,0.9-4.4,0.9-6.7C2100.6,964.3,2100.3,966.6,2099.8,968.7z"/>
		<path class="st1" d="M2199.7,1051.7c-2.4-0.6-4.8-1.1-7.3-1.5C2194.8,1050.6,2197.3,1051.1,2199.7,1051.7z"/>
		<path class="st1" d="M1681.9,986.5c-3.1-1.1-6.3-2-9.6-2.6C1675.6,984.5,1678.8,985.4,1681.9,986.5z"/>
		<path class="st1" d="M1696.1,994.1c-3.5-2.5-7.2-4.7-11.2-6.4C1688.9,989.4,1692.7,991.6,1696.1,994.1z"/>
		<path class="st1" d="M1713.9,1002.1c-1.7,0.6-3.3,1.3-4.8,2.2C1710.6,1003.4,1712.2,1002.7,1713.9,1002.1z"/>
		<path class="st1" d="M1615.1,1007.5c-0.5,0.7-0.9,1.4-1.4,2.1C1614.1,1008.9,1614.6,1008.2,1615.1,1007.5z"/>
		<path class="st1" d="M1612.4,1011.7L1612.4,1011.7c-2.9-1.8-6-3.2-9.3-4.2C1606.4,1008.5,1609.5,1009.9,1612.4,1011.7z"/>
		<path class="st1" d="M1603.1,1007.5c-1.7-0.5-3.4-0.9-5.1-1.1C1599.7,1006.6,1601.4,1007,1603.1,1007.5z"/>
		<path class="st1" d="M1778.2,1009.2c-5.3,1.2-10.5,2.7-15.5,4.6C1767.7,1011.9,1772.9,1010.4,1778.2,1009.2z"/>
		<path class="st1" d="M1855.6,1015.3c-5-2-10.1-3.7-15.4-5.1C1845.4,1011.6,1850.6,1013.3,1855.6,1015.3z"/>
		<path class="st1" d="M1786.3,1007.7c-2.7,0.4-5.4,1-8.1,1.6C1780.9,1008.6,1783.6,1008.1,1786.3,1007.7z"/>
		<path class="st1" d="M1555.6,1043.2L1555.6,1043.2c-0.8-0.1-1.7-0.1-2.5-0.1C1554,1043.1,1554.8,1043.1,1555.6,1043.2z"/>
		<path class="st1" d="M1717.4,1001.3c-1.2,0.2-2.4,0.5-3.5,0.8C1715.1,1001.8,1716.2,1001.5,1717.4,1001.3z"/>
		<path class="st1" d="M1736.9,1007.1c-1-0.9-2.2-1.8-3.4-2.5C1734.7,1005.3,1735.9,1006.1,1736.9,1007.1z"/>
		<path class="st1" d="M1736.9,1007.1c4.2,3.8,7,9,7.6,14.9c5.8-3.2,11.9-5.9,18.2-8.2c-6.3,2.3-12.4,5-18.2,8.2
			C1743.9,1016.1,1741.1,1010.8,1736.9,1007.1z"/>
		<path class="st1" d="M1870.1,1022.1c-1.2-0.6-2.3-1.3-3.5-1.9C1867.7,1020.9,1868.9,1021.5,1870.1,1022.1c3.7-5.5,8.9-9.9,15-12.7
			C1879,1012.2,1873.8,1016.7,1870.1,1022.1z"/>
		<path class="st1" d="M2123,981.7c1,1.8,1.9,3.6,2.5,5.6c5.8,1.1,11.3,2.9,16.5,5.2c-5.2-2.4-10.8-4.1-16.5-5.2
			C2124.9,985.3,2124,983.4,2123,981.7z"/>
		<path class="st1" d="M1926.5,1016.5c-0.8-0.8-1.7-1.6-2.6-2.3C1924.8,1014.9,1925.6,1015.7,1926.5,1016.5c2.6-2.9,5.5-5.7,8.5-8.3
			C1931.9,1010.8,1929.1,1013.6,1926.5,1016.5z"/>
		<path class="st1" d="M1350.9,1065.9c-1.2,0.4-2.5,0.9-3.7,1.4C1348.4,1066.8,1349.7,1066.3,1350.9,1065.9z"/>
		<path class="st1" d="M1368.5,1062.3c-1.4,0.1-2.7,0.3-4,0.4C1365.8,1062.5,1367.1,1062.4,1368.5,1062.3z"/>
		<path class="st1" d="M1360.5,1063.4c-1.3,0.3-2.6,0.5-3.9,0.9C1357.9,1063.9,1359.2,1063.6,1360.5,1063.4z"/>
		<path class="st1" d="M1921,1012.1c-1-0.6-2-1.2-3-1.8C1919.1,1010.9,1920.1,1011.5,1921,1012.1z"/>
		<path class="st1" d="M2052.4,948.5c-0.7,1.1-1.2,2.2-1.7,3.4C2051.2,950.7,2051.7,949.6,2052.4,948.5z"/>
		<path class="st1" d="M2055.4,944.5c-0.6,0.6-1.1,1.3-1.6,1.9C2054.3,945.8,2054.8,945.1,2055.4,944.5z"/>
		<path class="st1" d="M2050.7,951.9c-0.5,1.2-0.9,2.4-1.2,3.6C2049.8,954.3,2050.2,953,2050.7,951.9z"/>
		<path class="st1" d="M2049.3,967.9c-0.1-0.5-0.2-1-0.3-1.4C2049.1,967,2049.2,967.5,2049.3,967.9L2049.3,967.9z"/>
		<path class="st1" d="M2098.6,951.9c-0.5-1.2-1.1-2.3-1.7-3.4C2097.5,949.6,2098.1,950.7,2098.6,951.9z"/>
		<path class="st1" d="M2095.5,946.4c-0.5-0.7-1-1.3-1.6-1.9C2094.4,945.1,2095,945.8,2095.5,946.4z"/>
		<path class="st1" d="M1952.6,996.3c-1.4,0.7-2.8,1.5-4.2,2.3C1949.8,997.8,1951.2,997.1,1952.6,996.3z"/>
		<path class="st1" d="M1946.4,999.9c-1.3,0.8-2.7,1.7-4,2.6C1943.7,1001.6,1945.1,1000.7,1946.4,999.9z"/>
		<path class="st1" d="M1942.4,1002.5c-2,1.4-3.8,2.8-5.7,4.3C1938.6,1005.2,1940.5,1003.8,1942.4,1002.5z"/>
		<path class="st1" d="M2099.8,955.5c-0.3-1.2-0.7-2.5-1.2-3.6C2099.1,953,2099.5,954.3,2099.8,955.5z"/>
		<path class="st1" d="M1559.3,1027c-0.8,1.6-1.4,3.3-2,5C1557.8,1030.3,1558.5,1028.6,1559.3,1027z"/>
		<path class="st1" d="M1566.5,1016.8c-1.3,1.3-2.4,2.6-3.5,4C1564.1,1019.4,1565.2,1018.1,1566.5,1016.8z"/>
		<path class="st1" d="M1581.6,1007.7c-1.2,0.4-2.3,0.8-3.4,1.2C1579.3,1008.4,1580.5,1008,1581.6,1007.7z"/>
		<path class="st1" d="M1556.4,1035.5c-0.2,1.2-0.4,2.4-0.6,3.7C1556,1038,1556.1,1036.7,1556.4,1035.5z"/>
		<path class="st1" d="M1570.5,1013.4c-0.9,0.7-1.9,1.5-2.7,2.3C1568.6,1014.8,1569.5,1014.1,1570.5,1013.4z"/>
		<path class="st1" d="M1563,1020.9c-0.7,0.9-1.4,1.9-2,3C1561.6,1022.8,1562.3,1021.8,1563,1020.9z"/>
		<path class="st1" d="M2106,969.6c-1.7-0.4-3.5-0.6-5.4-0.6C2102.5,969,2104.3,969.2,2106,969.6z"/>
		<path class="st1" d="M2183.8,1043.5c-0.6-2.9-1.5-5.6-2.4-8.4C2182.3,1037.9,2183.1,1040.7,2183.8,1043.5z"/>
		<path class="st1" d="M2107.2,969.8c6.7,1.7,12.3,6.1,15.8,11.8C2119.5,975.9,2113.9,971.6,2107.2,969.8z"/>
		<path class="st1" d="M2049.3,967.9L2049.3,967.9c-3.7,0.9-7.2,2.3-10.4,4.2C2042.1,970.2,2045.6,968.8,2049.3,967.9z"/>
		<path class="st1" d="M1555.6,1043.2c0-0.1,0-0.1,0-0.2C1555.6,1043.1,1555.6,1043.1,1555.6,1043.2L1555.6,1043.2z"/>
		<path class="st1" d="M2099.7,969L2099.7,969c0-0.1,0.1-0.2,0.1-0.3C2099.7,968.8,2099.7,968.9,2099.7,969z"/>
		<path class="st1" d="M2142,992.5c18.3,8.2,32.6,23.6,39.4,42.7C2174.6,1016.1,2160.3,1000.7,2142,992.5z"/>
		<path class="st1" d="M2038.9,972.1c-1.3,0.8-2.5,1.6-3.7,2.5C2036.4,973.7,2037.6,972.9,2038.9,972.1z"/>
		<path class="st1" d="M1625.4,996.2c-0.9,0.8-1.9,1.6-2.8,2.4C1623.6,997.8,1624.5,997,1625.4,996.2z"/>
		<path class="st1" d="M1618.8,1002.7c-1.3,1.5-2.6,3.1-3.8,4.8C1616.2,1005.8,1617.5,1004.2,1618.8,1002.7z"/>
		<path class="st1" d="M1633,990.9c-1.1,0.6-2.1,1.3-3.1,2C1630.9,992.2,1631.9,991.5,1633,990.9z"/>
		<path class="st1" d="M1612.4,1011.7c0.4-0.7,0.9-1.4,1.3-2.1C1613.2,1010.3,1612.8,1011,1612.4,1011.7L1612.4,1011.7z"/>
	</g>
	<path class="st2" d="M2612.7,969.8l-2.1,0.7c-32.5,11.7-60.7,32.6-81.3,59.5c-8.7-6.9-19.7-11.1-31.7-11.1
		c-11.4,0-21.9,3.7-30.3,10c-14.8-14.2-35-23-57.2-23c-26.5,0-50.1,12.5-65.2,32c-10-3.9-20.9-6-32.3-6c-31.2,0-58.7,15.9-74.9,40
		c-8-7.2-17.3-13-27.6-17c-2.3-0.9-4.6-1.7-6.9-2.4c-1.2-0.3-2.4-0.7-3.6-1c-2.4-0.6-4.8-1.1-7.3-1.5s-5-0.7-7.5-0.9
		c-0.3-2-0.6-3.9-1.1-5.8c-0.6-2.9-1.5-5.6-2.4-8.4c-6.8-19-21.1-34.4-39.4-42.7c-5.2-2.4-10.8-4.1-16.5-5.2c-0.6-2-1.5-3.9-2.5-5.6
		c-3.5-5.8-9.1-10.1-15.8-11.8c-0.4-0.1-0.8-0.2-1.2-0.3c-1.7-0.4-3.5-0.6-5.4-0.6c-0.3,0-0.6,0-1,0l0,0l0,0c0-0.1,0.1-0.2,0.1-0.3
		c0.6-2.1,0.9-4.4,0.9-6.7c0-2.2-0.3-4.4-0.8-6.5c-0.3-1.2-0.7-2.5-1.2-3.6c-0.5-1.2-1.1-2.3-1.7-3.4c-0.4-0.7-0.9-1.4-1.4-2.1
		c-0.5-0.7-1-1.3-1.6-1.9c-4.7-4.9-11.5-8.2-19.2-8.2s-14.5,3.3-19.2,8.5c-0.6,0.6-1.1,1.3-1.6,1.9c-0.5,0.6-1,1.4-1.4,2.1
		c-0.7,1.1-1.2,2.2-1.7,3.4s-0.9,2.4-1.2,3.6c-0.5,2.1-0.8,4.3-0.8,6.5c0,1.5,0.1,3,0.4,4.5c0.1,0.5,0.2,1,0.3,1.4l0,0l0,0
		c-3.7,0.9-7.2,2.3-10.4,4.2c-1.3,0.8-2.5,1.6-3.7,2.5c-5.3,4-9.5,9.5-12,15.8c-8.9-2.8-18.3-4.3-28.1-4.3
		c-15.3,0-29.8,3.7-42.5,10.3c-1.4,0.7-2.8,1.5-4.2,2.3c-0.7,0.4-1.4,0.8-2,1.2c-1.3,0.8-2.7,1.7-4,2.6c-2,1.4-3.8,2.8-5.7,4.3
		c-0.6,0.5-1.2,1-1.8,1.5c-3,2.6-5.8,5.3-8.5,8.3c-0.8-0.8-1.7-1.6-2.6-2.3s-1.8-1.4-2.8-2.1c-1-0.6-2-1.2-3-1.8
		c-5.2-2.8-11.1-4.3-17.4-4.3c-5.6,0-10.8,1.2-15.6,3.4c-6.1,2.8-11.3,7.2-15,12.7c-1.2-0.6-2.3-1.3-3.5-1.9c-3.6-1.8-7.2-3.5-11-5
		c-5-2-10.1-3.7-15.4-5.1c-10.5-2.8-21.6-4.2-33-4.2c-7.1,0-14.1,0.6-20.8,1.7c-2.7,0.4-5.4,1-8.1,1.6c-5.3,1.2-10.5,2.7-15.5,4.6
		c-6.3,2.3-12.4,5-18.2,8.2c-0.6-5.9-3.4-11.1-7.6-14.9c-1-0.9-2.2-1.8-3.4-2.5c-3.6-2.2-7.8-3.5-12.4-3.5c-1.3,0-2.5,0.1-3.7,0.3
		s-2.4,0.5-3.5,0.8c-1.7,0.6-3.3,1.3-4.8,2.2c-0.5,0.3-1,0.6-1.5,1c-3.3-4.2-7.2-8-11.5-11.2c-3.5-2.5-7.2-4.7-11.2-6.4
		c-1-0.4-2-0.8-3-1.2c-3.1-1.1-6.3-2-9.6-2.6c-3.3-0.6-6.7-0.9-10.2-0.9c-10.6,0-20.6,2.9-29.1,7.9c-1.1,0.6-2.1,1.3-3.1,2
		c-1.5,1-3,2.2-4.4,3.3c-0.9,0.8-1.9,1.6-2.8,2.4c-1.3,1.3-2.6,2.6-3.8,4c-1.3,1.5-2.6,3.1-3.8,4.8c-0.5,0.7-0.9,1.4-1.4,2.1
		c-0.5,0.7-0.9,1.4-1.3,2.1l0,0l0,0c-2.9-1.8-6-3.2-9.3-4.2c-1.7-0.5-3.4-0.9-5.1-1.1c-1.7-0.3-3.5-0.4-5.3-0.4
		c-3.8,0-7.5,0.6-11,1.7c-1.2,0.4-2.3,0.8-3.4,1.2c-2.8,1.2-5.4,2.7-7.7,4.4c-0.9,0.7-1.9,1.5-2.7,2.3c-0.4,0.4-0.9,0.8-1.3,1.2
		c-1.3,1.3-2.4,2.6-3.5,4c-0.7,0.9-1.4,1.9-2,3c-0.6,1.1-1.2,2.1-1.7,3.1c-0.8,1.6-1.4,3.3-2,5c-0.4,1.2-0.7,2.3-0.9,3.5
		c-0.2,1.2-0.4,2.4-0.6,3.7c-0.1,1.2-0.2,2.5-0.2,3.8c0,0.1,0,0.1,0,0.2l0,0l0,0c-0.8-0.1-1.7-0.1-2.5-0.1s-1.7,0-2.5,0
		c-31.3,0-58,19.4-68.9,46.9c-6.6-6.1-15.4-9.9-25.1-9.9c-9.4,0-18,3.5-24.6,9.3c-13.6-16.7-34.3-27.3-57.4-27.3
		c-2.1,0-4.1,0.1-6.2,0.3c-1.4,0.1-2.7,0.3-4,0.4c-1.3,0.2-2.7,0.4-4,0.7c-1.3,0.3-2.6,0.5-3.9,0.9c-1.9,0.5-3.8,1-5.7,1.7
		c-1.2,0.4-2.5,0.9-3.7,1.4c-1.2,0.5-2.4,1-3.6,1.5c-0.1-0.2-0.2-0.4-0.2-0.6"/>
	<path class="st2" d="M1343.7,1069c-19.1-48.5-66.3-100.9-121.5-100.9c-3.3,0-6.1-0.3-9.4-0.1c-1.2,0.1-2.4,0.2-3.6,0.3
		c-2.9,0.4-9.9,1.9-12.7,2.4"/>
</g>
</svg>
