<?xml version="1.0" encoding="UTF-8"?>
<svg xmlns="http://www.w3.org/2000/svg" xmlns:xlink="http://www.w3.org/1999/xlink" width="50px" height="50px" viewBox="0 0 50 50" version="1.1">
<g id="surface1">
<path style=" stroke:none;fill-rule:nonzero;fill:white;fill-opacity:1;" d="M 41.96875 0.625 C 42.136719 0.78125 42.300781 0.941406 42.460938 1.105469 C 42.519531 1.164062 42.578125 1.222656 42.640625 1.28125 C 42.761719 1.40625 42.886719 1.53125 43.007812 1.652344 C 43.195312 1.84375 43.382812 2.03125 43.570312 2.21875 C 43.691406 2.339844 43.8125 2.460938 43.933594 2.582031 C 44.015625 2.664062 44.015625 2.664062 44.101562 2.75 C 44.644531 3.308594 44.878906 3.828125 44.925781 4.609375 C 44.902344 5.832031 43.917969 6.585938 43.109375 7.386719 C 43.03125 7.464844 42.957031 7.542969 42.875 7.621094 C 42.632812 7.863281 42.386719 8.105469 42.144531 8.347656 C 41.976562 8.515625 41.8125 8.679688 41.644531 8.847656 C 41.242188 9.25 40.835938 9.65625 40.429688 10.058594 C 40.535156 10.058594 40.535156 10.058594 40.640625 10.058594 C 41.300781 10.0625 41.960938 10.066406 42.621094 10.070312 C 42.957031 10.074219 43.296875 10.078125 43.636719 10.078125 C 44.027344 10.078125 44.417969 10.082031 44.808594 10.085938 C 44.929688 10.085938 45.050781 10.085938 45.175781 10.085938 C 45.289062 10.089844 45.402344 10.089844 45.519531 10.09375 C 45.617188 10.09375 45.71875 10.09375 45.820312 10.09375 C 46.199219 10.179688 46.335938 10.347656 46.582031 10.644531 C 46.644531 10.9375 46.644531 10.9375 46.644531 11.269531 C 46.644531 11.398438 46.648438 11.523438 46.648438 11.652344 C 46.648438 11.792969 46.648438 11.933594 46.644531 12.070312 C 46.648438 12.21875 46.648438 12.367188 46.648438 12.511719 C 46.652344 12.914062 46.652344 13.3125 46.652344 13.710938 C 46.652344 14.128906 46.652344 14.546875 46.65625 14.964844 C 46.660156 15.753906 46.660156 16.542969 46.660156 17.335938 C 46.660156 18.234375 46.664062 19.132812 46.667969 20.035156 C 46.675781 21.882812 46.679688 23.734375 46.679688 25.585938 C 46.769531 25.492188 46.769531 25.492188 46.863281 25.398438 C 47.089844 25.171875 47.316406 24.941406 47.546875 24.714844 C 47.644531 24.617188 47.742188 24.519531 47.839844 24.417969 C 47.980469 24.277344 48.121094 24.136719 48.261719 23.992188 C 48.347656 23.90625 48.433594 23.824219 48.519531 23.734375 C 48.792969 23.476562 48.875 23.441406 49.253906 23.40625 C 49.609375 23.4375 49.609375 23.4375 49.824219 23.570312 C 50.101562 23.976562 50.054688 24.371094 50.050781 24.851562 C 50.050781 24.957031 50.050781 25.0625 50.050781 25.171875 C 50.050781 25.527344 50.050781 25.878906 50.050781 26.234375 C 50.050781 26.488281 50.050781 26.742188 50.050781 26.996094 C 50.050781 27.613281 50.050781 28.230469 50.050781 28.847656 C 50.046875 29.566406 50.046875 30.289062 50.046875 31.007812 C 50.050781 32.289062 50.046875 33.574219 50.046875 34.855469 C 50.042969 36.101562 50.042969 37.347656 50.042969 38.59375 C 50.042969 39.949219 50.042969 41.304688 50.042969 42.660156 C 50.042969 42.804688 50.042969 42.949219 50.042969 43.09375 C 50.042969 43.167969 50.042969 43.238281 50.042969 43.3125 C 50.042969 43.8125 50.042969 44.3125 50.042969 44.816406 C 50.042969 45.492188 50.042969 46.164062 50.039062 46.839844 C 50.039062 47.089844 50.039062 47.335938 50.039062 47.585938 C 50.039062 47.921875 50.039062 48.261719 50.039062 48.597656 C 50.039062 48.746094 50.039062 48.746094 50.039062 48.898438 C 50.039062 48.988281 50.039062 49.078125 50.039062 49.171875 C 50.035156 49.289062 50.035156 49.289062 50.035156 49.40625 C 49.992188 49.664062 49.910156 49.746094 49.707031 49.902344 C 49.433594 49.992188 49.269531 50.011719 48.984375 50.011719 C 48.894531 50.011719 48.808594 50.011719 48.714844 50.015625 C 48.621094 50.015625 48.523438 50.015625 48.421875 50.015625 C 48.265625 50.015625 48.265625 50.015625 48.109375 50.015625 C 47.761719 50.015625 47.414062 50.015625 47.066406 50.015625 C 46.816406 50.015625 46.570312 50.015625 46.320312 50.015625 C 45.644531 50.019531 44.96875 50.019531 44.292969 50.019531 C 43.871094 50.019531 43.449219 50.019531 43.027344 50.019531 C 41.859375 50.023438 40.691406 50.023438 39.523438 50.023438 C 39.410156 50.023438 39.410156 50.023438 39.296875 50.023438 C 39.21875 50.023438 39.144531 50.023438 39.066406 50.023438 C 38.917969 50.023438 38.765625 50.023438 38.613281 50.023438 C 38.539062 50.023438 38.460938 50.023438 38.382812 50.023438 C 37.164062 50.023438 35.941406 50.027344 34.71875 50.027344 C 33.464844 50.03125 32.214844 50.03125 30.960938 50.03125 C 30.253906 50.03125 29.550781 50.03125 28.847656 50.035156 C 28.1875 50.035156 27.523438 50.035156 26.863281 50.035156 C 26.617188 50.035156 26.375 50.035156 26.132812 50.035156 C 25.800781 50.039062 25.46875 50.035156 25.136719 50.035156 C 25.042969 50.035156 24.945312 50.039062 24.84375 50.039062 C 24.363281 50.035156 24.019531 50.03125 23.632812 49.707031 C 23.472656 49.386719 23.488281 49.183594 23.535156 48.828125 C 23.660156 48.648438 23.660156 48.648438 23.828125 48.464844 C 23.890625 48.398438 23.953125 48.328125 24.019531 48.257812 C 24.351562 47.90625 24.691406 47.5625 25.03125 47.222656 C 25.109375 47.148438 25.183594 47.074219 25.261719 46.996094 C 25.496094 46.761719 25.734375 46.523438 25.96875 46.289062 C 26.132812 46.128906 26.292969 45.96875 26.457031 45.804688 C 26.847656 45.414062 27.242188 45.019531 27.636719 44.628906 C 27.464844 44.628906 27.464844 44.628906 27.292969 44.628906 C 24.59375 44.621094 21.894531 44.613281 19.195312 44.601562 C 18.863281 44.601562 18.53125 44.597656 18.199219 44.597656 C 18.132812 44.597656 18.066406 44.597656 18 44.597656 C 16.929688 44.59375 15.859375 44.589844 14.789062 44.585938 C 13.6875 44.585938 12.589844 44.582031 11.488281 44.574219 C 10.871094 44.574219 10.257812 44.570312 9.640625 44.570312 C 9.058594 44.570312 8.476562 44.566406 7.894531 44.5625 C 7.683594 44.5625 7.46875 44.5625 7.257812 44.5625 C 5.128906 44.558594 3.234375 44.460938 1.597656 42.921875 C 0.359375 41.636719 -0.046875 40.222656 -0.0390625 38.472656 C -0.0390625 38.339844 -0.0390625 38.203125 -0.0390625 38.066406 C -0.0390625 37.695312 -0.0390625 37.324219 -0.0390625 36.957031 C -0.0390625 36.554688 -0.0390625 36.15625 -0.0429688 35.753906 C -0.0429688 34.96875 -0.0429688 34.1875 -0.0429688 33.402344 C -0.0429688 32.765625 -0.0429688 32.128906 -0.0429688 31.492188 C -0.0429688 31.402344 -0.0429688 31.308594 -0.0429688 31.214844 C -0.0429688 31.03125 -0.0429688 30.847656 -0.0429688 30.664062 C -0.046875 28.933594 -0.0429688 27.207031 -0.0429688 25.476562 C -0.0429688 23.894531 -0.0429688 22.316406 -0.046875 20.734375 C -0.046875 19.113281 -0.0507812 17.488281 -0.046875 15.863281 C -0.046875 14.953125 -0.046875 14.039062 -0.0507812 13.128906 C -0.0507812 12.355469 -0.0507812 11.578125 -0.0507812 10.804688 C -0.0507812 10.40625 -0.0507812 10.011719 -0.0507812 9.617188 C -0.0507812 9.253906 -0.0507812 8.890625 -0.0507812 8.527344 C -0.0507812 8.335938 -0.0507812 8.144531 -0.0507812 7.953125 C -0.0390625 6.355469 0.535156 4.984375 1.632812 3.828125 C 2.695312 2.792969 4.074219 2.171875 5.566406 2.113281 C 5.925781 2.125 6.160156 2.210938 6.445312 2.441406 C 6.589844 2.734375 6.554688 3.03125 6.554688 3.347656 C 6.554688 3.421875 6.554688 3.496094 6.554688 3.570312 C 6.554688 3.816406 6.554688 4.058594 6.550781 4.300781 C 6.550781 4.46875 6.550781 4.636719 6.550781 4.804688 C 6.550781 5.25 6.550781 5.691406 6.550781 6.136719 C 6.546875 6.589844 6.546875 7.039062 6.546875 7.492188 C 6.546875 8.378906 6.546875 9.269531 6.542969 10.15625 C 10.0625 10.429688 13.585938 10.613281 17.117188 10.707031 C 17.25 10.710938 17.382812 10.714844 17.515625 10.71875 C 26.207031 11.121094 26.207031 11.121094 33.65625 7.269531 C 34.324219 6.632812 34.925781 5.949219 35.511719 5.238281 C 35.558594 5.179688 35.605469 5.121094 35.652344 5.0625 C 36.703125 3.785156 37.683594 2.46875 38.519531 1.039062 C 38.839844 0.511719 39.050781 0.273438 39.648438 0.0976562 C 39.726562 0.0742188 39.800781 0.0507812 39.878906 0.0234375 C 40.664062 -0.0507812 41.347656 0.132812 41.96875 0.625 Z M 40.050781 1.65625 C 39.675781 1.902344 39.382812 2.1875 39.074219 2.507812 C 39.015625 2.566406 38.957031 2.628906 38.898438 2.6875 C 38.757812 2.832031 38.617188 2.980469 38.476562 3.125 C 38.605469 3.410156 38.742188 3.609375 38.964844 3.828125 C 39.023438 3.886719 39.082031 3.945312 39.140625 4.007812 C 39.203125 4.070312 39.265625 4.128906 39.332031 4.195312 C 39.429688 4.292969 39.429688 4.292969 39.527344 4.390625 C 39.734375 4.59375 39.941406 4.800781 40.148438 5.003906 C 40.289062 5.144531 40.429688 5.285156 40.570312 5.421875 C 40.914062 5.765625 41.257812 6.105469 41.601562 6.445312 C 42.027344 6.238281 42.3125 5.964844 42.644531 5.632812 C 42.730469 5.550781 42.730469 5.550781 42.820312 5.464844 C 43.058594 5.226562 43.238281 5.039062 43.367188 4.726562 C 43.34375 4.019531 42.582031 3.484375 42.113281 3.019531 C 41.957031 2.863281 41.800781 2.707031 41.648438 2.550781 C 41.546875 2.449219 41.449219 2.351562 41.347656 2.25 C 41.257812 2.160156 41.167969 2.070312 41.078125 1.976562 C 40.730469 1.679688 40.5 1.507812 40.050781 1.65625 Z M 36.929688 4.652344 C 36.824219 4.761719 36.714844 4.871094 36.609375 4.980469 C 36.527344 5.0625 36.527344 5.0625 36.441406 5.148438 C 36.304688 5.289062 36.171875 5.425781 36.035156 5.566406 C 36.421875 6.03125 36.824219 6.46875 37.253906 6.894531 C 37.3125 6.949219 37.371094 7.007812 37.429688 7.066406 C 37.613281 7.25 37.792969 7.429688 37.976562 7.609375 C 38.101562 7.734375 38.226562 7.859375 38.347656 7.984375 C 38.652344 8.285156 38.953125 8.585938 39.257812 8.886719 C 39.367188 8.792969 39.476562 8.699219 39.585938 8.605469 C 39.679688 8.527344 39.679688 8.527344 39.773438 8.445312 C 39.949219 8.292969 40.113281 8.136719 40.277344 7.972656 C 40.359375 7.886719 40.441406 7.800781 40.527344 7.714844 C 40.398438 7.433594 40.261719 7.230469 40.042969 7.011719 C 39.984375 6.953125 39.929688 6.894531 39.867188 6.832031 C 39.804688 6.769531 39.742188 6.710938 39.679688 6.644531 C 39.582031 6.546875 39.582031 6.546875 39.484375 6.449219 C 39.347656 6.3125 39.210938 6.179688 39.078125 6.042969 C 38.867188 5.835938 38.660156 5.625 38.453125 5.417969 C 38.320312 5.285156 38.1875 5.152344 38.054688 5.023438 C 37.992188 4.957031 37.929688 4.894531 37.867188 4.832031 C 37.425781 4.332031 37.425781 4.332031 36.929688 4.652344 Z M 2.738281 4.964844 C 1.820312 5.964844 1.53125 6.9375 1.539062 8.269531 C 1.539062 8.386719 1.539062 8.5 1.539062 8.617188 C 1.539062 8.9375 1.539062 9.253906 1.539062 9.570312 C 1.539062 9.910156 1.539062 10.253906 1.539062 10.597656 C 1.539062 11.1875 1.539062 11.78125 1.542969 12.375 C 1.542969 13.230469 1.542969 14.085938 1.542969 14.945312 C 1.542969 16.332031 1.546875 17.722656 1.546875 19.113281 C 1.550781 20.464844 1.550781 21.8125 1.550781 23.164062 C 1.550781 23.246094 1.550781 23.328125 1.550781 23.414062 C 1.550781 23.832031 1.550781 24.25 1.550781 24.667969 C 1.554688 28.132812 1.558594 31.59375 1.5625 35.058594 C 1.617188 35.019531 1.667969 34.976562 1.722656 34.9375 C 1.792969 34.882812 1.863281 34.832031 1.9375 34.777344 C 2.042969 34.699219 2.042969 34.699219 2.148438 34.617188 C 2.792969 34.140625 3.476562 33.851562 4.234375 33.625 C 4.308594 33.601562 4.378906 33.582031 4.453125 33.558594 C 4.628906 33.503906 4.804688 33.453125 4.980469 33.398438 C 4.980469 33.308594 4.980469 33.308594 4.980469 33.214844 C 4.984375 32.589844 4.992188 31.960938 5 31.332031 C 5.003906 31.097656 5.003906 30.867188 5.007812 30.632812 C 5.007812 30.292969 5.011719 29.957031 5.019531 29.621094 C 5.019531 29.464844 5.019531 29.464844 5.019531 29.304688 C 5.019531 29.207031 5.023438 29.109375 5.023438 29.007812 C 5.027344 28.921875 5.027344 28.835938 5.027344 28.746094 C 5.09375 28.4375 5.222656 28.320312 5.46875 28.125 C 6.046875 28.054688 6.046875 28.054688 6.316406 28.238281 C 6.5 28.496094 6.484375 28.6875 6.484375 29.003906 C 6.484375 29.121094 6.484375 29.242188 6.484375 29.367188 C 6.484375 29.5 6.484375 29.628906 6.484375 29.761719 C 6.484375 29.894531 6.484375 30.03125 6.484375 30.164062 C 6.484375 30.445312 6.484375 30.730469 6.484375 31.011719 C 6.480469 31.371094 6.484375 31.734375 6.484375 32.09375 C 6.484375 32.375 6.484375 32.652344 6.484375 32.929688 C 6.484375 33.0625 6.484375 33.195312 6.484375 33.328125 C 6.484375 33.515625 6.484375 33.703125 6.484375 33.886719 C 6.484375 33.996094 6.484375 34.101562 6.484375 34.210938 C 6.445312 34.472656 6.445312 34.472656 6.320312 34.652344 C 6.039062 34.84375 5.707031 34.851562 5.378906 34.894531 C 4.21875 35.074219 3.226562 35.527344 2.441406 36.425781 C 1.699219 37.496094 1.453125 38.445312 1.5625 39.746094 C 1.828125 40.863281 2.566406 41.765625 3.5 42.40625 C 4.429688 42.976562 5.5 42.980469 6.558594 43 C 6.652344 43.003906 6.75 43.003906 6.847656 43.007812 C 7.167969 43.015625 7.488281 43.019531 7.808594 43.027344 C 7.917969 43.027344 8.03125 43.03125 8.148438 43.035156 C 10.296875 43.078125 12.445312 43.105469 14.597656 43.125 C 14.949219 43.128906 15.300781 43.132812 15.652344 43.136719 C 15.722656 43.136719 15.792969 43.136719 15.863281 43.140625 C 16.992188 43.152344 18.121094 43.171875 19.25 43.199219 C 20.414062 43.226562 21.578125 43.242188 22.742188 43.25 C 23.394531 43.25 24.046875 43.261719 24.699219 43.28125 C 27.863281 43.464844 27.863281 43.464844 30.589844 42.109375 C 31.15625 41.5625 31.652344 40.964844 32.109375 40.324219 C 32.324219 40.039062 32.324219 40.039062 32.617188 39.84375 C 32.933594 39.808594 33.140625 39.816406 33.433594 39.941406 C 33.636719 40.1875 33.648438 40.390625 33.640625 40.703125 C 33.546875 41.132812 33.21875 41.390625 32.914062 41.6875 C 32.804688 41.796875 32.804688 41.796875 32.691406 41.90625 C 32.453125 42.144531 32.210938 42.378906 31.96875 42.613281 C 31.804688 42.777344 31.636719 42.945312 31.472656 43.109375 C 31.035156 43.542969 30.59375 43.976562 30.152344 44.40625 C 29.617188 44.933594 29.082031 45.460938 28.550781 45.988281 C 28.136719 46.398438 27.71875 46.808594 27.304688 47.21875 C 27.226562 47.292969 27.152344 47.367188 27.074219 47.445312 C 26.929688 47.585938 26.785156 47.726562 26.644531 47.867188 C 26.582031 47.925781 26.519531 47.988281 26.453125 48.050781 C 26.398438 48.105469 26.34375 48.160156 26.289062 48.214844 C 26.160156 48.324219 26.160156 48.324219 26.171875 48.4375 C 33.519531 48.4375 40.867188 48.4375 48.4375 48.4375 C 48.4375 47.308594 48.4375 46.179688 48.4375 45.019531 C 47.953125 44.988281 47.472656 44.953125 46.972656 44.921875 C 46.84375 44.890625 46.714844 44.855469 46.582031 44.824219 C 46.554688 44.6875 46.53125 44.546875 46.507812 44.410156 C 46.496094 44.332031 46.480469 44.253906 46.46875 44.175781 C 46.484375 43.945312 46.484375 43.945312 46.628906 43.726562 C 46.964844 43.492188 47.28125 43.488281 47.679688 43.480469 C 47.929688 43.472656 48.179688 43.464844 48.4375 43.457031 C 48.4375 42.746094 48.4375 42.039062 48.4375 41.308594 C 47.9375 41.285156 47.9375 41.285156 47.433594 41.261719 C 47.074219 41.242188 46.890625 41.21875 46.582031 41.015625 C 46.496094 40.632812 46.449219 40.316406 46.582031 39.941406 C 46.957031 39.824219 47.339844 39.8125 47.730469 39.789062 C 47.964844 39.773438 48.195312 39.761719 48.4375 39.746094 C 48.4375 39.035156 48.4375 38.328125 48.4375 37.597656 C 47.90625 37.582031 47.90625 37.582031 47.371094 37.570312 C 46.828125 37.542969 46.828125 37.542969 46.578125 37.320312 C 46.429688 36.988281 46.480469 36.769531 46.582031 36.425781 C 46.964844 36.121094 47.300781 36.089844 47.785156 36.066406 C 48 36.054688 48.214844 36.046875 48.4375 36.035156 C 48.4375 35.359375 48.4375 34.679688 48.4375 33.984375 C 47.972656 33.957031 47.972656 33.957031 47.507812 33.929688 C 47.191406 33.910156 46.886719 33.882812 46.582031 33.789062 C 46.554688 33.652344 46.53125 33.511719 46.507812 33.375 C 46.496094 33.296875 46.480469 33.21875 46.46875 33.140625 C 46.484375 32.910156 46.484375 32.910156 46.875 32.519531 C 47.390625 32.488281 47.90625 32.453125 48.4375 32.421875 C 48.4375 30.359375 48.4375 28.296875 48.4375 26.171875 C 48.007812 26.539062 47.609375 26.890625 47.210938 27.292969 C 47.164062 27.339844 47.113281 27.390625 47.0625 27.445312 C 46.894531 27.609375 46.730469 27.777344 46.566406 27.941406 C 46.449219 28.0625 46.328125 28.183594 46.207031 28.304688 C 45.953125 28.5625 45.699219 28.820312 45.441406 29.078125 C 45.039062 29.484375 44.632812 29.894531 44.226562 30.300781 C 44.160156 30.367188 44.089844 30.4375 44.019531 30.507812 C 43.878906 30.648438 43.742188 30.789062 43.601562 30.929688 C 42.65625 31.878906 41.714844 32.824219 40.777344 33.773438 C 40.140625 34.414062 39.503906 35.054688 38.867188 35.695312 C 38.53125 36.035156 38.195312 36.371094 37.859375 36.710938 C 37.542969 37.03125 37.226562 37.347656 36.910156 37.664062 C 36.792969 37.78125 36.679688 37.898438 36.5625 38.015625 C 36.40625 38.175781 36.246094 38.335938 36.089844 38.492188 C 36 38.582031 35.910156 38.671875 35.820312 38.765625 C 35.492188 39.003906 35.265625 39.046875 34.863281 39.0625 C 34.578125 38.929688 34.5 38.832031 34.382812 38.542969 C 34.371094 38.167969 34.460938 38.015625 34.667969 37.695312 C 34.976562 37.414062 35.316406 37.171875 35.652344 36.925781 C 35.859375 36.769531 36.070312 36.609375 36.277344 36.449219 C 36.335938 36.40625 36.390625 36.367188 36.445312 36.320312 C 37.625 35.417969 38.75 34.445312 39.863281 33.460938 C 39.921875 33.40625 39.984375 33.351562 40.046875 33.292969 C 43.207031 30.484375 45.433594 27.800781 45.691406 23.449219 C 45.769531 21.925781 45.742188 20.410156 45.667969 18.882812 C 45.664062 18.796875 45.65625 18.707031 45.652344 18.613281 C 45.539062 16.304688 45.328125 14.011719 45.019531 11.71875 C 42.988281 11.175781 40.371094 10.789062 38.433594 11.847656 C 37.082031 12.695312 35.953125 13.859375 34.84375 14.992188 C 34.761719 15.074219 34.683594 15.15625 34.597656 15.242188 C 33.589844 16.273438 32.609375 17.332031 31.640625 18.398438 C 30.320312 19.847656 28.976562 21.265625 27.625 22.683594 C 27.152344 23.175781 26.691406 23.679688 26.230469 24.183594 C 24.628906 25.949219 23.308594 27.28125 20.9375 27.84375 C 20.359375 27.992188 19.800781 28.207031 19.238281 28.417969 C 19.238281 28.449219 19.238281 28.480469 19.238281 28.515625 C 19.3125 28.515625 19.386719 28.515625 19.464844 28.515625 C 21.28125 28.523438 23.097656 28.53125 24.914062 28.539062 C 25.792969 28.542969 26.671875 28.546875 27.550781 28.550781 C 28.316406 28.550781 29.082031 28.554688 29.847656 28.558594 C 30.253906 28.5625 30.65625 28.5625 31.0625 28.5625 C 31.445312 28.566406 31.828125 28.566406 32.207031 28.570312 C 32.347656 28.570312 32.488281 28.570312 32.628906 28.570312 C 32.820312 28.570312 33.011719 28.574219 33.203125 28.574219 C 33.308594 28.574219 33.414062 28.574219 33.527344 28.574219 C 33.789062 28.613281 33.789062 28.613281 33.96875 28.742188 C 34.15625 29.015625 34.109375 29.269531 34.082031 29.589844 C 33.886719 29.882812 33.886719 29.882812 33.703125 29.949219 C 33.359375 30 33.019531 29.996094 32.675781 29.996094 C 32.589844 29.996094 32.507812 29.996094 32.421875 29.996094 C 32.140625 29.996094 31.859375 29.996094 31.578125 29.996094 C 31.375 29.996094 31.175781 29.996094 30.972656 29.996094 C 30.425781 30 29.878906 30 29.332031 30 C 28.988281 30 28.648438 30 28.304688 30 C 27.238281 30.003906 26.167969 30.003906 25.101562 30.003906 C 23.867188 30.003906 22.632812 30.007812 21.398438 30.007812 C 20.441406 30.011719 19.488281 30.011719 18.535156 30.011719 C 17.964844 30.011719 17.394531 30.011719 16.824219 30.015625 C 16.289062 30.015625 15.753906 30.015625 15.21875 30.015625 C 15.023438 30.015625 14.824219 30.015625 14.628906 30.015625 C 14.359375 30.019531 14.089844 30.015625 13.824219 30.015625 C 13.707031 30.015625 13.707031 30.015625 13.585938 30.019531 C 13.144531 30.015625 12.847656 29.972656 12.5 29.6875 C 12.382812 29.347656 12.371094 29.175781 12.507812 28.84375 C 12.695312 28.613281 12.695312 28.613281 12.988281 28.550781 C 13.164062 28.546875 13.164062 28.546875 13.34375 28.542969 C 13.46875 28.542969 13.597656 28.539062 13.726562 28.535156 C 13.863281 28.535156 13.996094 28.535156 14.128906 28.535156 C 14.265625 28.53125 14.398438 28.527344 14.535156 28.527344 C 14.867188 28.519531 15.195312 28.515625 15.527344 28.515625 C 15.550781 28.453125 15.570312 28.390625 15.59375 28.328125 C 15.824219 27.671875 16.050781 27.019531 16.28125 26.363281 C 16.367188 26.121094 16.453125 25.878906 16.539062 25.636719 C 16.578125 25.519531 16.621094 25.402344 16.664062 25.28125 C 16.703125 25.164062 16.746094 25.046875 16.785156 24.925781 C 16.871094 24.691406 16.953125 24.460938 17.035156 24.226562 C 17.214844 23.726562 17.390625 23.230469 17.53125 22.722656 C 17.941406 21.328125 18.816406 20.496094 19.855469 19.519531 C 20.019531 19.359375 20.183594 19.199219 20.347656 19.039062 C 20.648438 18.75 20.945312 18.460938 21.246094 18.175781 C 21.308594 18.117188 21.367188 18.0625 21.429688 18.003906 C 21.671875 17.792969 21.78125 17.773438 22.113281 17.75 C 22.460938 17.773438 22.460938 17.773438 22.648438 17.878906 C 22.824219 18.199219 22.8125 18.390625 22.753906 18.75 C 22.253906 19.476562 21.53125 20.082031 20.90625 20.703125 C 20.800781 20.808594 20.695312 20.914062 20.589844 21.015625 C 20.335938 21.269531 20.078125 21.523438 19.824219 21.777344 C 20.210938 22.242188 20.613281 22.679688 21.042969 23.105469 C 21.101562 23.160156 21.160156 23.21875 21.21875 23.277344 C 21.402344 23.460938 21.582031 23.640625 21.765625 23.820312 C 21.890625 23.945312 22.015625 24.070312 22.136719 24.195312 C 22.441406 24.496094 22.742188 24.796875 23.046875 25.097656 C 23.503906 24.714844 23.941406 24.316406 24.363281 23.890625 C 24.421875 23.832031 24.480469 23.773438 24.542969 23.710938 C 24.738281 23.515625 24.9375 23.316406 25.136719 23.117188 C 25.277344 22.976562 25.417969 22.832031 25.5625 22.691406 C 25.949219 22.304688 26.332031 21.917969 26.71875 21.535156 C 27.121094 21.128906 27.523438 20.726562 27.929688 20.324219 C 28.691406 19.558594 29.453125 18.796875 30.21875 18.03125 C 31.085938 17.164062 31.953125 16.292969 32.824219 15.421875 C 34.609375 13.636719 36.398438 11.847656 38.183594 10.058594 C 38.09375 9.953125 38 9.84375 37.910156 9.738281 C 37.859375 9.675781 37.808594 9.617188 37.757812 9.554688 C 37.503906 9.269531 37.234375 9 36.964844 8.730469 C 36.90625 8.675781 36.847656 8.617188 36.789062 8.558594 C 36.605469 8.375 36.425781 8.195312 36.242188 8.015625 C 36.117188 7.890625 35.992188 7.765625 35.871094 7.640625 C 35.566406 7.339844 35.265625 7.039062 34.960938 6.738281 C 34.386719 7.214844 33.859375 7.730469 33.332031 8.257812 C 33.238281 8.351562 33.148438 8.445312 33.054688 8.539062 C 32.855469 8.738281 32.65625 8.9375 32.457031 9.136719 C 32.140625 9.453125 31.828125 9.769531 31.511719 10.085938 C 30.84375 10.753906 30.175781 11.421875 29.511719 12.089844 C 28.789062 12.816406 28.066406 13.539062 27.34375 14.261719 C 27.03125 14.578125 26.71875 14.890625 26.40625 15.203125 C 26.210938 15.398438 26.015625 15.59375 25.820312 15.789062 C 25.6875 15.921875 25.554688 16.054688 25.421875 16.191406 C 25.34375 16.269531 25.265625 16.347656 25.183594 16.429688 C 25.113281 16.5 25.046875 16.566406 24.976562 16.636719 C 24.722656 16.871094 24.625 16.894531 24.273438 16.917969 C 23.925781 16.894531 23.925781 16.894531 23.738281 16.789062 C 23.5625 16.46875 23.574219 16.277344 23.632812 15.917969 C 23.761719 15.738281 23.761719 15.738281 23.929688 15.554688 C 23.992188 15.484375 24.054688 15.417969 24.117188 15.347656 C 24.441406 15.003906 24.773438 14.667969 25.109375 14.335938 C 25.21875 14.230469 25.21875 14.230469 25.328125 14.117188 C 25.558594 13.890625 25.789062 13.660156 26.019531 13.433594 C 26.324219 13.132812 26.628906 12.828125 26.933594 12.523438 C 27.039062 12.421875 27.039062 12.421875 27.148438 12.3125 C 27.210938 12.25 27.277344 12.1875 27.34375 12.121094 C 27.398438 12.0625 27.457031 12.007812 27.515625 11.949219 C 27.648438 11.835938 27.648438 11.835938 27.636719 11.71875 C 20.675781 11.71875 13.714844 11.71875 6.542969 11.71875 C 6.523438 16.460938 6.523438 16.460938 6.503906 21.207031 C 6.5 22.121094 6.5 22.121094 6.496094 22.550781 C 6.496094 22.851562 6.496094 23.148438 6.496094 23.449219 C 6.492188 23.832031 6.492188 24.214844 6.488281 24.597656 C 6.488281 24.738281 6.488281 24.878906 6.488281 25.019531 C 6.488281 25.210938 6.484375 25.398438 6.484375 25.589844 C 6.484375 25.746094 6.484375 25.746094 6.484375 25.910156 C 6.445312 26.171875 6.445312 26.171875 6.3125 26.351562 C 6.011719 26.566406 5.746094 26.574219 5.390625 26.519531 C 5.320312 26.5 5.25 26.484375 5.175781 26.464844 C 5.101562 26.195312 5.066406 25.957031 5.066406 25.679688 C 5.0625 25.601562 5.0625 25.523438 5.0625 25.441406 C 5.0625 25.355469 5.0625 25.269531 5.0625 25.183594 C 5.0625 25.046875 5.0625 25.046875 5.0625 24.90625 C 5.058594 24.597656 5.058594 24.292969 5.058594 23.984375 C 5.058594 23.765625 5.054688 23.546875 5.054688 23.328125 C 5.050781 22.730469 5.050781 22.136719 5.046875 21.539062 C 5.046875 20.914062 5.042969 20.292969 5.042969 19.667969 C 5.035156 18.625 5.03125 17.578125 5.027344 16.53125 C 5.023438 15.453125 5.019531 14.378906 5.015625 13.300781 C 5.015625 13.234375 5.015625 13.167969 5.015625 13.097656 C 5.015625 12.765625 5.011719 12.433594 5.011719 12.097656 C 5 9.335938 4.992188 6.570312 4.980469 3.808594 C 4.1875 3.808594 3.292969 4.4375 2.738281 4.964844 Z M 18.945312 23.339844 C 18.84375 23.605469 18.746094 23.871094 18.644531 24.140625 C 18.617188 24.214844 18.589844 24.289062 18.558594 24.367188 C 18.34375 24.925781 18.34375 24.925781 18.457031 25.488281 C 18.636719 25.710938 18.839844 25.90625 19.050781 26.105469 C 19.242188 26.289062 19.433594 26.472656 19.628906 26.660156 C 20.273438 26.433594 20.917969 26.207031 21.582031 25.976562 C 21.390625 25.597656 21.179688 25.351562 20.882812 25.054688 C 20.835938 25.007812 20.785156 24.957031 20.734375 24.90625 C 20.628906 24.804688 20.527344 24.699219 20.421875 24.597656 C 20.261719 24.4375 20.105469 24.277344 19.945312 24.121094 C 19.847656 24.019531 19.746094 23.917969 19.644531 23.816406 C 19.597656 23.769531 19.550781 23.722656 19.5 23.671875 C 19.265625 23.414062 19.265625 23.414062 18.945312 23.339844 Z M 18.945312 23.339844 "/>
<path style=" stroke:none;fill-rule:nonzero;fill:white;fill-opacity:1;" d="M 44.433594 35.253906 C 44.707031 35.5 44.726562 35.648438 44.765625 36.019531 C 44.765625 36.171875 44.765625 36.328125 44.765625 36.480469 C 44.765625 36.566406 44.765625 36.648438 44.769531 36.734375 C 44.769531 37.015625 44.769531 37.292969 44.769531 37.570312 C 44.769531 37.761719 44.769531 37.957031 44.769531 38.148438 C 44.769531 38.554688 44.769531 38.960938 44.769531 39.367188 C 44.769531 39.886719 44.769531 40.40625 44.773438 40.925781 C 44.777344 41.324219 44.777344 41.722656 44.773438 42.121094 C 44.773438 42.3125 44.777344 42.503906 44.777344 42.695312 C 44.777344 42.964844 44.777344 43.230469 44.777344 43.5 C 44.777344 43.578125 44.777344 43.660156 44.777344 43.738281 C 44.773438 44.066406 44.75 44.296875 44.582031 44.582031 C 44.226562 44.792969 43.890625 44.78125 43.492188 44.777344 C 43.40625 44.78125 43.320312 44.78125 43.234375 44.78125 C 42.953125 44.785156 42.671875 44.78125 42.390625 44.78125 C 42.191406 44.78125 41.996094 44.78125 41.800781 44.785156 C 41.390625 44.785156 40.984375 44.785156 40.574219 44.78125 C 40.046875 44.78125 39.523438 44.785156 38.996094 44.785156 C 38.59375 44.789062 38.1875 44.789062 37.785156 44.789062 C 37.589844 44.789062 37.398438 44.789062 37.203125 44.789062 C 36.933594 44.792969 36.664062 44.789062 36.390625 44.789062 C 36.273438 44.789062 36.273438 44.789062 36.148438 44.792969 C 35.765625 44.785156 35.585938 44.761719 35.300781 44.5 C 35.15625 44.238281 35.15625 44.238281 35.136719 43.914062 C 35.386719 43.148438 36.128906 42.566406 36.691406 42.007812 C 36.761719 41.933594 36.832031 41.863281 36.90625 41.789062 C 37.144531 41.550781 37.378906 41.316406 37.613281 41.082031 C 37.777344 40.914062 37.941406 40.75 38.109375 40.585938 C 38.449219 40.242188 38.792969 39.898438 39.136719 39.554688 C 39.578125 39.113281 40.019531 38.671875 40.460938 38.230469 C 40.796875 37.890625 41.136719 37.550781 41.476562 37.210938 C 41.640625 37.046875 41.800781 36.886719 41.964844 36.722656 C 42.191406 36.496094 42.417969 36.269531 42.644531 36.042969 C 42.710938 35.976562 42.777344 35.90625 42.847656 35.839844 C 42.910156 35.777344 42.972656 35.714844 43.035156 35.652344 C 43.117188 35.570312 43.117188 35.570312 43.199219 35.488281 C 43.613281 35.136719 43.90625 35.121094 44.433594 35.253906 Z M 42.726562 38.21875 C 42.652344 38.289062 42.652344 38.289062 42.582031 38.363281 C 42.53125 38.414062 42.480469 38.464844 42.425781 38.515625 C 42.257812 38.683594 42.09375 38.851562 41.925781 39.019531 C 41.808594 39.136719 41.691406 39.25 41.578125 39.367188 C 41.332031 39.609375 41.089844 39.851562 40.847656 40.097656 C 40.535156 40.410156 40.222656 40.722656 39.910156 41.035156 C 39.671875 41.273438 39.429688 41.511719 39.191406 41.75 C 39.078125 41.867188 38.960938 41.980469 38.847656 42.097656 C 38.683594 42.257812 38.523438 42.417969 38.363281 42.582031 C 38.316406 42.628906 38.269531 42.675781 38.21875 42.726562 C 37.988281 42.914062 37.988281 42.914062 37.890625 43.164062 C 39.632812 43.164062 41.371094 43.164062 43.164062 43.164062 C 43.164062 41.421875 43.164062 39.683594 43.164062 37.890625 C 42.96875 37.890625 42.855469 38.089844 42.726562 38.21875 Z M 42.726562 38.21875 "/>
</g>
</svg>
