<?xml version="1.0" encoding="UTF-8"?>
<svg xmlns="http://www.w3.org/2000/svg" xmlns:xlink="http://www.w3.org/1999/xlink" width="50px" height="50px" viewBox="0 0 50 50" version="1.1">
<g id="surface1">
<path style=" stroke:none;fill-rule:nonzero;fill:white;fill-opacity:1;" d="M 11.753906 -0.0507812 C 11.824219 -0.0507812 11.894531 -0.0507812 11.96875 -0.0546875 C 12.117188 -0.0546875 12.265625 -0.0507812 12.414062 -0.0507812 C 12.640625 -0.0507812 12.867188 -0.0507812 13.09375 -0.0546875 C 13.238281 -0.0546875 13.378906 -0.0507812 13.523438 -0.0507812 C 13.59375 -0.0507812 13.660156 -0.0546875 13.730469 -0.0546875 C 14.050781 -0.046875 14.230469 -0.0195312 14.492188 0.171875 C 14.652344 0.394531 14.71875 0.546875 14.773438 0.8125 C 14.789062 0.890625 14.804688 0.96875 14.820312 1.050781 C 14.835938 1.128906 14.851562 1.210938 14.867188 1.292969 C 14.886719 1.375 14.902344 1.457031 14.917969 1.542969 C 14.960938 1.746094 15 1.945312 15.039062 2.148438 C 15.449219 1.925781 15.847656 1.710938 16.230469 1.441406 C 16.535156 1.25 16.730469 1.179688 17.089844 1.171875 C 17.640625 1.457031 18.042969 1.890625 18.480469 2.324219 C 18.5625 2.402344 18.644531 2.480469 18.726562 2.5625 C 18.804688 2.636719 18.878906 2.710938 18.960938 2.792969 C 19.027344 2.859375 19.097656 2.929688 19.171875 3 C 19.375 3.273438 19.414062 3.46875 19.433594 3.808594 C 19.164062 4.472656 18.75 5.0625 18.359375 5.664062 C 18.445312 5.667969 18.445312 5.667969 18.535156 5.675781 C 19.171875 5.726562 19.820312 5.792969 20.410156 6.054688 C 20.707031 6.449219 20.703125 6.625 20.703125 7.128906 C 27.117188 7.128906 33.53125 7.128906 40.136719 7.128906 C 40.199219 7 40.265625 6.871094 40.332031 6.738281 C 40.511719 6.574219 40.511719 6.574219 40.714844 6.425781 C 40.785156 6.378906 40.851562 6.328125 40.921875 6.277344 C 41.269531 6.050781 41.5625 6.042969 41.964844 6.039062 C 42.078125 6.035156 42.195312 6.035156 42.3125 6.035156 C 42.4375 6.03125 42.5625 6.03125 42.6875 6.03125 C 42.816406 6.03125 42.945312 6.03125 43.078125 6.027344 C 43.347656 6.027344 43.617188 6.027344 43.890625 6.027344 C 44.234375 6.023438 44.578125 6.019531 44.925781 6.015625 C 45.253906 6.015625 45.585938 6.015625 45.917969 6.011719 C 46.042969 6.011719 46.164062 6.007812 46.292969 6.007812 C 47.082031 6.011719 47.625 6.089844 48.246094 6.613281 C 48.289062 6.667969 48.332031 6.71875 48.375 6.773438 C 48.421875 6.828125 48.464844 6.882812 48.511719 6.9375 C 48.777344 7.363281 48.851562 7.792969 48.859375 8.285156 C 48.859375 8.394531 48.859375 8.507812 48.863281 8.621094 C 48.863281 8.796875 48.863281 8.796875 48.863281 8.976562 C 48.867188 9.097656 48.867188 9.222656 48.867188 9.347656 C 48.867188 9.605469 48.871094 9.867188 48.871094 10.125 C 48.871094 10.453125 48.875 10.785156 48.878906 11.113281 C 48.882812 11.429688 48.882812 11.746094 48.882812 12.066406 C 48.882812 12.183594 48.886719 12.300781 48.886719 12.417969 C 48.882812 13.167969 48.761719 13.726562 48.339844 14.355469 C 48.109375 14.574219 48.109375 14.574219 47.886719 14.703125 C 47.8125 14.746094 47.742188 14.792969 47.664062 14.839844 C 47.113281 15.117188 46.457031 15.152344 45.867188 14.96875 C 45.203125 14.65625 44.828125 14.179688 44.433594 13.574219 C 44.378906 13.628906 44.324219 13.6875 44.265625 13.742188 C 42.917969 15.097656 41.570312 16.453125 40.21875 17.804688 C 39.566406 18.457031 38.914062 19.113281 38.261719 19.769531 C 37.695312 20.339844 37.125 20.910156 36.554688 21.480469 C 36.253906 21.78125 35.953125 22.082031 35.652344 22.386719 C 35.371094 22.671875 35.085938 22.953125 34.800781 23.238281 C 34.699219 23.34375 34.59375 23.449219 34.492188 23.550781 C 34.347656 23.695312 34.207031 23.835938 34.0625 23.980469 C 33.984375 24.058594 33.90625 24.136719 33.824219 24.222656 C 33.484375 24.507812 33.210938 24.601562 32.769531 24.640625 C 31.976562 24.570312 31.539062 24.058594 31.007812 23.519531 C 30.933594 23.441406 30.855469 23.363281 30.777344 23.285156 C 30.53125 23.035156 30.285156 22.789062 30.042969 22.539062 C 29.875 22.371094 29.707031 22.203125 29.542969 22.035156 C 29.132812 21.625 28.726562 21.214844 28.320312 20.800781 C 27.695312 21.308594 27.140625 21.878906 26.574219 22.449219 C 26.398438 22.628906 26.21875 22.808594 26.042969 22.988281 C 25.535156 23.5 25.03125 24.007812 24.527344 24.523438 C 24.214844 24.835938 23.90625 25.148438 23.59375 25.460938 C 23.476562 25.582031 23.359375 25.699219 23.242188 25.820312 C 21.945312 27.140625 21.945312 27.140625 21.089844 27.300781 C 20.308594 27.300781 19.644531 27.160156 19.074219 26.597656 C 18.644531 26.042969 18.484375 25.40625 18.554688 24.707031 C 18.773438 23.910156 19.179688 23.414062 19.765625 22.847656 C 19.847656 22.769531 19.925781 22.691406 20.007812 22.609375 C 20.257812 22.363281 20.511719 22.117188 20.765625 21.867188 C 20.933594 21.699219 21.105469 21.53125 21.277344 21.363281 C 21.585938 21.054688 21.898438 20.75 22.210938 20.445312 C 22.273438 20.382812 22.335938 20.324219 22.402344 20.257812 C 22.640625 20.042969 22.753906 20.019531 23.082031 19.988281 C 23.4375 20.019531 23.4375 20.019531 23.675781 20.171875 C 23.898438 20.515625 23.902344 20.691406 23.828125 21.09375 C 23.222656 21.996094 22.269531 22.75 21.492188 23.503906 C 21.300781 23.691406 21.109375 23.878906 20.917969 24.066406 C 20.859375 24.125 20.800781 24.179688 20.738281 24.238281 C 20.332031 24.644531 20.332031 24.644531 20.214844 25.195312 C 20.304688 25.433594 20.304688 25.433594 20.507812 25.585938 C 20.78125 25.648438 20.78125 25.648438 21.09375 25.585938 C 21.332031 25.402344 21.523438 25.230469 21.726562 25.015625 C 21.789062 24.953125 21.847656 24.894531 21.910156 24.832031 C 22.109375 24.632812 22.308594 24.429688 22.503906 24.226562 C 22.644531 24.085938 22.78125 23.945312 22.917969 23.804688 C 23.285156 23.4375 23.644531 23.070312 24.007812 22.699219 C 24.589844 22.109375 25.171875 21.519531 25.753906 20.929688 C 25.957031 20.722656 26.160156 20.519531 26.363281 20.3125 C 26.484375 20.183594 26.609375 20.058594 26.734375 19.933594 C 26.792969 19.875 26.847656 19.816406 26.90625 19.757812 C 27.347656 19.308594 27.628906 19.113281 28.257812 19.105469 C 28.347656 19.101562 28.4375 19.097656 28.53125 19.09375 C 29.222656 19.207031 29.707031 19.820312 30.179688 20.296875 C 30.25 20.367188 30.324219 20.441406 30.398438 20.515625 C 30.628906 20.75 30.859375 20.984375 31.089844 21.214844 C 31.25 21.375 31.40625 21.53125 31.5625 21.691406 C 31.949219 22.078125 32.332031 22.464844 32.714844 22.851562 C 33.347656 22.328125 33.921875 21.753906 34.5 21.171875 C 34.609375 21.0625 34.722656 20.949219 34.832031 20.839844 C 35.066406 20.601562 35.304688 20.367188 35.539062 20.128906 C 35.910156 19.753906 36.285156 19.382812 36.65625 19.007812 C 37.71875 17.945312 38.777344 16.878906 39.839844 15.816406 C 40.425781 15.226562 41.011719 14.640625 41.597656 14.050781 C 41.96875 13.679688 42.339844 13.308594 42.710938 12.933594 C 42.941406 12.703125 43.171875 12.472656 43.402344 12.242188 C 43.507812 12.132812 43.617188 12.027344 43.722656 11.917969 C 43.867188 11.773438 44.015625 11.625 44.160156 11.480469 C 44.28125 11.359375 44.28125 11.359375 44.40625 11.234375 C 44.742188 10.933594 44.914062 10.835938 45.367188 10.851562 C 45.703125 10.9375 45.703125 10.9375 45.867188 11.082031 C 46.09375 11.511719 46.042969 11.980469 46.046875 12.453125 C 46.050781 12.53125 46.050781 12.609375 46.054688 12.6875 C 46.054688 12.757812 46.054688 12.824219 46.054688 12.898438 C 46.105469 13.144531 46.183594 13.234375 46.386719 13.378906 C 46.738281 13.371094 46.738281 13.371094 47.070312 13.28125 C 47.191406 13.039062 47.183594 12.875 47.183594 12.601562 C 47.183594 12.453125 47.183594 12.453125 47.1875 12.296875 C 47.1875 12.1875 47.1875 12.078125 47.1875 11.964844 C 47.1875 11.855469 47.1875 11.742188 47.191406 11.628906 C 47.191406 11.390625 47.191406 11.15625 47.191406 10.917969 C 47.191406 10.554688 47.195312 10.191406 47.199219 9.828125 C 47.199219 9.597656 47.199219 9.371094 47.199219 9.140625 C 47.203125 8.976562 47.203125 8.976562 47.203125 8.808594 C 47.203125 8.660156 47.203125 8.660156 47.203125 8.503906 C 47.203125 8.414062 47.203125 8.328125 47.203125 8.234375 C 47.183594 8.003906 47.183594 8.003906 47.050781 7.832031 C 46.8125 7.675781 46.652344 7.675781 46.371094 7.675781 C 46.265625 7.675781 46.164062 7.675781 46.058594 7.675781 C 45.945312 7.675781 45.835938 7.675781 45.722656 7.675781 C 45.550781 7.675781 45.550781 7.675781 45.375 7.675781 C 45.132812 7.675781 44.894531 7.675781 44.652344 7.675781 C 44.28125 7.679688 43.910156 7.675781 43.542969 7.675781 C 43.308594 7.675781 43.074219 7.675781 42.839844 7.675781 C 42.671875 7.675781 42.671875 7.675781 42.503906 7.675781 C 42.347656 7.675781 42.347656 7.675781 42.191406 7.675781 C 42.101562 7.675781 42.011719 7.675781 41.917969 7.675781 C 41.84375 7.691406 41.773438 7.703125 41.699219 7.714844 C 41.460938 8.070312 41.488281 8.273438 41.503906 8.691406 C 41.976562 8.824219 42.460938 8.816406 42.949219 8.824219 C 43.316406 8.835938 43.5 8.84375 43.796875 9.070312 C 43.972656 9.316406 44.035156 9.460938 44.042969 9.765625 C 43.855469 10.132812 43.621094 10.40625 43.332031 10.695312 C 43.246094 10.78125 43.164062 10.867188 43.074219 10.957031 C 42.980469 11.050781 42.886719 11.144531 42.792969 11.238281 C 42.691406 11.339844 42.59375 11.4375 42.496094 11.539062 C 42.226562 11.808594 41.957031 12.078125 41.683594 12.347656 C 41.460938 12.574219 41.234375 12.796875 41.011719 13.023438 C 40.480469 13.554688 39.949219 14.089844 39.414062 14.621094 C 38.867188 15.167969 38.320312 15.714844 37.773438 16.265625 C 37.300781 16.738281 36.832031 17.207031 36.359375 17.679688 C 36.078125 17.960938 35.796875 18.242188 35.515625 18.523438 C 35.253906 18.789062 34.988281 19.050781 34.722656 19.316406 C 34.628906 19.414062 34.53125 19.511719 34.433594 19.609375 C 34.300781 19.742188 34.167969 19.871094 34.035156 20.003906 C 33.960938 20.078125 33.886719 20.152344 33.8125 20.230469 C 33.375 20.589844 32.980469 20.65625 32.421875 20.605469 C 31.828125 20.382812 31.445312 19.960938 31.007812 19.515625 C 30.933594 19.4375 30.855469 19.359375 30.777344 19.28125 C 30.53125 19.03125 30.285156 18.785156 30.042969 18.535156 C 29.875 18.367188 29.707031 18.199219 29.542969 18.03125 C 29.132812 17.621094 28.726562 17.210938 28.320312 16.796875 C 27.941406 17.117188 27.570312 17.4375 27.230469 17.800781 C 27.160156 17.871094 27.089844 17.945312 27.019531 18.019531 C 26.875 18.167969 26.734375 18.320312 26.59375 18.472656 C 26.261719 18.8125 26.066406 19.019531 25.601562 19.148438 C 25.226562 19.140625 25.074219 19.109375 24.804688 18.847656 C 24.695312 18.523438 24.648438 18.390625 24.707031 18.066406 C 24.824219 17.890625 24.824219 17.890625 24.988281 17.710938 C 25.050781 17.644531 25.113281 17.578125 25.175781 17.507812 C 25.574219 17.09375 25.976562 16.679688 26.386719 16.273438 C 26.515625 16.140625 26.515625 16.140625 26.648438 16.003906 C 26.730469 15.921875 26.816406 15.835938 26.902344 15.75 C 26.976562 15.675781 27.054688 15.597656 27.132812 15.519531 C 27.496094 15.195312 27.773438 15.105469 28.257812 15.101562 C 28.347656 15.097656 28.4375 15.09375 28.53125 15.089844 C 29.222656 15.203125 29.707031 15.816406 30.179688 16.292969 C 30.25 16.363281 30.324219 16.4375 30.398438 16.511719 C 30.628906 16.746094 30.859375 16.980469 31.089844 17.210938 C 31.25 17.371094 31.40625 17.527344 31.5625 17.6875 C 31.949219 18.074219 32.332031 18.460938 32.714844 18.847656 C 35.039062 16.855469 37.09375 14.566406 39.257812 12.402344 C 32.683594 12.371094 26.109375 12.335938 19.335938 12.304688 C 19.304688 12.433594 19.273438 12.5625 19.238281 12.695312 C 18.96875 13.035156 18.652344 13.335938 18.347656 13.640625 C 18.222656 13.769531 18.222656 13.769531 18.097656 13.902344 C 17.410156 14.59375 17.410156 14.59375 17.007812 14.667969 C 16.691406 14.648438 16.53125 14.609375 16.265625 14.441406 C 16.191406 14.394531 16.121094 14.351562 16.042969 14.304688 C 15.96875 14.257812 15.894531 14.210938 15.820312 14.160156 C 15.746094 14.113281 15.667969 14.066406 15.589844 14.019531 C 15.40625 13.90625 15.222656 13.789062 15.039062 13.671875 C 15.015625 13.792969 14.992188 13.914062 14.972656 14.039062 C 14.9375 14.199219 14.90625 14.359375 14.875 14.519531 C 14.859375 14.601562 14.84375 14.679688 14.832031 14.761719 C 14.8125 14.839844 14.796875 14.917969 14.78125 14.996094 C 14.761719 15.105469 14.761719 15.105469 14.738281 15.214844 C 14.605469 15.535156 14.433594 15.703125 14.160156 15.917969 C 13.84375 15.980469 13.84375 15.980469 13.488281 15.980469 C 13.359375 15.980469 13.230469 15.980469 13.101562 15.980469 C 13 15.976562 13 15.976562 12.898438 15.976562 C 12.695312 15.972656 12.492188 15.972656 12.289062 15.976562 C 11.3125 15.96875 11.3125 15.96875 10.953125 15.746094 C 10.734375 15.519531 10.667969 15.40625 10.609375 15.105469 C 10.59375 15.027344 10.578125 14.949219 10.558594 14.867188 C 10.546875 14.789062 10.53125 14.707031 10.515625 14.625 C 10.5 14.542969 10.484375 14.460938 10.464844 14.375 C 10.425781 14.171875 10.390625 13.972656 10.351562 13.769531 C 9.964844 13.769531 9.582031 14.128906 9.261719 14.34375 C 9.199219 14.382812 9.136719 14.425781 9.070312 14.464844 C 9.015625 14.503906 8.957031 14.539062 8.898438 14.578125 C 8.574219 14.6875 8.339844 14.632812 8.007812 14.550781 C 7.753906 14.363281 7.753906 14.363281 7.515625 14.121094 C 7.433594 14.035156 7.347656 13.945312 7.257812 13.859375 C 7.171875 13.765625 7.085938 13.675781 6.996094 13.582031 C 6.90625 13.488281 6.816406 13.398438 6.722656 13.304688 C 6.074219 12.636719 6.074219 12.636719 5.957031 12.402344 C 4.894531 12.371094 3.828125 12.335938 2.734375 12.304688 C 2.742188 15.105469 2.746094 17.910156 2.757812 20.710938 C 2.761719 22.011719 2.765625 23.3125 2.769531 24.613281 C 2.769531 25.75 2.773438 26.882812 2.777344 28.015625 C 2.78125 28.617188 2.78125 29.21875 2.78125 29.816406 C 2.785156 30.382812 2.785156 30.949219 2.789062 31.511719 C 2.789062 31.71875 2.789062 31.929688 2.789062 32.136719 C 2.789062 32.417969 2.792969 32.703125 2.792969 32.984375 C 2.792969 33.066406 2.792969 33.148438 2.792969 33.234375 C 2.800781 33.863281 2.957031 34.285156 3.277344 34.832031 C 4.039062 35.554688 5.035156 35.5 6.019531 35.472656 C 6.15625 35.472656 6.292969 35.46875 6.429688 35.46875 C 6.757812 35.464844 7.089844 35.457031 7.421875 35.449219 C 7.445312 35.363281 7.472656 35.277344 7.5 35.191406 C 7.53125 35.078125 7.566406 34.964844 7.601562 34.847656 C 7.636719 34.738281 7.667969 34.625 7.703125 34.511719 C 8.101562 33.304688 8.894531 32.332031 10.003906 31.695312 C 10.183594 31.609375 10.363281 31.523438 10.546875 31.445312 C 10.632812 31.40625 10.71875 31.363281 10.808594 31.324219 C 11.976562 30.855469 13.386719 30.894531 14.558594 31.324219 C 16.050781 31.964844 17.046875 32.921875 17.683594 34.433594 C 17.824219 34.824219 17.875 35.132812 17.871094 35.546875 C 21.253906 35.542969 24.636719 35.535156 28.019531 35.523438 C 28.417969 35.523438 28.820312 35.523438 29.21875 35.519531 C 29.296875 35.519531 29.378906 35.519531 29.460938 35.519531 C 30.746094 35.515625 32.035156 35.515625 33.320312 35.511719 C 34.644531 35.511719 35.964844 35.507812 37.285156 35.503906 C 38.101562 35.5 38.914062 35.5 39.730469 35.5 C 40.289062 35.496094 40.847656 35.496094 41.40625 35.492188 C 41.730469 35.492188 42.054688 35.492188 42.375 35.492188 C 42.726562 35.492188 43.074219 35.488281 43.425781 35.488281 C 43.527344 35.488281 43.628906 35.488281 43.734375 35.488281 C 44.605469 35.480469 45.269531 35.296875 45.898438 34.667969 C 46.164062 34.226562 46.226562 33.902344 46.226562 33.390625 C 46.230469 33.289062 46.230469 33.289062 46.230469 33.183594 C 46.230469 32.960938 46.230469 32.734375 46.230469 32.511719 C 46.230469 32.347656 46.230469 32.1875 46.230469 32.023438 C 46.230469 31.675781 46.230469 31.328125 46.230469 30.980469 C 46.230469 30.429688 46.230469 29.882812 46.234375 29.332031 C 46.238281 28.164062 46.238281 26.996094 46.238281 25.828125 C 46.242188 24.570312 46.242188 23.308594 46.246094 22.050781 C 46.25 21.503906 46.25 20.957031 46.25 20.410156 C 46.25 20.070312 46.25 19.730469 46.25 19.390625 C 46.25 19.230469 46.25 19.074219 46.25 18.917969 C 46.25 18.703125 46.25 18.488281 46.253906 18.269531 C 46.253906 18.089844 46.253906 18.089844 46.253906 17.90625 C 46.292969 17.542969 46.390625 17.304688 46.582031 16.992188 C 46.859375 16.851562 47.054688 16.863281 47.363281 16.894531 C 47.625 17.050781 47.625 17.050781 47.851562 17.285156 C 47.914062 17.597656 47.914062 17.597656 47.914062 17.972656 C 47.914062 18.039062 47.914062 18.109375 47.914062 18.179688 C 47.914062 18.414062 47.914062 18.644531 47.910156 18.875 C 47.910156 19.042969 47.914062 19.207031 47.914062 19.375 C 47.914062 19.824219 47.914062 20.277344 47.910156 20.726562 C 47.910156 21.199219 47.910156 21.671875 47.910156 22.144531 C 47.910156 22.9375 47.90625 23.730469 47.90625 24.527344 C 47.902344 25.441406 47.898438 26.359375 47.902344 27.277344 C 47.902344 28.160156 47.898438 29.042969 47.898438 29.925781 C 47.898438 30.300781 47.898438 30.675781 47.898438 31.050781 C 47.898438 31.492188 47.894531 31.933594 47.894531 32.378906 C 47.894531 32.539062 47.894531 32.699219 47.894531 32.863281 C 47.894531 34.1875 47.734375 35.132812 46.796875 36.125 C 45.820312 37.050781 44.703125 37.125 43.421875 37.121094 C 43.3125 37.121094 43.203125 37.121094 43.089844 37.121094 C 42.730469 37.121094 42.367188 37.121094 42.007812 37.117188 C 41.757812 37.117188 41.507812 37.117188 41.253906 37.117188 C 40.664062 37.117188 40.070312 37.117188 39.480469 37.117188 C 38.804688 37.117188 38.132812 37.113281 37.457031 37.113281 C 36.074219 37.113281 34.6875 37.113281 33.300781 37.109375 C 33.328125 37.214844 33.359375 37.316406 33.390625 37.425781 C 33.710938 38.566406 34.011719 39.710938 34.304688 40.859375 C 34.351562 41.042969 34.398438 41.226562 34.445312 41.414062 C 34.542969 41.796875 34.640625 42.179688 34.738281 42.5625 C 34.863281 43.050781 34.988281 43.542969 35.113281 44.03125 C 35.210938 44.410156 35.308594 44.789062 35.40625 45.167969 C 35.453125 45.351562 35.496094 45.53125 35.542969 45.710938 C 35.609375 45.964844 35.671875 46.214844 35.738281 46.46875 C 35.757812 46.542969 35.773438 46.613281 35.792969 46.691406 C 36.019531 47.574219 36.195312 48.277344 35.742188 49.121094 C 35.304688 49.65625 34.828125 49.964844 34.140625 50.035156 C 33.339844 50.054688 32.859375 49.964844 32.214844 49.476562 C 31.378906 48.574219 31.222656 46.636719 30.929688 45.476562 C 30.871094 45.246094 30.8125 45.019531 30.753906 44.789062 C 30.628906 44.3125 30.507812 43.832031 30.386719 43.355469 C 30.230469 42.742188 30.074219 42.128906 29.917969 41.515625 C 29.796875 41.042969 29.675781 40.570312 29.554688 40.097656 C 29.5 39.871094 29.441406 39.644531 29.382812 39.417969 C 29.300781 39.105469 29.222656 38.789062 29.140625 38.472656 C 29.117188 38.382812 29.09375 38.289062 29.070312 38.191406 C 29.035156 38.0625 29.035156 38.0625 29.003906 37.929688 C 28.984375 37.855469 28.964844 37.78125 28.945312 37.707031 C 28.90625 37.5 28.90625 37.5 28.90625 37.109375 C 28.132812 37.109375 27.359375 37.109375 26.5625 37.109375 C 26.566406 37.449219 26.566406 37.785156 26.570312 38.136719 C 26.574219 39.253906 26.578125 40.375 26.582031 41.496094 C 26.585938 42.171875 26.585938 42.851562 26.59375 43.53125 C 26.597656 44.1875 26.597656 44.84375 26.597656 45.496094 C 26.601562 45.746094 26.601562 45.996094 26.605469 46.246094 C 26.605469 46.597656 26.605469 46.949219 26.605469 47.296875 C 26.609375 47.402344 26.609375 47.503906 26.609375 47.609375 C 26.605469 48.335938 26.488281 48.984375 25.96875 49.527344 C 25.902344 49.570312 25.835938 49.613281 25.769531 49.65625 C 25.703125 49.703125 25.636719 49.75 25.566406 49.796875 C 25.058594 50.105469 24.507812 50.039062 23.925781 50 C 23.351562 49.804688 22.984375 49.445312 22.679688 48.925781 C 22.503906 48.503906 22.449219 48.121094 22.449219 47.667969 C 22.449219 47.527344 22.449219 47.527344 22.449219 47.382812 C 22.449219 47.28125 22.449219 47.179688 22.449219 47.074219 C 22.449219 46.96875 22.449219 46.859375 22.449219 46.75 C 22.449219 46.394531 22.449219 46.039062 22.453125 45.683594 C 22.453125 45.4375 22.453125 45.191406 22.453125 44.941406 C 22.453125 44.359375 22.453125 43.777344 22.453125 43.195312 C 22.453125 42.53125 22.457031 41.867188 22.457031 41.203125 C 22.457031 39.839844 22.457031 38.472656 22.460938 37.109375 C 21.71875 37.109375 20.976562 37.109375 20.214844 37.109375 C 20.160156 37.34375 20.105469 37.582031 20.046875 37.824219 C 19.828125 38.761719 19.59375 39.699219 19.359375 40.632812 C 19.3125 40.808594 19.269531 40.980469 19.226562 41.15625 C 19.132812 41.519531 19.042969 41.882812 18.949219 42.246094 C 18.859375 42.613281 18.765625 42.980469 18.671875 43.347656 C 17.789062 46.855469 17.789062 46.855469 17.441406 48.117188 C 17.417969 48.195312 17.398438 48.273438 17.378906 48.351562 C 17.171875 49.078125 16.867188 49.523438 16.210938 49.902344 C 15.628906 50.097656 14.847656 50.113281 14.269531 49.890625 C 13.769531 49.589844 13.3125 49.285156 13.085938 48.730469 C 12.972656 47.78125 13.183594 46.902344 13.429688 45.992188 C 13.464844 45.855469 13.496094 45.71875 13.53125 45.582031 C 13.625 45.230469 13.71875 44.875 13.808594 44.523438 C 13.90625 44.160156 14 43.796875 14.09375 43.433594 C 14.277344 42.726562 14.460938 42.015625 14.648438 41.308594 C 14.535156 41.328125 14.425781 41.351562 14.308594 41.371094 C 14.160156 41.402344 14.011719 41.429688 13.863281 41.457031 C 13.789062 41.46875 13.714844 41.484375 13.640625 41.496094 C 12.125 41.773438 10.734375 41.398438 9.472656 40.527344 C 9.414062 40.488281 9.351562 40.445312 9.292969 40.402344 C 8.433594 39.75 7.757812 38.636719 7.519531 37.597656 C 7.515625 37.433594 7.515625 37.273438 7.519531 37.109375 C 7.433594 37.109375 7.347656 37.113281 7.257812 37.113281 C 6.929688 37.117188 6.605469 37.117188 6.28125 37.121094 C 6.140625 37.121094 6 37.121094 5.859375 37.125 C 4.429688 37.140625 3.230469 37.042969 2.136719 36.039062 C 1.359375 35.195312 1.140625 34.304688 1.144531 33.1875 C 1.144531 33.089844 1.144531 32.992188 1.144531 32.890625 C 1.144531 32.5625 1.144531 32.234375 1.144531 31.90625 C 1.144531 31.667969 1.140625 31.433594 1.140625 31.195312 C 1.140625 30.621094 1.140625 30.046875 1.140625 29.472656 C 1.140625 29.007812 1.140625 28.539062 1.136719 28.074219 C 1.136719 26.75 1.136719 25.421875 1.136719 24.097656 C 1.136719 24.027344 1.136719 23.953125 1.136719 23.882812 C 1.136719 23.808594 1.136719 23.738281 1.136719 23.664062 C 1.136719 22.507812 1.132812 21.347656 1.132812 20.191406 C 1.128906 19 1.128906 17.8125 1.128906 16.621094 C 1.128906 15.953125 1.125 15.285156 1.125 14.617188 C 1.121094 13.992188 1.121094 13.363281 1.125 12.734375 C 1.125 12.503906 1.125 12.273438 1.121094 12.042969 C 1.121094 11.730469 1.121094 11.414062 1.125 11.097656 C 1.121094 10.964844 1.121094 10.964844 1.121094 10.824219 C 1.132812 9.714844 1.550781 8.835938 2.304688 8.039062 C 2.976562 7.402344 3.78125 7.1875 4.6875 7.128906 C 4.691406 7.039062 4.691406 7.039062 4.695312 6.945312 C 4.703125 6.828125 4.703125 6.828125 4.710938 6.707031 C 4.714844 6.628906 4.722656 6.550781 4.726562 6.472656 C 4.785156 6.25 4.785156 6.25 4.929688 6.089844 C 5.296875 5.894531 5.675781 5.824219 6.078125 5.742188 C 6.160156 5.726562 6.242188 5.707031 6.328125 5.691406 C 6.53125 5.648438 6.730469 5.605469 6.933594 5.566406 C 6.886719 5.496094 6.839844 5.425781 6.792969 5.351562 C 5.949219 4.042969 5.949219 4.042969 5.972656 3.578125 C 6.066406 3.171875 6.179688 3.023438 6.472656 2.730469 C 6.554688 2.648438 6.640625 2.5625 6.730469 2.472656 C 6.863281 2.34375 6.863281 2.34375 7 2.210938 C 7.089844 2.121094 7.175781 2.03125 7.265625 1.9375 C 8.003906 1.210938 8.003906 1.210938 8.59375 1.171875 C 8.816406 1.253906 8.816406 1.253906 9.019531 1.378906 C 9.09375 1.425781 9.167969 1.46875 9.246094 1.515625 C 9.320312 1.5625 9.394531 1.609375 9.472656 1.660156 C 9.546875 1.707031 9.625 1.753906 9.703125 1.800781 C 9.886719 1.914062 10.070312 2.03125 10.253906 2.148438 C 10.429688 1.660156 10.542969 1.167969 10.65625 0.664062 C 10.855469 0.03125 11.117188 -0.0585938 11.753906 -0.0507812 Z M 12.109375 1.464844 C 12.078125 1.648438 12.078125 1.648438 12.042969 1.832031 C 12.011719 1.992188 11.980469 2.152344 11.949219 2.3125 C 11.9375 2.394531 11.921875 2.472656 11.910156 2.554688 C 11.828125 2.964844 11.753906 3.238281 11.429688 3.515625 C 11.015625 3.789062 10.726562 3.917969 10.226562 3.886719 C 9.816406 3.796875 9.574219 3.652344 9.234375 3.410156 C 9.132812 3.339844 9.03125 3.269531 8.921875 3.195312 C 8.847656 3.140625 8.769531 3.085938 8.691406 3.027344 C 8.324219 3.195312 8.089844 3.417969 7.8125 3.710938 C 7.941406 4.0625 8.101562 4.351562 8.3125 4.664062 C 8.601562 5.136719 8.703125 5.503906 8.59375 6.054688 C 8.445312 6.390625 8.445312 6.390625 8.300781 6.640625 C 8.300781 6.707031 8.300781 6.769531 8.300781 6.835938 C 8.050781 6.898438 7.800781 6.960938 7.550781 7.023438 C 7.445312 7.050781 7.445312 7.050781 7.335938 7.078125 C 7.269531 7.097656 7.199219 7.113281 7.128906 7.132812 C 7.066406 7.148438 7.003906 7.164062 6.9375 7.179688 C 6.710938 7.234375 6.480469 7.277344 6.25 7.324219 C 6.25 7.710938 6.25 8.097656 6.25 8.496094 C 6.421875 8.53125 6.421875 8.53125 6.597656 8.566406 C 6.746094 8.601562 6.898438 8.632812 7.050781 8.667969 C 7.125 8.683594 7.199219 8.699219 7.277344 8.714844 C 7.742188 8.816406 8.050781 8.933594 8.398438 9.277344 C 8.667969 9.714844 8.699219 10.246094 8.59375 10.742188 C 8.367188 11.160156 8.101562 11.539062 7.8125 11.914062 C 7.980469 12.28125 8.203125 12.515625 8.496094 12.792969 C 8.84375 12.667969 9.101562 12.519531 9.394531 12.292969 C 9.875 11.964844 10.269531 11.914062 10.839844 12.011719 C 11.261719 12.164062 11.488281 12.3125 11.71875 12.695312 C 11.808594 12.976562 11.871094 13.261719 11.933594 13.550781 C 11.957031 13.664062 11.957031 13.664062 11.984375 13.785156 C 12.027344 13.972656 12.070312 14.164062 12.109375 14.355469 C 12.496094 14.355469 12.882812 14.355469 13.28125 14.355469 C 13.300781 14.234375 13.324219 14.113281 13.347656 13.988281 C 13.378906 13.828125 13.410156 13.667969 13.441406 13.507812 C 13.453125 13.425781 13.46875 13.347656 13.480469 13.265625 C 13.5625 12.855469 13.636719 12.578125 13.960938 12.304688 C 14.429688 11.996094 14.882812 11.898438 15.429688 12.011719 C 15.71875 12.171875 15.988281 12.339844 16.257812 12.53125 C 16.429688 12.65625 16.429688 12.65625 16.699219 12.792969 C 17.082031 12.691406 17.3125 12.390625 17.578125 12.109375 C 17.453125 11.761719 17.300781 11.484375 17.082031 11.1875 C 16.847656 10.835938 16.691406 10.589844 16.699219 10.15625 C 16.785156 9.722656 16.882812 9.390625 17.195312 9.070312 C 17.5625 8.832031 17.914062 8.753906 18.339844 8.667969 C 18.417969 8.648438 18.496094 8.632812 18.574219 8.617188 C 18.761719 8.574219 18.953125 8.535156 19.140625 8.496094 C 19.140625 8.109375 19.140625 7.722656 19.140625 7.324219 C 19.019531 7.300781 18.894531 7.277344 18.769531 7.253906 C 18.609375 7.21875 18.449219 7.1875 18.285156 7.152344 C 18.164062 7.128906 18.164062 7.128906 18.042969 7.105469 C 17.585938 7.011719 17.28125 6.9375 16.992188 6.542969 C 16.886719 6.359375 16.886719 6.359375 16.816406 6.171875 C 16.789062 6.109375 16.765625 6.046875 16.738281 5.984375 C 16.65625 5.519531 16.75 5.164062 16.976562 4.753906 C 17.085938 4.605469 17.085938 4.605469 17.195312 4.449219 C 17.300781 4.296875 17.300781 4.296875 17.410156 4.136719 C 17.464844 4.0625 17.519531 3.984375 17.578125 3.90625 C 17.410156 3.539062 17.1875 3.304688 16.894531 3.027344 C 16.546875 3.152344 16.277344 3.304688 15.980469 3.523438 C 15.589844 3.78125 15.324219 3.921875 14.84375 3.90625 C 14.347656 3.789062 13.96875 3.667969 13.679688 3.234375 C 13.625 3.0625 13.625 3.0625 13.574219 2.832031 C 13.535156 2.660156 13.535156 2.660156 13.492188 2.484375 C 13.417969 2.144531 13.347656 1.804688 13.28125 1.464844 C 12.894531 1.464844 12.507812 1.464844 12.109375 1.464844 Z M 3.335938 9.242188 C 2.914062 9.71875 2.722656 10.101562 2.734375 10.742188 C 3.300781 10.753906 3.863281 10.761719 4.429688 10.769531 C 4.621094 10.769531 4.8125 10.773438 5.003906 10.777344 C 5.28125 10.785156 5.558594 10.789062 5.832031 10.789062 C 5.964844 10.792969 5.964844 10.792969 6.09375 10.796875 C 6.320312 10.796875 6.519531 10.792969 6.738281 10.742188 C 6.949219 10.511719 6.949219 10.511719 7.03125 10.253906 C 6.925781 10.226562 6.816406 10.203125 6.707031 10.175781 C 6.566406 10.140625 6.421875 10.105469 6.28125 10.070312 C 6.210938 10.054688 6.140625 10.035156 6.066406 10.019531 C 5.046875 9.769531 5.046875 9.769531 4.785156 9.375 C 4.746094 9.148438 4.714844 8.921875 4.6875 8.691406 C 4.179688 8.691406 3.714844 8.90625 3.335938 9.242188 Z M 20.703125 8.691406 C 20.640625 8.980469 20.574219 9.273438 20.507812 9.570312 C 20.097656 9.871094 19.59375 9.964844 19.105469 10.078125 C 18.996094 10.101562 18.996094 10.101562 18.886719 10.128906 C 18.710938 10.171875 18.535156 10.210938 18.359375 10.253906 C 18.441406 10.511719 18.441406 10.511719 18.652344 10.742188 C 18.964844 10.792969 19.222656 10.808594 19.535156 10.804688 C 19.671875 10.804688 19.671875 10.804688 19.8125 10.804688 C 20.117188 10.804688 20.425781 10.804688 20.734375 10.800781 C 20.953125 10.800781 21.171875 10.804688 21.394531 10.804688 C 21.992188 10.804688 22.589844 10.804688 23.1875 10.800781 C 23.8125 10.800781 24.4375 10.800781 25.0625 10.800781 C 26.113281 10.800781 27.164062 10.796875 28.214844 10.796875 C 29.292969 10.792969 30.375 10.789062 31.453125 10.792969 C 32.757812 10.792969 34.058594 10.792969 35.359375 10.789062 C 35.855469 10.789062 36.355469 10.789062 36.851562 10.789062 C 37.4375 10.789062 38.023438 10.785156 38.609375 10.785156 C 38.824219 10.785156 39.039062 10.785156 39.253906 10.785156 C 39.546875 10.785156 39.839844 10.78125 40.132812 10.78125 C 40.21875 10.78125 40.304688 10.78125 40.394531 10.78125 C 40.820312 10.789062 40.820312 10.789062 41.1875 10.605469 C 41.328125 10.457031 41.328125 10.457031 41.308594 10.253906 C 41.179688 10.195312 41.179688 10.195312 41.046875 10.136719 C 40.371094 9.769531 40.199219 9.402344 39.84375 8.691406 C 33.527344 8.691406 27.210938 8.691406 20.703125 8.691406 Z M 9.660156 34.105469 C 9.046875 34.980469 8.898438 35.863281 8.984375 36.914062 C 9.28125 38.125 10 38.980469 11.035156 39.648438 C 11.828125 40.070312 12.761719 40.128906 13.625 39.917969 C 14.675781 39.589844 15.492188 38.96875 16.007812 37.980469 C 16.492188 36.90625 16.515625 35.996094 16.144531 34.878906 C 15.730469 33.898438 14.941406 33.195312 13.976562 32.789062 C 12.289062 32.179688 10.8125 32.851562 9.660156 34.105469 Z M 17.871094 37.109375 C 17.839844 37.226562 17.839844 37.226562 17.804688 37.347656 C 17.574219 38.15625 17.308594 39.039062 16.699219 39.648438 C 16.621094 39.898438 16.550781 40.144531 16.488281 40.394531 C 16.46875 40.472656 16.449219 40.550781 16.429688 40.628906 C 16.363281 40.886719 16.296875 41.140625 16.230469 41.398438 C 16.1875 41.578125 16.140625 41.753906 16.09375 41.933594 C 16 42.304688 15.902344 42.679688 15.808594 43.050781 C 15.6875 43.53125 15.5625 44.007812 15.441406 44.484375 C 15.347656 44.851562 15.25 45.222656 15.15625 45.589844 C 15.113281 45.765625 15.066406 45.941406 15.023438 46.117188 C 14.957031 46.363281 14.894531 46.609375 14.832031 46.859375 C 14.816406 46.929688 14.796875 47.003906 14.777344 47.078125 C 14.675781 47.472656 14.609375 47.835938 14.648438 48.242188 C 14.847656 48.457031 14.847656 48.457031 15.136719 48.535156 C 15.441406 48.503906 15.441406 48.503906 15.722656 48.339844 C 15.839844 48.074219 15.90625 47.863281 15.96875 47.585938 C 15.988281 47.507812 16.007812 47.429688 16.027344 47.347656 C 16.070312 47.179688 16.109375 47.011719 16.148438 46.84375 C 16.230469 46.496094 16.320312 46.152344 16.410156 45.8125 C 16.535156 45.34375 16.652344 44.878906 16.769531 44.414062 C 16.824219 44.210938 16.875 44.007812 16.925781 43.804688 C 17.035156 43.382812 17.140625 42.964844 17.25 42.542969 C 17.386719 42.003906 17.523438 41.464844 17.664062 40.925781 C 17.769531 40.507812 17.875 40.09375 17.984375 39.675781 C 18.035156 39.476562 18.085938 39.277344 18.136719 39.078125 C 18.207031 38.804688 18.277344 38.527344 18.347656 38.25 C 18.367188 38.167969 18.390625 38.085938 18.410156 38 C 18.488281 37.699219 18.554688 37.425781 18.554688 37.109375 C 18.328125 37.109375 18.101562 37.109375 17.871094 37.109375 Z M 24.023438 37.109375 C 24.019531 38.53125 24.019531 39.953125 24.019531 41.371094 C 24.019531 42.03125 24.015625 42.691406 24.015625 43.351562 C 24.015625 43.988281 24.015625 44.625 24.015625 45.261719 C 24.015625 45.503906 24.011719 45.746094 24.011719 45.992188 C 24.011719 46.328125 24.011719 46.667969 24.011719 47.007812 C 24.011719 47.109375 24.011719 47.210938 24.011719 47.316406 C 24.011719 47.410156 24.011719 47.5 24.011719 47.597656 C 24.011719 47.675781 24.011719 47.757812 24.011719 47.839844 C 24.015625 48.066406 24.015625 48.066406 24.121094 48.339844 C 24.347656 48.371094 24.570312 48.40625 24.804688 48.4375 C 25.011719 48.125 25.023438 48.046875 25.023438 47.691406 C 25.023438 47.550781 25.023438 47.550781 25.023438 47.40625 C 25.023438 47.304688 25.023438 47.203125 25.023438 47.097656 C 25.023438 46.992188 25.023438 46.882812 25.023438 46.773438 C 25.023438 46.414062 25.019531 46.058594 25.019531 45.703125 C 25.019531 45.453125 25.019531 45.207031 25.019531 44.960938 C 25.015625 44.375 25.015625 43.792969 25.015625 43.207031 C 25.011719 42.542969 25.011719 41.878906 25.011719 41.214844 C 25.007812 39.84375 25.003906 38.476562 25 37.109375 C 24.679688 37.109375 24.355469 37.109375 24.023438 37.109375 Z M 30.46875 37.109375 C 30.734375 38.261719 31.015625 39.410156 31.308594 40.558594 C 31.351562 40.722656 31.390625 40.890625 31.433594 41.054688 C 31.519531 41.402344 31.609375 41.75 31.695312 42.09375 C 31.808594 42.53125 31.917969 42.96875 32.027344 43.410156 C 32.117188 43.75 32.203125 44.09375 32.289062 44.4375 C 32.328125 44.597656 32.371094 44.757812 32.410156 44.921875 C 32.523438 45.367188 32.636719 45.8125 32.753906 46.257812 C 32.816406 46.496094 32.875 46.738281 32.933594 46.976562 C 32.972656 47.136719 33.015625 47.296875 33.054688 47.457031 C 33.074219 47.53125 33.089844 47.605469 33.109375 47.683594 C 33.195312 48.023438 33.265625 48.214844 33.539062 48.441406 C 33.796875 48.5625 33.796875 48.5625 34.105469 48.480469 C 34.378906 48.371094 34.378906 48.371094 34.449219 48.175781 C 34.480469 47.855469 34.40625 47.597656 34.328125 47.285156 C 34.3125 47.222656 34.292969 47.15625 34.277344 47.085938 C 34.222656 46.867188 34.164062 46.648438 34.105469 46.429688 C 34.066406 46.273438 34.027344 46.117188 33.988281 45.960938 C 33.882812 45.550781 33.777344 45.136719 33.671875 44.726562 C 33.566406 44.320312 33.460938 43.914062 33.359375 43.511719 C 33.175781 42.789062 32.988281 42.070312 32.804688 41.347656 C 32.675781 40.855469 32.550781 40.363281 32.425781 39.875 C 32.34375 39.550781 32.261719 39.230469 32.179688 38.910156 C 32.140625 38.757812 32.101562 38.605469 32.066406 38.453125 C 32.011719 38.246094 31.957031 38.039062 31.90625 37.828125 C 31.859375 37.652344 31.859375 37.652344 31.8125 37.472656 C 31.765625 37.21875 31.765625 37.21875 31.640625 37.109375 C 31.445312 37.101562 31.246094 37.101562 31.046875 37.101562 C 30.894531 37.105469 30.894531 37.105469 30.738281 37.105469 C 30.605469 37.109375 30.605469 37.109375 30.46875 37.109375 Z M 30.46875 37.109375 "/>
<path style=" stroke:none;fill-rule:nonzero;fill:white;fill-opacity:1;" d="M 8.097656 18.105469 C 8.175781 18.101562 8.25 18.101562 8.328125 18.101562 C 8.582031 18.101562 8.832031 18.105469 9.085938 18.105469 C 9.261719 18.105469 9.4375 18.105469 9.613281 18.105469 C 9.980469 18.105469 10.347656 18.109375 10.714844 18.109375 C 11.183594 18.113281 11.65625 18.117188 12.125 18.113281 C 12.488281 18.113281 12.851562 18.117188 13.210938 18.117188 C 13.386719 18.117188 13.558594 18.117188 13.734375 18.117188 C 13.976562 18.117188 14.21875 18.121094 14.460938 18.125 C 14.53125 18.121094 14.601562 18.121094 14.675781 18.121094 C 15.105469 18.128906 15.382812 18.191406 15.722656 18.457031 C 15.875 18.761719 15.839844 19.089844 15.84375 19.425781 C 15.84375 19.503906 15.84375 19.582031 15.847656 19.660156 C 15.847656 19.820312 15.847656 19.984375 15.847656 20.148438 C 15.851562 20.394531 15.855469 20.644531 15.859375 20.894531 C 15.859375 21.050781 15.859375 21.210938 15.863281 21.367188 C 15.863281 21.441406 15.867188 21.515625 15.867188 21.59375 C 15.867188 21.90625 15.851562 22.121094 15.671875 22.382812 C 15.335938 22.625 15.035156 22.613281 14.636719 22.609375 C 14.519531 22.609375 14.519531 22.609375 14.398438 22.609375 C 14.136719 22.613281 13.875 22.613281 13.609375 22.609375 C 13.429688 22.609375 13.246094 22.609375 13.0625 22.613281 C 12.679688 22.613281 12.300781 22.613281 11.917969 22.609375 C 11.425781 22.605469 10.9375 22.609375 10.445312 22.609375 C 10.070312 22.613281 9.695312 22.613281 9.316406 22.609375 C 9.136719 22.609375 8.957031 22.609375 8.773438 22.613281 C 8.523438 22.613281 8.269531 22.609375 8.019531 22.609375 C 7.941406 22.609375 7.867188 22.609375 7.792969 22.613281 C 7.453125 22.605469 7.261719 22.582031 6.984375 22.382812 C 6.765625 22.0625 6.777344 21.75 6.78125 21.378906 C 6.78125 21.300781 6.78125 21.226562 6.777344 21.148438 C 6.777344 20.984375 6.777344 20.824219 6.78125 20.664062 C 6.78125 20.417969 6.777344 20.171875 6.773438 19.925781 C 6.773438 19.769531 6.773438 19.613281 6.773438 19.457031 C 6.773438 19.382812 6.773438 19.308594 6.769531 19.234375 C 6.777344 18.871094 6.816406 18.679688 7.035156 18.390625 C 7.394531 18.109375 7.664062 18.097656 8.097656 18.105469 Z M 8.398438 19.726562 C 8.398438 20.144531 8.398438 20.5625 8.398438 20.996094 C 10.332031 20.996094 12.265625 20.996094 14.257812 20.996094 C 14.257812 20.578125 14.257812 20.160156 14.257812 19.726562 C 12.324219 19.726562 10.390625 19.726562 8.398438 19.726562 Z M 8.398438 19.726562 "/>
<path style=" stroke:none;fill-rule:nonzero;fill:white;fill-opacity:1;" d="M 14.601562 5.339844 C 15.234375 5.855469 15.664062 6.515625 15.820312 7.324219 C 15.917969 8.324219 15.777344 9.1875 15.152344 10 C 14.570312 10.621094 13.90625 10.996094 13.050781 11.058594 C 11.949219 11.078125 11.246094 10.90625 10.429688 10.140625 C 9.6875 9.375 9.523438 8.660156 9.539062 7.59375 C 9.613281 6.714844 9.996094 6.058594 10.644531 5.46875 C 11.816406 4.5625 13.367188 4.507812 14.601562 5.339844 Z M 11.445312 6.941406 C 11.082031 7.421875 11.066406 7.804688 11.132812 8.398438 C 11.375 8.886719 11.71875 9.226562 12.207031 9.472656 C 12.691406 9.527344 13.074219 9.527344 13.511719 9.308594 C 13.988281 8.890625 14.234375 8.574219 14.289062 7.933594 C 14.28125 7.5 14.152344 7.164062 13.867188 6.835938 C 13.511719 6.523438 13.164062 6.320312 12.683594 6.296875 C 12.136719 6.371094 11.800781 6.523438 11.445312 6.941406 Z M 11.445312 6.941406 "/>
<path style=" stroke:none;fill-rule:nonzero;fill:white;fill-opacity:1;" d="M 29.019531 30.613281 C 29.140625 30.613281 29.265625 30.609375 29.390625 30.609375 C 29.527344 30.609375 29.664062 30.609375 29.800781 30.613281 C 29.945312 30.609375 30.089844 30.609375 30.230469 30.609375 C 30.621094 30.605469 31.011719 30.609375 31.402344 30.609375 C 31.726562 30.609375 32.054688 30.609375 32.378906 30.609375 C 33.148438 30.605469 33.917969 30.605469 34.683594 30.609375 C 35.476562 30.609375 36.269531 30.609375 37.0625 30.605469 C 37.742188 30.601562 38.425781 30.601562 39.105469 30.601562 C 39.511719 30.601562 39.917969 30.601562 40.324219 30.601562 C 40.707031 30.597656 41.089844 30.597656 41.472656 30.601562 C 41.609375 30.601562 41.75 30.601562 41.890625 30.601562 C 42.082031 30.597656 42.273438 30.601562 42.464844 30.601562 C 42.574219 30.601562 42.679688 30.601562 42.789062 30.601562 C 43.066406 30.664062 43.066406 30.664062 43.300781 30.890625 C 43.457031 31.152344 43.457031 31.152344 43.449219 31.507812 C 43.332031 31.9375 43.332031 31.9375 43.066406 32.128906 C 42.800781 32.167969 42.800781 32.167969 42.472656 32.167969 C 42.347656 32.167969 42.226562 32.167969 42.097656 32.167969 C 41.960938 32.167969 41.820312 32.167969 41.683594 32.167969 C 41.539062 32.167969 41.394531 32.167969 41.25 32.171875 C 40.855469 32.171875 40.460938 32.171875 40.070312 32.171875 C 39.742188 32.171875 39.410156 32.171875 39.082031 32.171875 C 38.308594 32.171875 37.535156 32.171875 36.761719 32.171875 C 35.960938 32.171875 35.160156 32.171875 34.359375 32.175781 C 33.675781 32.175781 32.988281 32.179688 32.304688 32.175781 C 31.894531 32.175781 31.484375 32.175781 31.074219 32.179688 C 30.6875 32.179688 30.300781 32.179688 29.917969 32.179688 C 29.777344 32.179688 29.632812 32.179688 29.492188 32.179688 C 29.300781 32.179688 29.105469 32.179688 28.914062 32.179688 C 28.804688 32.179688 28.695312 32.179688 28.585938 32.179688 C 28.320312 32.128906 28.320312 32.128906 28.140625 31.953125 C 27.972656 31.636719 27.984375 31.40625 28.027344 31.054688 C 28.324219 30.660156 28.539062 30.613281 29.019531 30.613281 Z M 29.019531 30.613281 "/>
<path style=" stroke:none;fill-rule:nonzero;fill:white;fill-opacity:1;" d="M 34.933594 27.410156 C 35.0625 27.410156 35.0625 27.410156 35.199219 27.410156 C 35.484375 27.40625 35.773438 27.40625 36.0625 27.40625 C 36.261719 27.402344 36.460938 27.402344 36.664062 27.402344 C 37.082031 27.402344 37.5 27.398438 37.921875 27.398438 C 38.460938 27.398438 38.996094 27.394531 39.535156 27.390625 C 39.949219 27.386719 40.363281 27.386719 40.773438 27.386719 C 40.972656 27.386719 41.171875 27.386719 41.371094 27.382812 C 41.648438 27.382812 41.925781 27.382812 42.203125 27.382812 C 42.285156 27.382812 42.367188 27.378906 42.449219 27.378906 C 42.851562 27.382812 43.007812 27.390625 43.316406 27.667969 C 43.507812 28.023438 43.464844 28.226562 43.359375 28.613281 C 43.175781 28.867188 43.078125 28.902344 42.773438 29.003906 C 42.503906 29.015625 42.238281 29.019531 41.96875 29.019531 C 41.886719 29.019531 41.804688 29.019531 41.71875 29.019531 C 41.445312 29.023438 41.175781 29.023438 40.902344 29.023438 C 40.714844 29.023438 40.527344 29.023438 40.335938 29.027344 C 39.941406 29.027344 39.542969 29.027344 39.148438 29.027344 C 38.640625 29.027344 38.132812 29.03125 37.625 29.03125 C 37.234375 29.035156 36.84375 29.035156 36.453125 29.035156 C 36.269531 29.035156 36.082031 29.035156 35.894531 29.039062 C 35.632812 29.039062 35.371094 29.039062 35.109375 29.039062 C 35.03125 29.039062 34.953125 29.039062 34.875 29.042969 C 34.429688 29.039062 34.136719 28.992188 33.789062 28.710938 C 33.625 28.382812 33.570312 28.214844 33.660156 27.855469 C 33.960938 27.34375 34.40625 27.410156 34.933594 27.410156 Z M 34.933594 27.410156 "/>
<path style=" stroke:none;fill-rule:nonzero;fill:white;fill-opacity:1;" d="M 7.800781 23.777344 C 7.917969 23.773438 8.035156 23.773438 8.152344 23.769531 C 8.277344 23.773438 8.402344 23.773438 8.53125 23.773438 C 8.660156 23.773438 8.789062 23.773438 8.921875 23.769531 C 9.195312 23.769531 9.464844 23.769531 9.738281 23.773438 C 10.085938 23.773438 10.433594 23.769531 10.78125 23.769531 C 11.113281 23.765625 11.445312 23.765625 11.78125 23.765625 C 11.90625 23.765625 12.03125 23.765625 12.160156 23.761719 C 12.273438 23.765625 12.390625 23.765625 12.511719 23.765625 C 12.613281 23.765625 12.714844 23.765625 12.820312 23.765625 C 13.085938 23.828125 13.085938 23.828125 13.316406 24.054688 C 13.476562 24.316406 13.476562 24.316406 13.46875 24.671875 C 13.382812 24.984375 13.34375 25.105469 13.085938 25.292969 C 12.835938 25.417969 12.65625 25.40625 12.375 25.40625 C 12.265625 25.40625 12.160156 25.410156 12.046875 25.410156 C 11.871094 25.410156 11.871094 25.410156 11.691406 25.410156 C 11.574219 25.410156 11.453125 25.410156 11.328125 25.414062 C 11.074219 25.414062 10.820312 25.414062 10.566406 25.414062 C 10.175781 25.414062 9.789062 25.417969 9.398438 25.421875 C 9.152344 25.421875 8.90625 25.421875 8.660156 25.421875 C 8.484375 25.425781 8.484375 25.425781 8.304688 25.425781 C 8.195312 25.425781 8.089844 25.425781 7.976562 25.425781 C 7.832031 25.425781 7.832031 25.425781 7.6875 25.425781 C 7.371094 25.382812 7.1875 25.28125 6.933594 25.097656 C 6.78125 24.796875 6.808594 24.550781 6.835938 24.21875 C 7.125 23.835938 7.332031 23.777344 7.800781 23.777344 Z M 7.800781 23.777344 "/>
<path style=" stroke:none;fill-rule:nonzero;fill:white;fill-opacity:1;" d="M 12.695312 34.515625 C 12.757812 34.511719 12.824219 34.511719 12.890625 34.507812 C 13.226562 34.613281 13.308594 34.746094 13.476562 35.058594 C 13.53125 35.46875 13.523438 35.871094 13.511719 36.285156 C 13.511719 36.394531 13.511719 36.507812 13.511719 36.621094 C 13.503906 37.539062 13.503906 37.539062 13.28125 37.890625 C 13.019531 38.09375 12.878906 38.085938 12.542969 38.074219 C 12.207031 37.988281 12.207031 37.988281 12.042969 37.824219 C 11.78125 37.363281 11.867188 36.796875 11.871094 36.28125 C 11.871094 36.160156 11.867188 36.039062 11.867188 35.914062 C 11.867188 35.796875 11.867188 35.679688 11.867188 35.5625 C 11.867188 35.457031 11.867188 35.351562 11.863281 35.242188 C 11.945312 34.777344 12.222656 34.515625 12.695312 34.515625 Z M 12.695312 34.515625 "/>
</g>
</svg>
