<?xml version="1.0" encoding="UTF-8" standalone="no"?>
<svg width="39px" height="64px" viewBox="0 0 39 64" version="1.1" xmlns="http://www.w3.org/2000/svg" xmlns:xlink="http://www.w3.org/1999/xlink" xmlns:sketch="http://www.bohemiancoding.com/sketch/ns">
    <!-- Generator: Sketch 3.4.3 (16618) - http://www.bohemiancoding.com/sketch -->
    <title>Artboard 9</title>
    <desc>Created with Sketch.</desc>
    <defs></defs>
    <g id="Homepage" stroke="none" stroke-width="1" fill="none" fill-rule="evenodd" sketch:type="MSPage">
        <g id="Artboard-9" sketch:type="MSArtboardGroup">
            <path d="M19.36771,61.413394 C19.36771,61.413394 37.7354201,29.1336371 37.7354201,19.1240182 C37.7354201,9.11439934 29.5119162,1 19.36771,1 C9.22350389,1 1,9.11439934 1,19.1240182 C1,29.1336371 19.36771,61.413394 19.36771,61.413394 Z" id="Oval-696" stroke="#2990EA" stroke-width="2" fill="#FFFFFF" sketch:type="MSShapeGroup"></path>
            <path d="M19.9602168,37.7218669 C19.9602168,37.7218669 23.2812506,31.8091266 26.2168778,25.5594333 C28.5419945,20.6094633 30.6253388,15.4481166 30.6253388,12.8457635 C30.6253388,6.95775244 25.850401,2.18457635 19.9602168,2.18457635 C14.0700326,2.18457635 9.29509485,6.95775244 9.29509485,12.8457635 C9.29509485,18.7337746 19.9602168,37.7218669 19.9602168,37.7218669 Z" id="Oval-696" fill="#E0F0FF" sketch:type="MSShapeGroup"></path>
        </g>
    </g>
</svg>