<?xml version="1.0" encoding="UTF-8"?>
<svg xmlns="http://www.w3.org/2000/svg" xmlns:xlink="http://www.w3.org/1999/xlink" width="50px" height="50px" viewBox="0 0 50 50" version="1.1">
<g id="surface1">
<path style=" stroke:none;fill-rule:nonzero;fill:white;fill-opacity:1;" d="M 2.507812 9.140625 C 2.621094 9.140625 2.621094 9.140625 2.738281 9.140625 C 2.996094 9.140625 3.257812 9.140625 3.515625 9.140625 C 3.699219 9.140625 3.886719 9.140625 4.070312 9.136719 C 4.574219 9.136719 5.078125 9.136719 5.582031 9.136719 C 6 9.136719 6.421875 9.136719 6.839844 9.136719 C 7.832031 9.136719 8.820312 9.136719 9.8125 9.136719 C 10.832031 9.136719 11.855469 9.136719 12.878906 9.132812 C 13.753906 9.132812 14.632812 9.128906 15.511719 9.132812 C 16.035156 9.132812 16.558594 9.132812 17.082031 9.128906 C 17.574219 9.128906 18.066406 9.128906 18.5625 9.128906 C 18.742188 9.128906 18.921875 9.128906 19.105469 9.128906 C 19.351562 9.128906 19.597656 9.128906 19.84375 9.128906 C 19.953125 9.128906 19.953125 9.128906 20.0625 9.128906 C 20.390625 9.132812 20.574219 9.160156 20.84375 9.355469 C 21.082031 9.691406 21.050781 10.039062 21.046875 10.433594 C 21.046875 10.566406 21.046875 10.566406 21.046875 10.699219 C 21.046875 10.988281 21.046875 11.273438 21.042969 11.5625 C 21.042969 11.761719 21.042969 11.964844 21.046875 12.164062 C 21.046875 12.582031 21.042969 13.003906 21.042969 13.421875 C 21.039062 13.960938 21.039062 14.5 21.039062 15.035156 C 21.042969 15.449219 21.039062 15.863281 21.039062 16.277344 C 21.039062 16.476562 21.039062 16.671875 21.039062 16.871094 C 21.039062 17.148438 21.039062 17.425781 21.035156 17.703125 C 21.035156 17.828125 21.035156 17.828125 21.035156 17.953125 C 21.03125 18.511719 21.03125 18.511719 20.867188 18.71875 C 20.476562 19.027344 20.015625 18.957031 19.546875 18.953125 C 19.472656 18.953125 19.398438 18.953125 19.324219 18.953125 C 19.042969 18.953125 18.765625 18.953125 18.488281 18.953125 C 17.863281 18.949219 17.242188 18.949219 16.601562 18.945312 C 16.601562 21.363281 16.601562 23.777344 16.601562 26.269531 C 17.140625 25.730469 17.183594 25.664062 17.261719 24.96875 C 17.363281 24.257812 17.363281 24.257812 17.628906 24 C 18.148438 23.632812 18.6875 23.707031 19.300781 23.703125 C 19.503906 23.699219 19.707031 23.695312 19.914062 23.691406 C 20.042969 23.691406 20.175781 23.691406 20.304688 23.6875 C 20.484375 23.6875 20.484375 23.6875 20.664062 23.683594 C 21.0625 23.738281 21.269531 23.871094 21.582031 24.121094 C 21.777344 24.4375 21.789062 24.730469 21.8125 25.089844 C 21.855469 25.550781 21.9375 25.828125 22.265625 26.171875 C 22.632812 26.390625 22.960938 26.460938 23.390625 26.476562 C 23.804688 26.34375 24.027344 26.140625 24.335938 25.839844 C 24.582031 25.621094 24.796875 25.585938 25.117188 25.535156 C 25.667969 25.609375 25.882812 25.886719 26.269531 26.269531 C 26.394531 26.382812 26.515625 26.5 26.640625 26.613281 C 26.777344 26.742188 26.910156 26.867188 27.042969 26.996094 C 27.144531 27.085938 27.144531 27.085938 27.246094 27.179688 C 27.554688 27.484375 27.769531 27.710938 27.835938 28.148438 C 27.832031 28.632812 27.832031 28.632812 27.667969 28.875 C 27.632812 28.929688 27.59375 28.984375 27.558594 29.042969 C 27.394531 29.261719 27.226562 29.476562 27.050781 29.6875 C 26.878906 30.03125 26.972656 30.398438 27.050781 30.761719 C 27.214844 31.085938 27.335938 31.285156 27.648438 31.476562 C 27.910156 31.539062 28.144531 31.5625 28.410156 31.578125 C 28.867188 31.621094 29.148438 31.710938 29.492188 32.03125 C 29.765625 32.601562 29.71875 33.214844 29.71875 33.832031 C 29.71875 33.941406 29.722656 34.046875 29.722656 34.160156 C 29.722656 34.84375 29.714844 35.40625 29.21875 35.925781 C 28.9375 36.066406 28.695312 36.089844 28.382812 36.121094 C 27.808594 36.199219 27.527344 36.28125 27.148438 36.71875 C 26.914062 37.082031 26.921875 37.433594 26.976562 37.851562 C 27.117188 38.296875 27.433594 38.617188 27.734375 38.964844 C 27.875 39.246094 27.863281 39.433594 27.832031 39.746094 C 27.519531 40.300781 27.082031 40.734375 26.636719 41.1875 C 26.566406 41.261719 26.492188 41.335938 26.421875 41.414062 C 25.964844 41.875 25.652344 42.113281 25 42.1875 C 24.476562 42.035156 24.195312 41.792969 23.828125 41.40625 C 23.363281 41.25 22.992188 41.253906 22.535156 41.4375 C 22.214844 41.628906 22.214844 41.628906 21.972656 41.894531 C 21.90625 42.222656 21.859375 42.542969 21.820312 42.871094 C 21.8125 42.941406 21.800781 43.007812 21.789062 43.078125 C 21.785156 43.140625 21.777344 43.199219 21.769531 43.261719 C 21.625 43.578125 21.386719 43.773438 21.09375 43.945312 C 20.75 44.007812 20.75 44.007812 20.375 44.011719 C 20.304688 44.011719 20.238281 44.011719 20.171875 44.011719 C 20.027344 44.011719 19.886719 44.011719 19.746094 44.007812 C 19.53125 44.007812 19.316406 44.007812 19.101562 44.011719 C 18.964844 44.011719 18.828125 44.011719 18.6875 44.011719 C 18.503906 44.007812 18.503906 44.007812 18.3125 44.007812 C 17.859375 43.925781 17.703125 43.789062 17.382812 43.457031 C 17.292969 43.121094 17.25 42.816406 17.21875 42.46875 C 17.167969 42.085938 17.097656 41.859375 16.804688 41.609375 C 16.363281 41.3125 16.054688 41.273438 15.527344 41.308594 C 15.214844 41.453125 15.007812 41.628906 14.753906 41.859375 C 14.425781 42.109375 14.277344 42.1875 13.867188 42.1875 C 13.414062 42.050781 13.246094 41.976562 12.957031 41.59375 C 12.648438 41.277344 12.386719 41.261719 11.953125 41.238281 C 11.691406 41.238281 11.429688 41.238281 11.164062 41.242188 C 11.023438 41.242188 10.882812 41.242188 10.742188 41.242188 C 10.375 41.242188 10.007812 41.242188 9.636719 41.246094 C 9.046875 41.25 8.457031 41.25 7.863281 41.25 C 7.660156 41.25 7.453125 41.253906 7.246094 41.253906 C 7.121094 41.253906 6.996094 41.253906 6.867188 41.253906 C 6.757812 41.253906 6.648438 41.257812 6.535156 41.257812 C 6.167969 41.199219 6.078125 41.121094 5.859375 40.820312 C 5.800781 40.527344 5.808594 40.238281 5.8125 39.941406 C 5.8125 39.851562 5.8125 39.761719 5.8125 39.671875 C 5.8125 39.371094 5.8125 39.070312 5.816406 38.769531 C 5.816406 38.550781 5.816406 38.335938 5.816406 38.121094 C 5.816406 37.535156 5.816406 36.949219 5.820312 36.363281 C 5.820312 35.75 5.824219 35.140625 5.824219 34.527344 C 5.824219 33.5 5.828125 32.472656 5.828125 31.445312 C 5.832031 30.386719 5.835938 29.328125 5.839844 28.269531 C 5.839844 28.203125 5.839844 28.140625 5.839844 28.070312 C 5.839844 27.746094 5.839844 27.417969 5.839844 27.089844 C 5.84375 24.375 5.851562 21.660156 5.859375 18.945312 C 5.742188 18.945312 5.628906 18.949219 5.507812 18.949219 C 5.078125 18.957031 4.648438 18.957031 4.21875 18.960938 C 4.03125 18.960938 3.84375 18.964844 3.660156 18.96875 C 3.390625 18.972656 3.125 18.972656 2.855469 18.972656 C 2.773438 18.976562 2.6875 18.976562 2.605469 18.976562 C 2.152344 18.980469 1.820312 18.964844 1.464844 18.652344 C 1.414062 18.34375 1.398438 18.089844 1.40625 17.78125 C 1.402344 17.691406 1.402344 17.601562 1.402344 17.511719 C 1.402344 17.214844 1.40625 16.921875 1.40625 16.625 C 1.40625 16.421875 1.40625 16.214844 1.40625 16.011719 C 1.40625 15.582031 1.410156 15.152344 1.410156 14.722656 C 1.414062 14.171875 1.417969 13.621094 1.414062 13.070312 C 1.414062 12.648438 1.417969 12.226562 1.417969 11.804688 C 1.417969 11.601562 1.417969 11.398438 1.417969 11.195312 C 1.417969 10.910156 1.421875 10.628906 1.425781 10.34375 C 1.421875 10.257812 1.421875 10.175781 1.421875 10.089844 C 1.429688 9.527344 1.429688 9.527344 1.566406 9.304688 C 1.863281 9.113281 2.164062 9.140625 2.507812 9.140625 Z M 2.636719 10.449219 C 2.636719 12.832031 2.636719 15.21875 2.636719 17.675781 C 3.992188 17.675781 5.34375 17.675781 6.738281 17.675781 C 6.738281 15.289062 6.738281 12.90625 6.738281 10.449219 C 5.386719 10.449219 4.03125 10.449219 2.636719 10.449219 Z M 8.007812 10.449219 C 8.007812 12.832031 8.007812 15.21875 8.007812 17.675781 C 10.101562 17.675781 12.199219 17.675781 14.355469 17.675781 C 14.355469 15.289062 14.355469 12.90625 14.355469 10.449219 C 12.261719 10.449219 10.167969 10.449219 8.007812 10.449219 Z M 15.625 10.449219 C 15.625 12.832031 15.625 15.21875 15.625 17.675781 C 16.980469 17.675781 18.332031 17.675781 19.726562 17.675781 C 19.726562 15.289062 19.726562 12.90625 19.726562 10.449219 C 18.375 10.449219 17.019531 10.449219 15.625 10.449219 Z M 7.128906 18.945312 C 7.128906 19.136719 7.128906 19.332031 7.128906 19.53125 C 9 20.054688 10.871094 20.574219 12.746094 21.074219 C 12.945312 21.128906 13.140625 21.179688 13.339844 21.234375 C 13.617188 21.308594 13.894531 21.382812 14.171875 21.457031 C 14.257812 21.480469 14.339844 21.503906 14.425781 21.527344 C 14.539062 21.554688 14.539062 21.554688 14.65625 21.585938 C 14.726562 21.605469 14.792969 21.625 14.859375 21.640625 C 15.054688 21.691406 15.054688 21.691406 15.332031 21.679688 C 15.332031 20.777344 15.332031 19.875 15.332031 18.945312 C 12.625 18.945312 9.917969 18.945312 7.128906 18.945312 Z M 7.128906 20.898438 C 7.128906 21.605469 7.128906 22.316406 7.128906 23.046875 C 7.667969 23.226562 8.191406 23.394531 8.738281 23.542969 C 8.804688 23.5625 8.871094 23.578125 8.941406 23.597656 C 9.160156 23.65625 9.378906 23.714844 9.597656 23.773438 C 9.75 23.816406 9.902344 23.855469 10.054688 23.898438 C 10.375 23.984375 10.695312 24.070312 11.015625 24.15625 C 11.425781 24.265625 11.832031 24.375 12.242188 24.484375 C 12.558594 24.570312 12.875 24.65625 13.191406 24.738281 C 13.339844 24.777344 13.492188 24.820312 13.644531 24.859375 C 13.851562 24.917969 14.0625 24.972656 14.273438 25.03125 C 14.394531 25.0625 14.515625 25.09375 14.636719 25.125 C 14.953125 25.210938 14.953125 25.210938 15.332031 25.195312 C 15.332031 24.484375 15.332031 23.777344 15.332031 23.046875 C 14.3125 22.722656 13.296875 22.421875 12.261719 22.148438 C 12.125 22.109375 11.988281 22.074219 11.851562 22.039062 C 11.570312 21.960938 11.285156 21.886719 11.003906 21.8125 C 10.640625 21.714844 10.277344 21.621094 9.914062 21.523438 C 9.632812 21.449219 9.351562 21.371094 9.070312 21.296875 C 8.9375 21.261719 8.804688 21.226562 8.671875 21.191406 C 8.484375 21.140625 8.296875 21.09375 8.113281 21.042969 C 8.007812 21.015625 7.902344 20.988281 7.792969 20.957031 C 7.503906 20.882812 7.503906 20.882812 7.128906 20.898438 Z M 7.128906 24.414062 C 7.128906 25.15625 7.128906 25.894531 7.128906 26.660156 C 7.691406 26.816406 8.253906 26.972656 8.816406 27.125 C 9.007812 27.175781 9.203125 27.230469 9.394531 27.28125 C 9.667969 27.359375 9.941406 27.433594 10.21875 27.507812 C 10.304688 27.53125 10.390625 27.558594 10.476562 27.582031 C 10.597656 27.613281 10.597656 27.613281 10.722656 27.648438 C 10.792969 27.667969 10.863281 27.683594 10.933594 27.707031 C 11.160156 27.738281 11.308594 27.714844 11.523438 27.636719 C 11.71875 27.480469 11.71875 27.480469 11.902344 27.285156 C 11.972656 27.214844 12.042969 27.144531 12.113281 27.074219 C 12.183594 27 12.253906 26.925781 12.328125 26.847656 C 12.402344 26.773438 12.476562 26.703125 12.550781 26.625 C 12.730469 26.441406 12.90625 26.257812 13.085938 26.074219 C 12.847656 25.835938 12.691406 25.808594 12.371094 25.722656 C 12.261719 25.691406 12.152344 25.664062 12.042969 25.632812 C 11.867188 25.585938 11.867188 25.585938 11.6875 25.539062 C 11.566406 25.507812 11.445312 25.476562 11.320312 25.441406 C 11.066406 25.375 10.8125 25.304688 10.554688 25.238281 C 10.226562 25.152344 9.902344 25.066406 9.574219 24.976562 C 9.261719 24.894531 8.953125 24.808594 8.640625 24.726562 C 8.523438 24.695312 8.40625 24.664062 8.285156 24.632812 C 8.175781 24.605469 8.066406 24.574219 7.953125 24.546875 C 7.859375 24.519531 7.761719 24.496094 7.664062 24.46875 C 7.414062 24.402344 7.414062 24.402344 7.128906 24.414062 Z M 18.554688 25 C 18.527344 25.164062 18.503906 25.332031 18.476562 25.5 C 18.316406 26.359375 17.992188 26.828125 17.304688 27.363281 C 16.59375 27.765625 15.929688 27.796875 15.136719 27.636719 C 14.859375 27.53125 14.609375 27.402344 14.355469 27.246094 C 14.195312 27.148438 14.035156 27.050781 13.867188 26.953125 C 13.449219 27.371094 13.03125 27.789062 12.597656 28.222656 C 12.691406 28.355469 12.78125 28.488281 12.878906 28.625 C 13.320312 29.292969 13.472656 29.867188 13.378906 30.664062 C 13.171875 31.453125 12.910156 32.050781 12.199219 32.488281 C 11.699219 32.753906 11.207031 32.832031 10.644531 32.910156 C 10.644531 33.554688 10.644531 34.199219 10.644531 34.863281 C 10.820312 34.886719 11 34.90625 11.183594 34.929688 C 11.871094 35.046875 12.320312 35.277344 12.816406 35.761719 C 13.253906 36.460938 13.507812 37.15625 13.378906 37.988281 C 13.226562 38.503906 13.03125 38.933594 12.695312 39.355469 C 12.851562 39.738281 13.097656 39.972656 13.390625 40.257812 C 13.480469 40.347656 13.570312 40.433594 13.660156 40.523438 C 13.730469 40.589844 13.796875 40.65625 13.867188 40.722656 C 14.175781 40.570312 14.472656 40.402344 14.765625 40.226562 C 15.351562 39.929688 16.128906 39.9375 16.75 40.105469 C 17.527344 40.425781 18.050781 40.871094 18.386719 41.648438 C 18.480469 41.980469 18.511719 42.332031 18.554688 42.675781 C 19.199219 42.675781 19.84375 42.675781 20.507812 42.675781 C 20.53125 42.515625 20.550781 42.351562 20.574219 42.1875 C 20.703125 41.488281 20.96875 41.050781 21.460938 40.546875 C 22.167969 40.070312 22.886719 39.945312 23.730469 40.039062 C 24.238281 40.15625 24.609375 40.371094 25 40.722656 C 25.382812 40.566406 25.617188 40.320312 25.902344 40.027344 C 25.992188 39.9375 26.078125 39.847656 26.167969 39.757812 C 26.234375 39.6875 26.300781 39.621094 26.367188 39.550781 C 26.253906 39.257812 26.136719 38.984375 25.96875 38.714844 C 25.625 38.097656 25.570312 37.441406 25.75 36.753906 C 26.019531 36.027344 26.371094 35.464844 27.082031 35.121094 C 27.539062 34.917969 27.878906 34.921875 28.417969 34.863281 C 28.417969 34.21875 28.417969 33.574219 28.417969 32.910156 C 28.105469 32.855469 28.105469 32.855469 27.785156 32.800781 C 27.160156 32.664062 26.691406 32.519531 26.269531 32.03125 C 25.777344 31.25 25.539062 30.472656 25.730469 29.558594 C 25.898438 29.003906 26.101562 28.734375 26.464844 28.222656 C 26.046875 27.804688 25.628906 27.382812 25.195312 26.953125 C 25.050781 27.046875 24.90625 27.136719 24.757812 27.234375 C 23.949219 27.710938 23.292969 27.824219 22.363281 27.636719 C 21.691406 27.40625 21.183594 26.96875 20.800781 26.367188 C 20.609375 25.894531 20.574219 25.527344 20.507812 25 C 19.863281 25 19.21875 25 18.554688 25 Z M 7.128906 27.929688 C 7.128906 28.671875 7.128906 29.410156 7.128906 30.175781 C 7.734375 30.34375 8.339844 30.515625 8.941406 30.683594 C 9.148438 30.738281 9.355469 30.796875 9.558594 30.855469 C 9.855469 30.9375 10.152344 31.019531 10.449219 31.101562 C 10.539062 31.128906 10.632812 31.152344 10.726562 31.179688 C 10.8125 31.203125 10.898438 31.226562 10.988281 31.25 C 11.0625 31.273438 11.136719 31.292969 11.214844 31.316406 C 11.449219 31.351562 11.59375 31.332031 11.816406 31.25 C 12.066406 30.925781 12.191406 30.5625 12.257812 30.164062 C 12.179688 29.71875 11.980469 29.417969 11.617188 29.148438 C 11.226562 28.953125 10.832031 28.851562 10.410156 28.742188 C 10.324219 28.71875 10.234375 28.695312 10.144531 28.667969 C 9.960938 28.621094 9.777344 28.570312 9.589844 28.523438 C 9.308594 28.449219 9.023438 28.371094 8.742188 28.296875 C 8.5625 28.25 8.382812 28.203125 8.203125 28.15625 C 8.074219 28.121094 8.074219 28.121094 7.945312 28.085938 C 7.828125 28.054688 7.828125 28.054688 7.707031 28.023438 C 7.636719 28.003906 7.566406 27.988281 7.496094 27.96875 C 7.320312 27.921875 7.320312 27.921875 7.128906 27.929688 Z M 7.128906 31.445312 C 7.128906 32.1875 7.128906 32.925781 7.128906 33.691406 C 7.464844 33.789062 7.796875 33.882812 8.140625 33.984375 C 8.246094 34.015625 8.351562 34.046875 8.460938 34.078125 C 8.542969 34.101562 8.625 34.125 8.710938 34.148438 C 8.796875 34.171875 8.882812 34.199219 8.96875 34.222656 C 9.175781 34.285156 9.175781 34.285156 9.375 34.277344 C 9.382812 34.105469 9.382812 34.105469 9.394531 33.929688 C 9.402344 33.78125 9.410156 33.628906 9.417969 33.476562 C 9.421875 33.402344 9.425781 33.328125 9.429688 33.25 C 9.433594 33.175781 9.4375 33.105469 9.441406 33.027344 C 9.445312 32.960938 9.449219 32.894531 9.453125 32.824219 C 9.476562 32.589844 9.519531 32.359375 9.570312 32.128906 C 9.183594 32.015625 8.792969 31.902344 8.40625 31.785156 C 8.238281 31.738281 8.238281 31.738281 8.066406 31.6875 C 7.960938 31.65625 7.855469 31.625 7.75 31.59375 C 7.652344 31.566406 7.554688 31.539062 7.453125 31.507812 C 7.25 31.441406 7.25 31.441406 7.128906 31.445312 Z M 7.128906 35.058594 C 7.128906 35.765625 7.128906 36.476562 7.128906 37.207031 C 7.730469 37.4375 7.730469 37.4375 8.335938 37.625 C 8.40625 37.644531 8.480469 37.664062 8.558594 37.683594 C 8.671875 37.714844 8.671875 37.714844 8.789062 37.746094 C 8.867188 37.765625 8.949219 37.789062 9.03125 37.8125 C 9.199219 37.855469 9.371094 37.898438 9.539062 37.945312 C 9.796875 38.011719 10.054688 38.082031 10.3125 38.152344 C 10.480469 38.195312 10.644531 38.238281 10.808594 38.28125 C 10.886719 38.304688 10.960938 38.324219 11.042969 38.347656 C 11.476562 38.464844 11.476562 38.464844 11.914062 38.378906 C 12.207031 37.960938 12.253906 37.625 12.175781 37.132812 C 12.054688 36.742188 11.847656 36.476562 11.523438 36.230469 C 11.265625 36.121094 11.015625 36.078125 10.742188 36.035156 C 10.582031 36.003906 10.425781 35.972656 10.265625 35.9375 C 10.195312 35.921875 10.121094 35.910156 10.046875 35.894531 C 9.863281 35.839844 9.863281 35.839844 9.667969 35.644531 C 9.4375 35.5625 9.4375 35.5625 9.167969 35.496094 C 9.070312 35.472656 8.96875 35.445312 8.867188 35.417969 C 8.761719 35.394531 8.660156 35.367188 8.550781 35.339844 C 8.445312 35.3125 8.34375 35.285156 8.238281 35.257812 C 7.6875 35.109375 7.6875 35.109375 7.128906 35.058594 Z M 7.128906 38.574219 C 7.128906 39.023438 7.128906 39.476562 7.128906 39.941406 C 8.515625 39.941406 9.902344 39.941406 11.328125 39.941406 C 11.28125 39.796875 11.28125 39.796875 11.230469 39.648438 C 11.054688 39.5625 11.054688 39.5625 10.835938 39.507812 C 10.753906 39.484375 10.671875 39.460938 10.585938 39.4375 C 10.496094 39.414062 10.40625 39.390625 10.316406 39.367188 C 10.222656 39.34375 10.132812 39.316406 10.039062 39.292969 C 9.753906 39.214844 9.464844 39.136719 9.179688 39.0625 C 9 39.015625 8.816406 38.964844 8.636719 38.914062 C 7.890625 38.679688 7.890625 38.679688 7.128906 38.574219 Z M 7.128906 38.574219 "/>
<path style=" stroke:none;fill-rule:nonzero;fill:white;fill-opacity:1;" d="M 47.902344 19.976562 C 48.304688 20.367188 48.527344 20.777344 48.546875 21.34375 C 48.550781 21.488281 48.550781 21.636719 48.550781 21.785156 C 48.550781 21.867188 48.550781 21.949219 48.550781 22.03125 C 48.554688 22.304688 48.554688 22.578125 48.554688 22.851562 C 48.554688 23.050781 48.558594 23.246094 48.558594 23.441406 C 48.5625 24.085938 48.5625 24.730469 48.566406 25.375 C 48.566406 25.484375 48.566406 25.59375 48.566406 25.707031 C 48.570312 26.738281 48.570312 27.773438 48.574219 28.804688 C 48.574219 30.128906 48.578125 31.449219 48.585938 32.769531 C 48.589844 33.699219 48.59375 34.628906 48.59375 35.558594 C 48.59375 36.113281 48.597656 36.667969 48.601562 37.222656 C 48.605469 37.746094 48.605469 38.269531 48.601562 38.792969 C 48.601562 38.984375 48.605469 39.175781 48.605469 39.367188 C 48.625 41.113281 48.625 41.113281 48.09375 41.75 C 48.023438 41.820312 48.023438 41.820312 47.949219 41.894531 C 47.882812 41.964844 47.816406 42.035156 47.746094 42.109375 C 45.664062 43.710938 42.699219 43.96875 40.160156 43.96875 C 40.082031 43.96875 40 43.96875 39.917969 43.96875 C 38.667969 43.96875 37.453125 43.917969 36.230469 43.652344 C 36.128906 43.628906 36.128906 43.628906 36.027344 43.609375 C 34.535156 43.273438 32.714844 42.761719 31.835938 41.40625 C 31.4375 40.535156 31.5 39.621094 31.503906 38.683594 C 31.503906 38.496094 31.503906 38.308594 31.503906 38.121094 C 31.503906 37.617188 31.503906 37.109375 31.503906 36.601562 C 31.503906 36.070312 31.503906 35.539062 31.503906 35.007812 C 31.503906 34.117188 31.503906 33.222656 31.503906 32.332031 C 31.507812 31.300781 31.503906 30.269531 31.503906 29.242188 C 31.503906 28.355469 31.503906 27.46875 31.503906 26.582031 C 31.503906 26.054688 31.503906 25.527344 31.503906 24.996094 C 31.503906 24.5 31.503906 24.003906 31.503906 23.507812 C 31.503906 23.324219 31.503906 23.144531 31.503906 22.960938 C 31.496094 20.761719 31.496094 20.761719 32.214844 19.996094 C 35.90625 16.921875 44.195312 16.972656 47.902344 19.976562 Z M 33.230469 20.859375 C 33.027344 21.089844 32.910156 21.289062 32.8125 21.582031 C 33.003906 22.203125 33.441406 22.457031 33.984375 22.753906 C 37.246094 24.363281 41.664062 24.320312 45.089844 23.222656 C 45.898438 22.925781 46.722656 22.570312 47.265625 21.875 C 47.339844 21.582031 47.339844 21.582031 47.265625 21.289062 C 46.40625 20.054688 44.644531 19.699219 43.253906 19.429688 C 40.410156 18.945312 35.535156 18.722656 33.230469 20.859375 Z M 32.8125 23.535156 C 32.765625 24.25 32.765625 24.25 32.953125 24.933594 C 34.429688 26.480469 37.023438 26.820312 39.066406 26.882812 C 39.398438 26.886719 39.726562 26.886719 40.058594 26.886719 C 40.128906 26.886719 40.195312 26.886719 40.269531 26.886719 C 42.542969 26.875 45.441406 26.683594 47.167969 25 C 47.445312 24.554688 47.382812 24.042969 47.363281 23.535156 C 47.257812 23.585938 47.15625 23.636719 47.046875 23.6875 C 43.289062 25.464844 38.34375 25.664062 34.417969 24.261719 C 33.867188 24.050781 33.339844 23.800781 32.8125 23.535156 Z M 45.898438 27.246094 C 45.898438 31.015625 45.898438 34.789062 45.898438 38.671875 C 46.34375 38.496094 46.34375 38.496094 46.742188 38.257812 C 46.796875 38.21875 46.851562 38.183594 46.910156 38.144531 C 47.273438 37.792969 47.382812 37.410156 47.398438 36.917969 C 47.398438 36.722656 47.398438 36.527344 47.398438 36.332031 C 47.398438 36.226562 47.398438 36.117188 47.398438 36.007812 C 47.394531 35.65625 47.394531 35.304688 47.390625 34.953125 C 47.390625 34.707031 47.390625 34.464844 47.390625 34.21875 C 47.390625 33.640625 47.386719 33.066406 47.382812 32.488281 C 47.378906 31.765625 47.378906 31.046875 47.378906 30.324219 C 47.375 29.039062 47.371094 27.75 47.363281 26.464844 C 46.808594 26.464844 46.378906 26.972656 45.898438 27.246094 Z M 32.8125 26.5625 C 32.804688 27.964844 32.800781 29.367188 32.796875 30.773438 C 32.796875 31.421875 32.792969 32.074219 32.789062 32.726562 C 32.789062 33.355469 32.785156 33.984375 32.785156 34.613281 C 32.785156 34.851562 32.78125 35.09375 32.78125 35.332031 C 32.78125 35.667969 32.777344 36.003906 32.777344 36.339844 C 32.777344 36.441406 32.777344 36.539062 32.777344 36.640625 C 32.777344 37.164062 32.808594 37.539062 33.105469 37.988281 C 33.335938 38.199219 33.335938 38.199219 33.601562 38.367188 C 33.6875 38.425781 33.769531 38.484375 33.859375 38.542969 C 34.066406 38.6875 34.066406 38.6875 34.277344 38.671875 C 34.277344 34.902344 34.277344 31.132812 34.277344 27.246094 C 33.578125 26.777344 33.578125 26.777344 32.8125 26.5625 Z M 35.546875 27.636719 C 35.546875 31.4375 35.546875 35.242188 35.546875 39.160156 C 36.398438 39.46875 36.398438 39.46875 36.816406 39.453125 C 36.816406 35.617188 36.816406 31.78125 36.816406 27.832031 C 36.398438 27.765625 35.976562 27.703125 35.546875 27.636719 Z M 43.261719 27.832031 C 43.261719 31.667969 43.261719 35.503906 43.261719 39.453125 C 44.019531 39.382812 44.019531 39.382812 44.628906 39.160156 C 44.628906 35.359375 44.628906 31.554688 44.628906 27.636719 C 44.167969 27.636719 43.714844 27.75 43.261719 27.832031 Z M 38.085938 28.027344 C 38.085938 31.863281 38.085938 35.699219 38.085938 39.648438 C 38.761719 39.695312 38.761719 39.695312 39.453125 39.746094 C 39.453125 35.910156 39.453125 32.078125 39.453125 28.125 C 38.777344 28.078125 38.777344 28.078125 38.085938 28.027344 Z M 40.722656 28.125 C 40.722656 31.960938 40.722656 35.796875 40.722656 39.746094 C 41.351562 39.699219 41.351562 39.699219 41.992188 39.648438 C 41.992188 35.8125 41.992188 31.976562 41.992188 28.027344 C 41.566406 28.027344 41.144531 28.078125 40.722656 28.125 Z M 32.8125 39.355469 C 32.773438 40.039062 32.773438 40.039062 32.910156 40.703125 C 33.703125 41.574219 34.753906 41.953125 35.863281 42.253906 C 35.9375 42.273438 36.007812 42.292969 36.082031 42.316406 C 37.394531 42.652344 38.710938 42.710938 40.058594 42.707031 C 40.136719 42.707031 40.214844 42.707031 40.296875 42.707031 C 41.5 42.703125 42.671875 42.660156 43.847656 42.382812 C 43.921875 42.367188 43.992188 42.347656 44.066406 42.332031 C 45.214844 42.054688 46.597656 41.671875 47.265625 40.625 C 47.363281 40.332031 47.375 40.132812 47.371094 39.824219 C 47.367188 39.738281 47.367188 39.648438 47.367188 39.558594 C 47.367188 39.492188 47.363281 39.425781 47.363281 39.355469 C 47.277344 39.398438 47.191406 39.441406 47.101562 39.488281 C 43.441406 41.292969 38.578125 41.496094 34.71875 40.191406 C 34.0625 39.957031 33.425781 39.6875 32.8125 39.355469 Z M 32.8125 39.355469 "/>
<path style=" stroke:none;fill-rule:nonzero;fill:white;fill-opacity:1;" d="M 33.789062 6.023438 C 33.914062 6.023438 34.042969 6.019531 34.171875 6.019531 C 34.292969 6.019531 34.414062 6.019531 34.539062 6.019531 C 34.707031 6.019531 34.707031 6.019531 34.875 6.019531 C 35.15625 6.054688 35.15625 6.054688 35.320312 6.171875 C 35.492188 6.402344 35.484375 6.539062 35.476562 6.824219 C 35.476562 6.917969 35.476562 7.007812 35.476562 7.101562 C 35.472656 7.199219 35.46875 7.292969 35.46875 7.390625 C 35.464844 7.535156 35.464844 7.535156 35.464844 7.683594 C 35.460938 7.921875 35.457031 8.160156 35.449219 8.398438 C 35.507812 8.398438 35.566406 8.398438 35.625 8.394531 C 36.238281 8.386719 36.851562 8.382812 37.460938 8.378906 C 37.691406 8.375 37.917969 8.371094 38.144531 8.367188 C 38.472656 8.363281 38.800781 8.363281 39.128906 8.359375 C 39.230469 8.359375 39.332031 8.355469 39.4375 8.355469 C 40.027344 8.355469 40.371094 8.390625 40.820312 8.789062 C 41.113281 9.199219 41.113281 9.199219 41.113281 9.472656 C 41.179688 9.46875 41.246094 9.46875 41.3125 9.464844 C 41.613281 9.457031 41.914062 9.453125 42.210938 9.449219 C 42.316406 9.445312 42.417969 9.441406 42.527344 9.4375 C 42.625 9.4375 42.726562 9.4375 42.828125 9.433594 C 42.921875 9.433594 43.015625 9.429688 43.109375 9.429688 C 43.441406 9.488281 43.550781 9.59375 43.75 9.863281 C 43.800781 10.097656 43.800781 10.097656 43.800781 10.359375 C 43.800781 10.5 43.800781 10.5 43.804688 10.640625 C 43.800781 10.738281 43.800781 10.835938 43.796875 10.9375 C 43.800781 11.082031 43.800781 11.082031 43.804688 11.234375 C 43.804688 11.328125 43.800781 11.421875 43.800781 11.515625 C 43.800781 11.601562 43.800781 11.6875 43.800781 11.777344 C 43.730469 12.09375 43.621094 12.210938 43.359375 12.402344 C 43.109375 12.445312 43.109375 12.445312 42.828125 12.441406 C 42.679688 12.4375 42.679688 12.4375 42.527344 12.4375 C 42.421875 12.433594 42.320312 12.429688 42.210938 12.425781 C 42.105469 12.425781 42 12.421875 41.894531 12.421875 C 41.632812 12.417969 41.375 12.410156 41.113281 12.402344 C 41.085938 12.492188 41.058594 12.585938 41.03125 12.679688 C 40.875 13.109375 40.703125 13.214844 40.332031 13.476562 C 40.046875 13.570312 39.785156 13.585938 39.484375 13.585938 C 39.394531 13.585938 39.304688 13.585938 39.210938 13.585938 C 39.117188 13.585938 39.019531 13.585938 38.921875 13.582031 C 38.820312 13.582031 38.722656 13.582031 38.621094 13.582031 C 38.304688 13.582031 37.988281 13.582031 37.671875 13.582031 C 37.457031 13.578125 37.242188 13.578125 37.027344 13.578125 C 36.5 13.578125 35.976562 13.578125 35.449219 13.574219 C 35.449219 13.632812 35.453125 13.691406 35.453125 13.75 C 35.460938 14.011719 35.464844 14.269531 35.46875 14.53125 C 35.46875 14.625 35.472656 14.714844 35.476562 14.808594 C 35.476562 14.894531 35.476562 14.980469 35.476562 15.070312 C 35.480469 15.152344 35.480469 15.230469 35.484375 15.316406 C 35.441406 15.578125 35.367188 15.660156 35.15625 15.820312 C 34.695312 15.972656 34.234375 15.941406 33.753906 15.941406 C 33.652344 15.945312 33.550781 15.945312 33.445312 15.949219 C 33.039062 15.949219 32.691406 15.941406 32.300781 15.820312 C 32.097656 15.589844 32.101562 15.515625 32.097656 15.214844 C 32.109375 15.09375 32.117188 14.96875 32.128906 14.84375 C 32.007812 14.847656 31.882812 14.851562 31.757812 14.859375 C 31.597656 14.859375 31.4375 14.863281 31.273438 14.867188 C 31.195312 14.871094 31.113281 14.875 31.03125 14.878906 C 30.4375 14.886719 30.4375 14.886719 30.121094 14.675781 C 29.957031 14.414062 29.96875 14.269531 29.980469 13.964844 C 29.875 13.964844 29.875 13.964844 29.769531 13.96875 C 29.113281 13.976562 28.457031 13.980469 27.800781 13.984375 C 27.460938 13.988281 27.125 13.988281 26.789062 13.996094 C 26.398438 14 26.011719 14 25.621094 14.003906 C 25.5 14.003906 25.382812 14.007812 25.257812 14.007812 C 24.601562 14.007812 24.148438 14 23.632812 13.574219 C 23.234375 13.050781 23.183594 12.632812 23.191406 11.988281 C 23.191406 11.90625 23.191406 11.820312 23.1875 11.734375 C 23.1875 11.558594 23.191406 11.378906 23.191406 11.203125 C 23.191406 10.933594 23.191406 10.660156 23.1875 10.390625 C 23.1875 10.21875 23.191406 10.046875 23.191406 9.871094 C 23.191406 9.792969 23.1875 9.710938 23.1875 9.628906 C 23.195312 9.109375 23.289062 8.8125 23.632812 8.398438 C 24.074219 8 24.371094 7.898438 24.957031 7.898438 C 25.070312 7.898438 25.179688 7.898438 25.296875 7.898438 C 25.417969 7.898438 25.535156 7.898438 25.660156 7.902344 C 25.785156 7.902344 25.90625 7.902344 26.035156 7.902344 C 26.359375 7.902344 26.6875 7.902344 27.015625 7.902344 C 27.347656 7.90625 27.683594 7.90625 28.015625 7.90625 C 28.671875 7.90625 29.324219 7.90625 29.980469 7.910156 C 30 7.742188 30 7.742188 30.015625 7.574219 C 30.039062 7.460938 30.058594 7.34375 30.078125 7.226562 C 30.308594 7.113281 30.441406 7.117188 30.699219 7.121094 C 30.824219 7.121094 30.824219 7.121094 30.949219 7.121094 C 31.035156 7.121094 31.125 7.121094 31.214844 7.121094 C 31.300781 7.125 31.386719 7.125 31.480469 7.125 C 31.695312 7.125 31.914062 7.125 32.128906 7.128906 C 32.125 7.039062 32.125 7.039062 32.117188 6.945312 C 32.117188 6.863281 32.113281 6.785156 32.109375 6.703125 C 32.105469 6.582031 32.105469 6.582031 32.101562 6.460938 C 32.109375 6.390625 32.121094 6.320312 32.128906 6.25 C 32.625 5.921875 33.207031 6.023438 33.789062 6.023438 Z M 33.398438 7.324219 C 33.398438 9.742188 33.398438 12.15625 33.398438 14.648438 C 33.65625 14.648438 33.914062 14.648438 34.179688 14.648438 C 34.179688 12.230469 34.179688 9.8125 34.179688 7.324219 C 33.921875 7.324219 33.664062 7.324219 33.398438 7.324219 Z M 31.25 8.300781 C 31.25 10.039062 31.25 11.78125 31.25 13.574219 C 31.539062 13.574219 31.828125 13.574219 32.128906 13.574219 C 32.128906 11.835938 32.128906 10.09375 32.128906 8.300781 C 31.839844 8.300781 31.546875 8.300781 31.25 8.300781 Z M 24.707031 9.179688 C 24.464844 9.421875 24.488281 9.558594 24.488281 9.886719 C 24.488281 9.957031 24.488281 10.023438 24.488281 10.09375 C 24.488281 10.167969 24.488281 10.238281 24.488281 10.3125 C 24.488281 10.460938 24.492188 10.609375 24.492188 10.761719 C 24.492188 10.992188 24.492188 11.222656 24.492188 11.453125 C 24.492188 11.597656 24.496094 11.746094 24.496094 11.890625 C 24.496094 11.960938 24.496094 12.027344 24.496094 12.101562 C 24.46875 12.425781 24.46875 12.425781 24.609375 12.695312 C 24.898438 12.695312 25.1875 12.695312 25.488281 12.695312 C 25.488281 11.535156 25.488281 10.375 25.488281 9.179688 C 25.230469 9.179688 24.972656 9.179688 24.707031 9.179688 Z M 26.757812 9.179688 C 26.757812 10.339844 26.757812 11.5 26.757812 12.695312 C 27.078125 12.695312 27.402344 12.695312 27.734375 12.695312 C 27.734375 11.535156 27.734375 10.375 27.734375 9.179688 C 27.414062 9.179688 27.089844 9.179688 26.757812 9.179688 Z M 29.003906 9.179688 C 29.003906 10.339844 29.003906 11.5 29.003906 12.695312 C 29.328125 12.695312 29.648438 12.695312 29.980469 12.695312 C 29.980469 11.535156 29.980469 10.375 29.980469 9.179688 C 29.65625 9.179688 29.335938 9.179688 29.003906 9.179688 Z M 35.449219 9.667969 C 35.449219 10.539062 35.449219 11.40625 35.449219 12.304688 C 36.058594 12.308594 36.667969 12.308594 37.28125 12.308594 C 37.488281 12.308594 37.695312 12.3125 37.902344 12.3125 C 38.199219 12.3125 38.5 12.3125 38.796875 12.3125 C 38.890625 12.316406 38.984375 12.316406 39.078125 12.316406 C 39.164062 12.316406 39.25 12.316406 39.339844 12.316406 C 39.417969 12.316406 39.492188 12.316406 39.570312 12.316406 C 39.75 12.324219 39.75 12.324219 39.84375 12.207031 C 39.851562 12.019531 39.855469 11.832031 39.851562 11.640625 C 39.851562 11.539062 39.851562 11.4375 39.851562 11.332031 C 39.851562 11.199219 39.851562 11.066406 39.851562 10.929688 C 39.847656 10.515625 39.847656 10.097656 39.84375 9.667969 C 38.394531 9.667969 36.945312 9.667969 35.449219 9.667969 Z M 41.113281 10.742188 C 41.113281 10.871094 41.113281 11 41.113281 11.132812 C 41.5625 11.132812 42.015625 11.132812 42.480469 11.132812 C 42.480469 11.003906 42.480469 10.875 42.480469 10.742188 C 42.03125 10.742188 41.578125 10.742188 41.113281 10.742188 Z M 41.113281 10.742188 "/>
<path style=" stroke:none;fill-rule:nonzero;fill:white;fill-opacity:1;" d="M 23.046875 29.863281 C 24.175781 30.960938 24.742188 32.328125 24.804688 33.886719 C 24.71875 35.503906 24.140625 36.746094 22.980469 37.871094 C 21.785156 38.898438 20.390625 39.15625 18.867188 39.082031 C 17.441406 38.953125 16.234375 38.136719 15.328125 37.070312 C 14.472656 35.917969 14.148438 34.507812 14.3125 33.085938 C 14.535156 31.832031 15.085938 30.84375 16.015625 29.980469 C 16.0625 29.933594 16.105469 29.886719 16.152344 29.839844 C 18.058594 28.027344 21.089844 28.324219 23.046875 29.863281 Z M 16.515625 31.226562 C 15.6875 32.242188 15.515625 33.402344 15.625 34.667969 C 15.847656 35.738281 16.507812 36.574219 17.382812 37.207031 C 18.40625 37.804688 19.460938 37.972656 20.625 37.726562 C 21.652344 37.378906 22.550781 36.652344 23.082031 35.699219 C 23.511719 34.753906 23.605469 33.679688 23.351562 32.667969 C 22.9375 31.609375 22.285156 30.832031 21.289062 30.273438 C 21 30.148438 20.714844 30.054688 20.410156 29.980469 C 20.328125 29.957031 20.246094 29.9375 20.160156 29.914062 C 18.769531 29.734375 17.484375 30.207031 16.515625 31.226562 Z M 16.515625 31.226562 "/>
<path style=" stroke:none;fill-rule:nonzero;fill:white;fill-opacity:1;" d="M 43 20.65625 C 43.214844 20.847656 43.347656 21.011719 43.386719 21.300781 C 43.386719 21.375 43.382812 21.449219 43.382812 21.527344 C 43.382812 21.640625 43.382812 21.640625 43.386719 21.753906 C 43.355469 22.003906 43.304688 22.152344 43.164062 22.363281 C 42.070312 23.210938 40.683594 23.34375 39.34375 23.210938 C 38.523438 23.101562 37.773438 22.945312 37.109375 22.429688 C 36.871094 22.109375 36.773438 21.882812 36.71875 21.484375 C 36.867188 20.972656 37.046875 20.683594 37.5 20.410156 C 39.140625 19.699219 41.488281 19.5625 43 20.65625 Z M 38.183594 21.484375 C 38.214844 21.546875 38.25 21.613281 38.28125 21.679688 C 39.589844 22.070312 40.582031 21.992188 41.894531 21.679688 C 41.894531 21.617188 41.894531 21.550781 41.894531 21.484375 C 40.71875 21 39.367188 21.054688 38.183594 21.484375 Z M 38.183594 21.484375 "/>
</g>
</svg>
