<?xml version="1.0" encoding="UTF-8"?>
<svg xmlns="http://www.w3.org/2000/svg" xmlns:xlink="http://www.w3.org/1999/xlink" style="fill:white" width="50px" height="50px" viewBox="0 0 50 50" version="1.1">
<g id="surface1">
<path style=" stroke:none;fill-rule:nonzero;fill:white;fill-opacity:1;" d="M 24.664062 6.996094 C 24.792969 6.988281 24.917969 6.984375 25.050781 6.980469 C 25.390625 7.03125 25.390625 7.03125 25.628906 7.21875 C 25.84375 7.644531 25.824219 8.007812 25.804688 8.476562 C 25.804688 8.5625 25.800781 8.648438 25.800781 8.738281 C 25.796875 8.953125 25.789062 9.164062 25.78125 9.375 C 25.863281 9.378906 25.949219 9.378906 26.03125 9.382812 C 28.863281 9.515625 31.804688 10.4375 34.046875 12.214844 C 34.648438 12.660156 35.222656 12.710938 35.949219 12.792969 C 37.628906 12.980469 38.992188 13.820312 40.070312 15.113281 C 40.707031 15.96875 40.707031 15.96875 40.742188 16.527344 C 40.507812 17.070312 40.015625 17.304688 39.527344 17.59375 C 39.441406 17.644531 39.355469 17.699219 39.265625 17.75 C 39.199219 17.789062 39.132812 17.832031 39.0625 17.871094 C 39.085938 17.929688 39.109375 17.988281 39.136719 18.046875 C 39.554688 19.0625 39.960938 20.078125 40.226562 21.148438 C 40.246094 21.222656 40.265625 21.292969 40.285156 21.371094 C 40.339844 21.601562 40.386719 21.835938 40.429688 22.070312 C 40.457031 22.214844 40.457031 22.214844 40.484375 22.363281 C 40.671875 23.464844 40.632812 24.554688 40.597656 25.667969 C 40.570312 26.714844 40.585938 27.484375 41.113281 28.417969 C 41.707031 30.066406 41.632812 31.75 40.96875 33.359375 C 40.597656 34.132812 40.597656 34.132812 40.234375 34.375 C 39.644531 34.445312 39.308594 34.289062 38.824219 33.984375 C 38.761719 33.945312 38.699219 33.910156 38.636719 33.871094 C 38.484375 33.78125 38.332031 33.6875 38.183594 33.59375 C 38.125 33.671875 38.066406 33.75 38.007812 33.832031 C 37.421875 34.609375 36.804688 35.332031 36.132812 36.035156 C 36.054688 36.117188 35.980469 36.203125 35.898438 36.289062 C 34.578125 37.675781 32.757812 38.882812 30.957031 39.550781 C 30.890625 39.550781 30.828125 39.550781 30.761719 39.550781 C 30.722656 39.65625 30.722656 39.65625 30.6875 39.765625 C 30.476562 40.246094 30.125 40.617188 29.785156 41.015625 C 29.734375 41.078125 29.683594 41.140625 29.628906 41.203125 C 28.6875 42.25 27.101562 42.890625 25.71875 42.996094 C 25.59375 43 25.464844 43.003906 25.335938 43.003906 C 25.207031 43.011719 25.082031 43.015625 24.949219 43.019531 C 24.609375 42.96875 24.609375 42.96875 24.371094 42.78125 C 24.15625 42.355469 24.175781 41.992188 24.195312 41.523438 C 24.195312 41.4375 24.199219 41.351562 24.199219 41.261719 C 24.203125 41.046875 24.210938 40.835938 24.21875 40.625 C 24.136719 40.621094 24.050781 40.621094 23.96875 40.617188 C 21.136719 40.484375 18.195312 39.5625 15.953125 37.785156 C 15.351562 37.339844 14.777344 37.285156 14.050781 37.207031 C 12.371094 37.023438 11.046875 36.195312 9.953125 34.910156 C 9.605469 34.460938 9.292969 34.050781 9.257812 33.472656 C 9.492188 32.929688 9.984375 32.695312 10.472656 32.40625 C 10.558594 32.355469 10.644531 32.300781 10.734375 32.25 C 10.800781 32.210938 10.867188 32.167969 10.9375 32.128906 C 10.914062 32.070312 10.890625 32.011719 10.863281 31.953125 C 10.445312 30.9375 10.039062 29.921875 9.773438 28.851562 C 9.753906 28.777344 9.734375 28.707031 9.714844 28.628906 C 9.660156 28.398438 9.613281 28.164062 9.570312 27.929688 C 9.542969 27.785156 9.542969 27.785156 9.515625 27.636719 C 9.328125 26.535156 9.367188 25.445312 9.402344 24.332031 C 9.429688 23.285156 9.414062 22.515625 8.886719 21.582031 C 8.292969 19.933594 8.367188 18.25 9.03125 16.640625 C 9.402344 15.867188 9.402344 15.867188 9.765625 15.625 C 10.589844 15.613281 11.136719 15.964844 11.816406 16.40625 C 11.875 16.328125 11.933594 16.25 11.992188 16.167969 C 12.578125 15.390625 13.195312 14.667969 13.867188 13.964844 C 13.9375 13.886719 14.011719 13.808594 14.085938 13.730469 C 15.320312 12.441406 17.277344 10.878906 19.058594 10.503906 C 19.117188 10.484375 19.175781 10.46875 19.238281 10.449219 C 19.34375 10.222656 19.34375 10.222656 19.433594 9.960938 C 19.671875 9.617188 19.945312 9.300781 20.214844 8.984375 C 20.265625 8.921875 20.316406 8.859375 20.371094 8.796875 C 21.417969 7.636719 23.140625 7.035156 24.664062 6.996094 Z M 21.410156 9.984375 C 20.375 11.101562 19.886719 12.449219 19.921875 13.964844 C 20.109375 15.875 21.351562 17.511719 22.332031 19.101562 C 22.578125 19.5 22.820312 19.902344 23.0625 20.300781 C 23.15625 20.457031 23.15625 20.457031 23.25 20.617188 C 23.367188 20.8125 23.488281 21.007812 23.605469 21.207031 C 23.65625 21.292969 23.710938 21.378906 23.761719 21.46875 C 23.832031 21.585938 23.832031 21.585938 23.902344 21.699219 C 24.011719 21.890625 24.011719 21.890625 24.21875 21.972656 C 24.21875 21.878906 24.21875 21.789062 24.21875 21.695312 C 24.222656 20.824219 24.230469 19.957031 24.238281 19.089844 C 24.242188 18.644531 24.242188 18.199219 24.246094 17.75 C 24.246094 17.320312 24.25 16.890625 24.253906 16.460938 C 24.257812 16.296875 24.257812 16.132812 24.257812 15.964844 C 24.257812 15.738281 24.261719 15.507812 24.261719 15.277344 C 24.261719 15.175781 24.261719 15.175781 24.261719 15.070312 C 24.269531 14.746094 24.296875 14.574219 24.496094 14.3125 C 24.707031 14.160156 24.707031 14.160156 25 14.109375 C 25.367188 14.171875 25.460938 14.257812 25.683594 14.550781 C 25.722656 14.804688 25.738281 15.015625 25.738281 15.265625 C 25.738281 15.339844 25.738281 15.410156 25.738281 15.484375 C 25.742188 15.71875 25.742188 15.957031 25.742188 16.191406 C 25.746094 16.355469 25.746094 16.519531 25.746094 16.683594 C 25.753906 17.113281 25.753906 17.542969 25.753906 17.972656 C 25.757812 18.410156 25.761719 18.851562 25.765625 19.289062 C 25.773438 20.152344 25.777344 21.011719 25.78125 21.875 C 26.046875 21.546875 26.269531 21.234375 26.464844 20.863281 C 26.519531 20.761719 26.574219 20.660156 26.628906 20.554688 C 26.683594 20.445312 26.742188 20.339844 26.800781 20.226562 C 26.921875 19.996094 27.042969 19.769531 27.167969 19.539062 C 27.199219 19.480469 27.230469 19.425781 27.261719 19.363281 C 27.757812 18.433594 28.28125 17.515625 28.808594 16.601562 C 28.847656 16.535156 28.886719 16.46875 28.925781 16.398438 C 29.816406 14.847656 30.867188 13.867188 32.519531 13.183594 C 32.160156 12.75 31.699219 12.550781 31.203125 12.316406 C 31.109375 12.273438 31.019531 12.230469 30.925781 12.1875 C 29.359375 11.46875 27.523438 10.886719 25.78125 10.9375 C 25.773438 11.035156 25.773438 11.035156 25.761719 11.136719 C 25.753906 11.222656 25.746094 11.3125 25.738281 11.402344 C 25.730469 11.488281 25.722656 11.574219 25.714844 11.664062 C 25.6875 11.882812 25.644531 12.089844 25.585938 12.304688 C 25.164062 12.378906 24.828125 12.417969 24.414062 12.304688 C 24.292969 11.925781 24.292969 11.542969 24.285156 11.148438 C 24.285156 11.078125 24.28125 11.003906 24.28125 10.929688 C 24.273438 10.695312 24.265625 10.460938 24.261719 10.230469 C 24.257812 10.070312 24.253906 9.914062 24.25 9.753906 C 24.238281 9.367188 24.226562 8.980469 24.21875 8.59375 C 23.203125 8.59375 22.125 9.324219 21.410156 9.984375 Z M 14.863281 15.179688 C 13.804688 16.152344 13.804688 16.152344 13.28125 17.382812 C 13.347656 17.417969 13.410156 17.457031 13.480469 17.492188 C 15.683594 18.722656 15.683594 18.722656 16.738281 19.347656 C 17.460938 19.773438 18.191406 20.195312 18.917969 20.613281 C 19.433594 20.910156 19.949219 21.207031 20.460938 21.507812 C 20.695312 21.648438 20.933594 21.785156 21.167969 21.921875 C 21.335938 22.019531 21.503906 22.121094 21.671875 22.21875 C 21.769531 22.277344 21.871094 22.335938 21.976562 22.398438 C 22.066406 22.449219 22.152344 22.503906 22.246094 22.554688 C 22.316406 22.589844 22.386719 22.621094 22.460938 22.65625 C 22.523438 22.625 22.589844 22.59375 22.65625 22.558594 C 22.417969 22.160156 22.183594 21.761719 21.945312 21.363281 C 21.863281 21.21875 21.777344 21.078125 21.695312 20.933594 C 21.257812 20.195312 20.816406 19.460938 20.371094 18.726562 C 20.308594 18.621094 20.242188 18.511719 20.175781 18.402344 C 20.054688 18.207031 19.933594 18.007812 19.8125 17.8125 C 18.769531 16.089844 18.390625 14.589844 18.457031 12.597656 C 17.308594 12.597656 15.625 14.425781 14.863281 15.179688 Z M 31.835938 15.234375 C 31.761719 15.289062 31.6875 15.34375 31.613281 15.398438 C 30.453125 16.332031 29.828125 17.824219 29.144531 19.105469 C 28.761719 19.820312 28.363281 20.523438 27.960938 21.222656 C 27.671875 21.726562 27.402344 22.234375 27.148438 22.753906 C 27.550781 22.632812 27.894531 22.484375 28.257812 22.269531 C 28.355469 22.210938 28.457031 22.15625 28.558594 22.09375 C 28.664062 22.03125 28.773438 21.96875 28.882812 21.90625 C 28.996094 21.839844 29.109375 21.773438 29.222656 21.707031 C 29.457031 21.570312 29.691406 21.433594 29.925781 21.296875 C 30.460938 20.984375 31.003906 20.671875 31.542969 20.359375 C 31.753906 20.238281 31.964844 20.117188 32.179688 19.996094 C 32.601562 19.75 33.023438 19.507812 33.445312 19.261719 C 33.550781 19.203125 33.65625 19.140625 33.765625 19.078125 C 33.976562 18.957031 34.183594 18.835938 34.394531 18.714844 C 34.886719 18.433594 35.378906 18.148438 35.871094 17.863281 C 36.042969 17.765625 36.214844 17.664062 36.390625 17.5625 C 36.605469 17.4375 36.824219 17.3125 37.039062 17.1875 C 37.613281 16.855469 38.1875 16.53125 38.769531 16.210938 C 38.320312 15.261719 37.367188 14.8125 36.425781 14.453125 C 34.898438 13.929688 33.117188 14.285156 31.835938 15.234375 Z M 10.351562 17.578125 C 9.898438 19.125 9.992188 20.4375 10.757812 21.878906 C 11.550781 23.148438 12.707031 23.976562 14.160156 24.316406 C 14.988281 24.441406 15.808594 24.417969 16.640625 24.402344 C 16.796875 24.398438 16.949219 24.398438 17.105469 24.394531 C 17.507812 24.390625 17.910156 24.382812 18.3125 24.375 C 18.726562 24.367188 19.136719 24.363281 19.550781 24.355469 C 20.359375 24.34375 21.164062 24.332031 21.972656 24.316406 C 21.972656 24.25 21.972656 24.1875 21.972656 24.121094 C 21.878906 24.066406 21.878906 24.066406 21.78125 24.011719 C 19.941406 22.949219 18.101562 21.886719 16.257812 20.824219 C 16.15625 20.765625 16.050781 20.703125 15.941406 20.640625 C 15.730469 20.519531 15.519531 20.398438 15.3125 20.277344 C 14.820312 19.996094 14.332031 19.714844 13.84375 19.433594 C 13.671875 19.332031 13.503906 19.234375 13.332031 19.136719 C 13.117188 19.011719 12.90625 18.890625 12.691406 18.769531 C 12.59375 18.710938 12.496094 18.65625 12.398438 18.597656 C 12.300781 18.542969 12.207031 18.488281 12.109375 18.433594 C 11.902344 18.3125 11.695312 18.191406 11.492188 18.066406 C 11.386719 18.003906 11.28125 17.941406 11.175781 17.878906 C 11.082031 17.820312 10.984375 17.761719 10.886719 17.703125 C 10.648438 17.554688 10.648438 17.554688 10.351562 17.578125 Z M 36.976562 18.945312 C 36.863281 19.007812 36.753906 19.074219 36.636719 19.136719 C 36.515625 19.207031 36.394531 19.277344 36.273438 19.347656 C 36.148438 19.417969 36.023438 19.492188 35.898438 19.5625 C 35.027344 20.0625 34.160156 20.566406 33.296875 21.070312 C 32.570312 21.496094 31.839844 21.917969 31.109375 22.339844 C 30.699219 22.574219 30.292969 22.8125 29.882812 23.046875 C 29.792969 23.097656 29.703125 23.152344 29.609375 23.203125 C 29.371094 23.34375 29.132812 23.480469 28.894531 23.621094 C 28.824219 23.660156 28.753906 23.699219 28.683594 23.742188 C 28.527344 23.832031 28.375 23.929688 28.222656 24.023438 C 28.222656 24.054688 28.222656 24.085938 28.222656 24.121094 C 28.308594 24.121094 28.390625 24.121094 28.480469 24.117188 C 29.285156 24.113281 30.085938 24.109375 30.890625 24.105469 C 31.304688 24.105469 31.71875 24.101562 32.132812 24.097656 C 32.53125 24.097656 32.933594 24.09375 33.332031 24.09375 C 33.484375 24.09375 33.636719 24.089844 33.785156 24.089844 C 35.558594 24.070312 37.21875 24.316406 38.695312 25.367188 C 38.867188 25.492188 38.867188 25.492188 39.0625 25.585938 C 39.128906 23.136719 38.761719 20.847656 37.597656 18.652344 C 37.386719 18.652344 37.148438 18.847656 36.976562 18.945312 Z M 23.695312 24.078125 C 23.417969 24.492188 23.371094 24.902344 23.4375 25.390625 C 23.613281 25.859375 23.902344 26.1875 24.316406 26.464844 C 24.742188 26.605469 25.15625 26.648438 25.578125 26.492188 C 26.066406 26.230469 26.386719 25.914062 26.5625 25.390625 C 26.613281 24.757812 26.539062 24.445312 26.171875 23.925781 C 25.742188 23.527344 25.40625 23.402344 24.816406 23.410156 C 24.34375 23.472656 24.015625 23.730469 23.695312 24.078125 Z M 10.9375 24.511719 C 10.871094 26.921875 11.257812 29.191406 12.402344 31.347656 C 12.519531 31.296875 12.636719 31.242188 12.757812 31.1875 C 13.066406 31.074219 13.175781 31.054688 13.511719 31.109375 C 13.769531 31.25 13.769531 31.25 13.910156 31.421875 C 13.992188 31.75 13.988281 31.902344 13.867188 32.226562 C 13.605469 32.472656 13.300781 32.636719 12.988281 32.8125 C 12.917969 32.851562 12.847656 32.890625 12.773438 32.933594 C 12.261719 33.222656 11.746094 33.507812 11.230469 33.789062 C 11.679688 34.738281 12.632812 35.1875 13.574219 35.546875 C 14.847656 35.980469 16.265625 35.777344 17.464844 35.222656 C 17.710938 35.082031 17.9375 34.933594 18.164062 34.765625 C 18.238281 34.710938 18.3125 34.65625 18.386719 34.601562 C 19.546875 33.667969 20.171875 32.175781 20.855469 30.894531 C 21.238281 30.179688 21.636719 29.476562 22.039062 28.777344 C 22.328125 28.273438 22.597656 27.765625 22.851562 27.246094 C 22.449219 27.367188 22.105469 27.515625 21.742188 27.730469 C 21.640625 27.789062 21.542969 27.84375 21.441406 27.90625 C 21.332031 27.96875 21.226562 28.03125 21.117188 28.09375 C 20.949219 28.191406 20.78125 28.292969 20.609375 28.390625 C 20.433594 28.492188 20.257812 28.59375 20.082031 28.699219 C 19.507812 29.035156 18.929688 29.367188 18.351562 29.699219 C 18.25 29.757812 18.144531 29.820312 18.039062 29.882812 C 17.84375 29.992188 17.648438 30.105469 17.457031 30.21875 C 17.28125 30.316406 17.105469 30.417969 16.933594 30.519531 C 16.855469 30.566406 16.777344 30.609375 16.699219 30.65625 C 16.632812 30.695312 16.566406 30.734375 16.496094 30.773438 C 16.171875 30.921875 15.949219 30.878906 15.625 30.761719 C 15.429688 30.554688 15.429688 30.554688 15.332031 30.273438 C 15.363281 29.902344 15.363281 29.902344 15.429688 29.589844 C 15.5 29.5625 15.570312 29.535156 15.644531 29.507812 C 15.90625 29.398438 16.144531 29.273438 16.390625 29.128906 C 16.480469 29.074219 16.570312 29.019531 16.664062 28.964844 C 16.761719 28.90625 16.859375 28.851562 16.960938 28.789062 C 17.171875 28.667969 17.382812 28.542969 17.59375 28.417969 C 17.703125 28.355469 17.8125 28.292969 17.921875 28.226562 C 18.589844 27.835938 19.261719 27.449219 19.929688 27.066406 C 20.410156 26.789062 20.886719 26.511719 21.363281 26.234375 C 21.441406 26.1875 21.523438 26.140625 21.605469 26.089844 C 21.660156 26.050781 21.71875 26.015625 21.777344 25.976562 C 21.777344 25.945312 21.777344 25.910156 21.777344 25.878906 C 21.652344 25.878906 21.652344 25.878906 21.523438 25.878906 C 20.726562 25.882812 19.933594 25.886719 19.136719 25.890625 C 18.726562 25.890625 18.316406 25.890625 17.910156 25.894531 C 17.511719 25.894531 17.117188 25.898438 16.722656 25.898438 C 16.570312 25.898438 16.421875 25.898438 16.273438 25.898438 C 14.492188 25.910156 12.957031 25.714844 11.429688 24.730469 C 11.222656 24.59375 11.222656 24.59375 10.9375 24.511719 Z M 32.414062 25.605469 C 32.289062 25.609375 32.160156 25.613281 32.03125 25.613281 C 31.699219 25.621094 31.367188 25.625 31.039062 25.632812 C 30.699219 25.636719 30.359375 25.644531 30.019531 25.648438 C 29.355469 25.660156 28.691406 25.671875 28.027344 25.683594 C 28.027344 25.75 28.027344 25.8125 28.027344 25.878906 C 28.089844 25.914062 28.15625 25.953125 28.21875 25.988281 C 30.980469 27.582031 30.980469 27.582031 33.742188 29.175781 C 33.84375 29.234375 33.949219 29.296875 34.058594 29.359375 C 34.269531 29.480469 34.480469 29.601562 34.6875 29.722656 C 35.179688 30.003906 35.667969 30.285156 36.15625 30.566406 C 36.328125 30.667969 36.496094 30.765625 36.667969 30.863281 C 36.882812 30.988281 37.09375 31.109375 37.308594 31.230469 C 37.40625 31.289062 37.503906 31.34375 37.601562 31.402344 C 37.699219 31.457031 37.792969 31.511719 37.890625 31.566406 C 38.097656 31.6875 38.304688 31.808594 38.507812 31.933594 C 38.613281 31.996094 38.71875 32.058594 38.824219 32.121094 C 38.917969 32.179688 39.015625 32.238281 39.113281 32.296875 C 39.351562 32.445312 39.351562 32.445312 39.648438 32.421875 C 40.101562 30.875 40.007812 29.5625 39.242188 28.121094 C 38.4375 26.835938 37.296875 26.050781 35.839844 25.683594 C 34.730469 25.464844 33.539062 25.585938 32.414062 25.605469 Z M 27.34375 27.34375 C 27.816406 28.230469 28.324219 29.09375 28.839844 29.957031 C 28.917969 30.089844 28.996094 30.222656 29.078125 30.355469 C 29.394531 30.886719 29.710938 31.417969 30.027344 31.945312 C 30.085938 32.042969 30.085938 32.042969 30.148438 32.144531 C 30.222656 32.265625 30.296875 32.390625 30.371094 32.511719 C 31.332031 34.101562 31.601562 35.578125 31.542969 37.402344 C 33.511719 36.839844 35.667969 34.636719 36.71875 32.910156 C 36.71875 32.8125 36.71875 32.71875 36.71875 32.617188 C 36.652344 32.582031 36.589844 32.542969 36.519531 32.507812 C 34.316406 31.277344 34.316406 31.277344 33.261719 30.652344 C 32.539062 30.226562 31.808594 29.804688 31.082031 29.386719 C 30.566406 29.089844 30.050781 28.792969 29.539062 28.492188 C 29.304688 28.355469 29.066406 28.21875 28.832031 28.082031 C 28.664062 27.984375 28.496094 27.886719 28.328125 27.789062 C 28.230469 27.730469 28.128906 27.671875 28.023438 27.613281 C 27.933594 27.5625 27.847656 27.507812 27.753906 27.453125 C 27.550781 27.328125 27.550781 27.328125 27.34375 27.34375 Z M 25.78125 28.027344 C 25.78125 32.441406 25.78125 36.859375 25.78125 41.40625 C 27.457031 40.988281 28.542969 40.34375 29.441406 38.859375 C 30.078125 37.652344 30.234375 36.34375 29.898438 35.015625 C 29.414062 33.535156 28.480469 32.214844 27.667969 30.898438 C 27.421875 30.5 27.179688 30.097656 26.9375 29.699219 C 26.875 29.59375 26.8125 29.492188 26.75 29.382812 C 26.632812 29.1875 26.511719 28.992188 26.394531 28.792969 C 26.34375 28.707031 26.289062 28.621094 26.238281 28.53125 C 26.191406 28.453125 26.144531 28.378906 26.097656 28.300781 C 25.988281 28.109375 25.988281 28.109375 25.78125 28.027344 Z M 24.121094 28.125 C 24.082031 28.195312 24.042969 28.269531 24 28.34375 C 23.632812 29.015625 23.261719 29.6875 22.890625 30.355469 C 22.675781 30.742188 22.464844 31.128906 22.25 31.515625 C 22.152344 31.691406 22.054688 31.871094 21.957031 32.046875 C 21.835938 32.265625 21.714844 32.484375 21.59375 32.707031 C 20.550781 34.59375 19.519531 35.976562 17.480469 36.816406 C 17.839844 37.25 18.300781 37.449219 18.796875 37.683594 C 18.890625 37.726562 18.980469 37.769531 19.074219 37.8125 C 20.671875 38.542969 22.453125 39.0625 24.21875 39.0625 C 24.21875 35.453125 24.21875 31.84375 24.21875 28.125 C 24.1875 28.125 24.15625 28.125 24.121094 28.125 Z M 24.121094 28.125 "/>
<path style=" stroke:none;fill-rule:nonzero;fill:white;fill-opacity:1;" d="M 47.265625 13.867188 C 47.808594 14.277344 47.992188 14.839844 48.230469 15.460938 C 48.292969 15.621094 48.292969 15.621094 48.359375 15.789062 C 49.027344 17.539062 49.53125 19.335938 49.804688 21.191406 C 49.820312 21.308594 49.839844 21.425781 49.855469 21.546875 C 50.011719 22.6875 50.035156 23.816406 50.03125 24.964844 C 50.03125 25.105469 50.03125 25.105469 50.03125 25.25 C 50.027344 26.652344 49.976562 28.015625 49.707031 29.394531 C 49.691406 29.480469 49.675781 29.570312 49.660156 29.660156 C 48.800781 34.414062 46.507812 38.8125 43.164062 42.285156 C 43.101562 42.347656 43.039062 42.414062 42.976562 42.480469 C 42.085938 43.40625 41.175781 44.261719 40.136719 45.019531 C 40.023438 45.101562 39.910156 45.1875 39.800781 45.269531 C 39 45.859375 38.167969 46.386719 37.304688 46.875 C 37.234375 46.914062 37.167969 46.953125 37.09375 46.992188 C 34.835938 48.265625 32.382812 49.117188 29.847656 49.640625 C 29.777344 49.652344 29.707031 49.667969 29.636719 49.683594 C 28.109375 49.976562 26.585938 50.035156 25.035156 50.03125 C 24.941406 50.03125 24.847656 50.03125 24.75 50.03125 C 18.78125 50.007812 13.085938 47.890625 8.59375 43.945312 C 8.527344 43.890625 8.460938 43.835938 8.394531 43.777344 C 8.0625 43.496094 7.746094 43.199219 7.4375 42.894531 C 7.339844 42.792969 7.339844 42.792969 7.238281 42.691406 C 6.9375 42.394531 6.644531 42.097656 6.347656 41.796875 C 6.359375 41.878906 6.371094 41.960938 6.386719 42.046875 C 6.429688 42.355469 6.476562 42.660156 6.519531 42.96875 C 6.539062 43.101562 6.558594 43.234375 6.578125 43.367188 C 6.609375 43.558594 6.636719 43.75 6.664062 43.941406 C 6.679688 44.058594 6.695312 44.171875 6.714844 44.292969 C 6.746094 44.753906 6.742188 45.15625 6.480469 45.550781 C 6.15625 45.765625 5.949219 45.757812 5.566406 45.703125 C 5.222656 45.429688 5.121094 45.226562 5.0625 44.792969 C 5.046875 44.691406 5.03125 44.589844 5.015625 44.480469 C 5 44.371094 4.984375 44.257812 4.96875 44.144531 C 4.953125 44.03125 4.9375 43.914062 4.921875 43.796875 C 4.867188 43.429688 4.816406 43.0625 4.765625 42.695312 C 4.730469 42.449219 4.695312 42.199219 4.660156 41.953125 C 4.582031 41.402344 4.507812 40.851562 4.429688 40.300781 C 4.398438 40.078125 4.367188 39.859375 4.335938 39.636719 C 4.207031 38.71875 4.207031 38.71875 4.484375 38.273438 C 4.894531 38.015625 5.210938 38.09375 5.664062 38.183594 C 6.054688 38.285156 6.441406 38.410156 6.824219 38.539062 C 6.933594 38.574219 7.042969 38.609375 7.152344 38.648438 C 7.382812 38.722656 7.609375 38.796875 7.835938 38.875 C 8.183594 38.988281 8.535156 39.101562 8.882812 39.214844 C 9.105469 39.289062 9.324219 39.363281 9.546875 39.4375 C 9.652344 39.46875 9.757812 39.503906 9.863281 39.539062 C 10.769531 39.84375 10.769531 39.84375 11.035156 40.332031 C 11.085938 40.632812 11.085938 40.632812 11.035156 40.917969 C 10.851562 41.171875 10.722656 41.285156 10.421875 41.378906 C 10.097656 41.414062 9.886719 41.347656 9.574219 41.246094 C 9.464844 41.210938 9.355469 41.171875 9.246094 41.136719 C 9.132812 41.097656 9.019531 41.0625 8.90625 41.023438 C 8.789062 40.984375 8.675781 40.945312 8.558594 40.90625 C 8.277344 40.8125 7.996094 40.71875 7.714844 40.625 C 7.683594 40.65625 7.648438 40.6875 7.617188 40.722656 C 8.75 41.902344 9.886719 43.007812 11.230469 43.945312 C 11.300781 43.996094 11.375 44.046875 11.449219 44.097656 C 11.953125 44.449219 12.46875 44.789062 12.988281 45.117188 C 13.050781 45.15625 13.113281 45.195312 13.175781 45.234375 C 15.644531 46.765625 18.523438 47.714844 21.386719 48.144531 C 21.5 48.160156 21.609375 48.179688 21.722656 48.195312 C 22.8125 48.351562 23.886719 48.378906 24.980469 48.375 C 25.074219 48.375 25.164062 48.375 25.261719 48.375 C 26.796875 48.371094 28.277344 48.277344 29.785156 47.949219 C 29.882812 47.929688 29.976562 47.90625 30.078125 47.886719 C 33.558594 47.101562 36.765625 45.585938 39.550781 43.359375 C 39.605469 43.316406 39.65625 43.277344 39.710938 43.234375 C 41.226562 42.035156 42.625 40.632812 43.75 39.0625 C 43.792969 39.003906 43.835938 38.945312 43.878906 38.886719 C 45.773438 36.285156 47.085938 33.414062 47.820312 30.285156 C 47.847656 30.167969 47.847656 30.167969 47.878906 30.050781 C 48.246094 28.390625 48.390625 26.75 48.375 25.054688 C 48.375 24.964844 48.375 24.871094 48.375 24.777344 C 48.367188 23.433594 48.320312 22.121094 48.046875 20.800781 C 48.03125 20.714844 48.015625 20.632812 47.996094 20.542969 C 47.667969 18.847656 47.195312 17.132812 46.4375 15.578125 C 46.203125 15.097656 46.09375 14.785156 46.191406 14.257812 C 46.46875 13.816406 46.765625 13.789062 47.265625 13.867188 Z M 47.265625 13.867188 "/>
<path style=" stroke:none;fill-rule:nonzero;fill:white;fill-opacity:1;" d="M 24.96875 -0.03125 C 25.109375 -0.03125 25.109375 -0.03125 25.253906 -0.03125 C 26.65625 -0.0273438 28.015625 0.0234375 29.394531 0.292969 C 29.527344 0.316406 29.527344 0.316406 29.660156 0.339844 C 33.949219 1.117188 38.050781 3.054688 41.308594 5.957031 C 41.367188 6.007812 41.425781 6.058594 41.488281 6.109375 C 41.988281 6.542969 42.457031 6.996094 42.921875 7.464844 C 42.992188 7.535156 43.0625 7.609375 43.136719 7.679688 C 43.308594 7.855469 43.480469 8.027344 43.652344 8.203125 C 43.640625 8.117188 43.628906 8.03125 43.613281 7.945312 C 43.570312 7.625 43.523438 7.304688 43.480469 6.984375 C 43.460938 6.84375 43.441406 6.707031 43.421875 6.570312 C 43.390625 6.371094 43.363281 6.171875 43.335938 5.972656 C 43.320312 5.851562 43.304688 5.730469 43.285156 5.609375 C 43.253906 5.164062 43.261719 4.824219 43.523438 4.457031 C 43.75 4.296875 43.75 4.296875 44.035156 4.242188 C 44.453125 4.316406 44.566406 4.453125 44.824219 4.785156 C 44.933594 5.125 44.972656 5.46875 45.019531 5.824219 C 45.035156 5.925781 45.050781 6.03125 45.066406 6.136719 C 45.097656 6.371094 45.128906 6.605469 45.160156 6.835938 C 45.21875 7.265625 45.285156 7.691406 45.347656 8.121094 C 45.382812 8.351562 45.414062 8.582031 45.449219 8.8125 C 45.472656 8.960938 45.496094 9.113281 45.515625 9.265625 C 45.546875 9.476562 45.578125 9.691406 45.609375 9.90625 C 45.628906 10.03125 45.644531 10.152344 45.664062 10.28125 C 45.773438 11.3125 45.773438 11.3125 45.515625 11.726562 C 45.105469 11.984375 44.789062 11.90625 44.335938 11.816406 C 43.945312 11.714844 43.558594 11.589844 43.175781 11.460938 C 43.066406 11.425781 42.957031 11.390625 42.847656 11.351562 C 42.617188 11.277344 42.390625 11.203125 42.164062 11.125 C 41.816406 11.011719 41.464844 10.898438 41.117188 10.785156 C 40.894531 10.710938 40.675781 10.636719 40.453125 10.5625 C 40.347656 10.53125 40.242188 10.496094 40.136719 10.460938 C 39.230469 10.15625 39.230469 10.15625 38.964844 9.667969 C 38.914062 9.367188 38.914062 9.367188 38.964844 9.082031 C 39.148438 8.828125 39.277344 8.714844 39.578125 8.621094 C 39.902344 8.585938 40.113281 8.652344 40.425781 8.753906 C 40.535156 8.789062 40.644531 8.828125 40.753906 8.863281 C 40.867188 8.902344 40.980469 8.9375 41.09375 8.976562 C 41.210938 9.015625 41.324219 9.054688 41.441406 9.09375 C 41.722656 9.1875 42.003906 9.28125 42.285156 9.375 C 42.316406 9.34375 42.351562 9.308594 42.382812 9.277344 C 41.332031 8.195312 40.292969 7.128906 39.0625 6.25 C 39.003906 6.207031 38.945312 6.164062 38.886719 6.121094 C 35.980469 4.003906 32.722656 2.636719 29.199219 1.953125 C 29.121094 1.9375 29.042969 1.921875 28.964844 1.902344 C 26.179688 1.34375 22.976562 1.449219 20.214844 2.050781 C 20.117188 2.070312 20.023438 2.09375 19.921875 2.113281 C 16.441406 2.898438 13.234375 4.414062 10.449219 6.640625 C 10.394531 6.683594 10.34375 6.722656 10.289062 6.765625 C 8.773438 7.964844 7.375 9.367188 6.25 10.9375 C 6.207031 10.996094 6.164062 11.054688 6.121094 11.113281 C 4.226562 13.714844 2.914062 16.585938 2.179688 19.714844 C 2.160156 19.792969 2.140625 19.871094 2.121094 19.949219 C 1.753906 21.609375 1.609375 23.25 1.625 24.945312 C 1.625 25.035156 1.625 25.128906 1.625 25.222656 C 1.632812 26.566406 1.679688 27.878906 1.953125 29.199219 C 1.96875 29.285156 1.984375 29.367188 2.003906 29.457031 C 2.332031 31.152344 2.804688 32.867188 3.5625 34.421875 C 3.796875 34.902344 3.90625 35.214844 3.808594 35.742188 C 3.664062 35.984375 3.664062 35.984375 3.417969 36.132812 C 3.144531 36.191406 2.90625 36.21875 2.636719 36.132812 C 2.183594 35.707031 2 35.105469 1.777344 34.539062 C 1.710938 34.378906 1.710938 34.378906 1.648438 34.210938 C 0.96875 32.464844 0.46875 30.664062 0.195312 28.808594 C 0.179688 28.691406 0.160156 28.574219 0.144531 28.453125 C -0.0117188 27.3125 -0.0351562 26.183594 -0.03125 25.035156 C -0.03125 24.941406 -0.03125 24.847656 -0.03125 24.75 C -0.0273438 23.347656 0.0234375 21.984375 0.292969 20.605469 C 0.316406 20.472656 0.316406 20.472656 0.339844 20.339844 C 1.199219 15.585938 3.492188 11.1875 6.835938 7.714844 C 6.898438 7.652344 6.960938 7.585938 7.023438 7.519531 C 7.914062 6.59375 8.824219 5.738281 9.863281 4.980469 C 9.976562 4.898438 10.089844 4.8125 10.199219 4.730469 C 11 4.140625 11.832031 3.613281 12.695312 3.125 C 12.765625 3.085938 12.832031 3.046875 12.90625 3.007812 C 15.164062 1.734375 17.617188 0.882812 20.152344 0.359375 C 20.257812 0.339844 20.257812 0.339844 20.363281 0.316406 C 21.890625 0.0234375 23.417969 -0.0351562 24.96875 -0.03125 Z M 24.96875 -0.03125 "/>
</g>
</svg>
